<svg xmlns="http://www.w3.org/2000/svg" xmlns:xlink="http://www.w3.org/1999/xlink" xmlns:lucid="lucid" width="1083.29" height="694.61"><g transform="translate(-233.0194297858609 -68.69301249921193)" lucid:page-tab-id="Y8v6R2IEbVOo"><path d="M0 0h1500v1000H0z" fill="#fff"/><path d="M879.6 626.6a6 6 0 0 1 6-6h404.7a6 6 0 0 1 6 6v108a6 6 0 0 1-6 6H885.6a6 6 0 0 1-6-6z" fill="#fff" fill-opacity="0"/><path d="M895.58 620.6h10m5 0h9.98m5 0h10m5 0h9.98m5 0h10m5 0h9.98m5 0h10m5 0h9.98m5 0h10m5 0h9.98m5 0h10m5 0h9.98m5 0h10m5 0h9.98m5 0h10m5 0h9.98m5 0h10m5 0h9.98m5 0h10m5 0h9.98m5 0h10m5 0h9.98m5 0h10m5 0h9.98m5 0h10m5 0h9.98m5 0h5l.93.06.92.22.87.36.8.5.72.6.6.72.5.8.36.87.22.92.07.94v5.13m0 5.14v10.3m0 5.13v10.3m0 5.13v10.3m0 5.13v10.3m0 5.13v10.27m0 5.15v10.28m0 5.15v5.14l-.06.93-.22.9-.36.88-.5.8-.6.73-.72.6-.8.5-.87.36-.92.2-.94.1h-4.98m-5 0h-10m-5 0h-9.98m-5 0h-10m-5 0h-9.98m-5 0h-10m-5 0h-9.98m-5 0h-10m-5 0h-9.98m-5 0h-10m-5 0h-9.98m-5 0h-10m-5 0h-9.98m-5 0h-10m-5 0h-9.98m-5 0h-10m-5 0h-9.98m-5 0h-10m-5 0h-9.98m-5 0h-10m-5 0h-9.98m-5 0h-10m-5 0h-9.98m-5 0h-10m-5 0h-9.98m-5 0h-10m-5 0h-9.98m-5 0h-5l-.93-.1-.92-.2-.87-.37-.8-.5-.7-.6-.63-.72-.5-.8-.35-.86-.22-.9-.07-.95v-5.15m0-5.15v-10.28m0-5.15V698.6m0-5.15v-10.3m0-5.13v-10.3m0-5.13v-10.3m0-5.14v-10.3m0-5.13v-5.14l.06-.95.22-.92.36-.87.5-.8.6-.7.72-.63.8-.5.87-.35.92-.22.94-.07h4.98" stroke="#000" fill="none"/><use xlink:href="#a" transform="matrix(1,0,0,1,884.5874886712805,625.5876291690308) translate(9.209876543209901 31.52777777777778)"/><use xlink:href="#b" transform="matrix(1,0,0,1,884.5874886712805,625.5876291690308) translate(74.51851851851853 31.52777777777778)"/><use xlink:href="#c" transform="matrix(1,0,0,1,884.5874886712805,625.5876291690308) translate(178.1604938271605 31.52777777777778)"/><use xlink:href="#d" transform="matrix(1,0,0,1,884.5874886712805,625.5876291690308) translate(221.37037037037038 31.52777777777778)"/><use xlink:href="#e" transform="matrix(1,0,0,1,884.5874886712805,625.5876291690308) translate(326.2469135802469 31.52777777777778)"/><use xlink:href="#f" transform="matrix(1,0,0,1,884.5874886712805,625.5876291690308) translate(385.44444444444446 31.52777777777778)"/><use xlink:href="#g" transform="matrix(1,0,0,1,884.5874886712805,625.5876291690308) translate(6.30864197530866 58.19444444444445)"/><use xlink:href="#h" transform="matrix(1,0,0,1,884.5874886712805,625.5876291690308) translate(103.71604938271605 58.19444444444445)"/><use xlink:href="#i" transform="matrix(1,0,0,1,884.5874886712805,625.5876291690308) translate(148.09876543209876 58.19444444444445)"/><use xlink:href="#j" transform="matrix(1,0,0,1,884.5874886712805,625.5876291690308) translate(209.76543209876542 58.19444444444445)"/><use xlink:href="#k" transform="matrix(1,0,0,1,884.5874886712805,625.5876291690308) translate(242.29629629629628 58.19444444444445)"/><use xlink:href="#l" transform="matrix(1,0,0,1,884.5874886712805,625.5876291690308) translate(315.5061728395061 58.19444444444445)"/><use xlink:href="#m" transform="matrix(1,0,0,1,884.5874886712805,625.5876291690308) translate(369.82716049382714 58.19444444444445)"/><use xlink:href="#n" transform="matrix(1,0,0,1,884.5874886712805,625.5876291690308) translate(20.290123456790155 84.86111111111111)"/><use xlink:href="#o" transform="matrix(1,0,0,1,884.5874886712805,625.5876291690308) translate(74.61111111111114 84.86111111111111)"/><use xlink:href="#p" transform="matrix(1,0,0,1,884.5874886712805,625.5876291690308) translate(99.3024691358025 84.86111111111111)"/><use xlink:href="#q" transform="matrix(1,0,0,1,884.5874886712805,625.5876291690308) translate(165.90740740740742 84.86111111111111)"/><use xlink:href="#r" transform="matrix(1,0,0,1,884.5874886712805,625.5876291690308) translate(202.94444444444446 84.86111111111111)"/><use xlink:href="#s" transform="matrix(1,0,0,1,884.5874886712805,625.5876291690308) translate(273.2530864197531 84.86111111111111)"/><use xlink:href="#t" transform="matrix(1,0,0,1,884.5874886712805,625.5876291690308) translate(327.51234567901236 84.86111111111111)"/><path d="M971.4 619.6V615m0-4.62v-9.2m0-4.6v-9.2m0-4.6v-9.2m0-4.62v-4.6" stroke="#3a414a" fill="none"/><path d="M971.9 620.1h-1v-.52h1zM971.9 564.38h-1v-.52h1z" stroke="#3a414a" stroke-width=".05" fill="#3a414a"/><path d="M579.23 270.14a5 5 0 0 1 5-5h150a5 5 0 0 1 5 5v110a5 5 0 0 1-5 5h-150a5 5 0 0 1-5-5z" stroke="#1071e5" stroke-width="2" fill="#fff"/><use xlink:href="#u" transform="matrix(1,0,0,1,591.2300044711664,277.1376976274705) translate(14.574999999999996 41.4)"/><use xlink:href="#v" transform="matrix(1,0,0,1,591.2300044711664,277.1376976274705) translate(35.55 63)"/><use xlink:href="#w" transform="matrix(1,0,0,1,591.2300044711664,277.1376976274705) translate(88.45 63)"/><path d="M699.7 447.86a5 5 0 0 1 5-5h150a5 5 0 0 1 5 5v110a5 5 0 0 1-5 5h-150a5 5 0 0 1-5-5z" stroke="#000" stroke-width="2" fill="#fff"/><use xlink:href="#x" transform="matrix(1,0,0,1,711.6860964525277,454.8626633982507) translate(14.574999999999996 41.4)"/><use xlink:href="#y" transform="matrix(1,0,0,1,711.6860964525277,454.8626633982507) translate(18.074999999999996 63)"/><use xlink:href="#z" transform="matrix(1,0,0,1,711.6860964525277,454.8626633982507) translate(70.025 63)"/><path d="M972.4 440.05h-2V425h2zm0-36.4h-2v-15.87h2z" stroke="#3a414a" stroke-width=".05" fill="#3a414a"/><path d="M971.4 441.86l-10-16.87h2.34l7.65 12.93 7.65-12.94h2.32z" stroke="#3a414a" stroke-width=".05" fill="#3a414a"/><path d="M972.4 387.8h-2v-1.02h2z" fill="#3a414a"/><path d="M972.42 387.83h-2.05v-1.08h2.05zm-2-1.03v.98h1.95v-.98z" stroke="#3a414a" stroke-width=".05" fill="#3a414a"/><use xlink:href="#A" transform="matrix(1,0,0,1,914.1832049996885,403.65358400682425) translate(0.005000000000002558 14.222222222222223)"/><use xlink:href="#B" transform="matrix(1,0,0,1,914.1832049996885,403.65358400682425) translate(80.84450617283952 14.222222222222223)"/><path d="M778.46 440.2l-.84 1.8-20.2-9.34v-2.2zm-96.95-44.86v2.2l-21.78-10.08.84-1.8z" stroke="#3a414a" stroke-width=".05" fill="#3a414a"/><path d="M779.7 441.86l-21.6 2.2-.2-2 18.22-1.85-10.4-15.06 1.66-1.14z" stroke="#3a414a" stroke-width=".05" fill="#3a414a"/><path d="M659.74 387.48l-2.9-1.34h3.52z" fill="#3a414a"/><path d="M659.75 387.5l-3-1.4h3.65zm-2.8-1.34l2.78 1.28.6-1.28z" stroke="#3a414a" stroke-width=".05" fill="#3a414a"/><use xlink:href="#C" transform="matrix(1,0,0,1,681.5074331778965,392.6668471795273) translate(0.005000000000002558 14.222222222222223)"/><use xlink:href="#D" transform="matrix(1,0,0,1,681.5074331778965,392.6668471795273) translate(21.165493827160496 35.55555555555556)"/><path d="M253.02 296.54a5 5 0 0 1 5-5h150a5 5 0 0 1 5 5v57.2a5 5 0 0 1-5 5h-150a5 5 0 0 1-5-5z" stroke="#e81313" stroke-width="2" fill="#fff"/><use xlink:href="#E" transform="matrix(1,0,0,1,265.0194297858609,303.5376976274706) translate(10.724999999999994 25.4)"/><use xlink:href="#F" transform="matrix(1,0,0,1,265.0194297858609,303.5376976274706) translate(70.975 25.4)"/><path d="M444.8 326.14h-28.96v-2h28.95zm132.43 0h-29.77v-2h29.77z" stroke="#e81313" stroke-width=".05" fill="#e81313"/><path d="M433.7 315.82l-15.75 9.32 15.76 9.32-1 1.72L414 325.14l18.67-11.04z" stroke="#e81313" stroke-width=".05" fill="#e81313"/><path d="M578.23 326.14h-1.03v-2h1.03z" fill="#e81313"/><path d="M578.25 326.16h-1.07v-2.05h1.08zm-1.02-2v1.95h.98v-1.94z" stroke="#e81313" stroke-width=".05" fill="#e81313"/><use xlink:href="#G" transform="matrix(1,0,0,1,444.79138379518076,293.13769762747063) translate(37.01734567901235 14.222222222222223)"/><use xlink:href="#H" transform="matrix(1,0,0,1,444.79138379518076,293.13769762747063) translate(0.005000000000002558 35.55555555555556)"/><use xlink:href="#I" transform="matrix(1,0,0,1,444.79138379518076,293.13769762747063) translate(29.140802469135807 56.88888888888889)"/><path d="M475.7 466.92a5 5 0 0 1 5-5h150a5 5 0 0 1 5 5v50.2a5 5 0 0 1-5 5h-150a5 5 0 0 1-5-5z" stroke="#1071e5" stroke-width="2" fill="#fff"/><use xlink:href="#J" transform="matrix(1,0,0,1,487.6860964525275,473.9178806229528) translate(10.724999999999994 21.3375)"/><use xlink:href="#K" transform="matrix(1,0,0,1,487.6860964525275,473.9178806229528) translate(70.975 21.3375)"/><path d="M557.75 460.66l-1.17-1.62 40.76-29.44h3.42zM659 387.53l-28.7 20.74h-3.42l30.95-22.36z" stroke="#000" stroke-width=".05"/><path d="M566.2 441.83l-7.33 16.8 18.23-1.68.2 2-21.6 1.97 8.66-19.88z" stroke="#000" stroke-width=".05"/><path d="M658.98 387.55l-1-1.4h2.96z"/><path d="M658.98 387.58l-1.06-1.47h3.1zm-.97-1.42l1 1.35 1.86-1.34z" stroke="#000" stroke-width=".05"/><use xlink:href="#L" transform="matrix(1,0,0,1,592.6107072793724,408.26604724467205) translate(0.004999999999999005 14.222222222222223)"/><path d="M1136.3 93.7a5 5 0 0 1 5-5h150a5 5 0 0 1 5 5v110a5 5 0 0 1-5 5h-150a5 5 0 0 1-5-5z" stroke="#000" stroke-width="2" fill="#ced4db"/><use xlink:href="#M" transform="matrix(1,0,0,1,1148.3139035474728,100.69301249921193) translate(34.525 50.4)"/><path d="M475.7 625.6a5 5 0 0 1 5-5h150a5 5 0 0 1 5 5v50.2a5 5 0 0 1-5 5h-150a5 5 0 0 1-5-5z" stroke="#000" stroke-width="2" fill="#ced4db"/><use xlink:href="#N" transform="matrix(1,0,0,1,487.6860964525275,632.5876291690308) translate(50.525 14.4)"/><use xlink:href="#O" transform="matrix(1,0,0,1,487.6860964525275,632.5876291690308) translate(43.575 36)"/><path d="M555.7 524.13v10.4m0 10.4v20.82m0 10.4v20.8m0 10.42v10.4" stroke="#1071e5" stroke-width="2" fill="none"/><path d="M556.7 524.16h-2v-1.02h2z" stroke="#1071e5" stroke-width=".05" fill="#1071e5"/><path d="M545.5 600.4l10.2 17.22 10.17-17.2M1053.4 502.86h13.48m13.5 0h26.69m13.2 0h13.22" stroke="#1071e5" stroke-width="2" fill="none"/><path d="M1053.42 503.86h-1.03v-2h1.02z" stroke="#1071e5" stroke-width=".05" fill="#1071e5"/><path d="M1116.13 513.04l17.22-10.18-17.22-10.18M659.23 263.14v-8.6m0-8.6V228.7m0-8.6v-8.6" stroke="#1071e5" stroke-width="2" fill="none"/><path d="M660.23 264.14h-2v-1.03h2z" stroke="#1071e5" stroke-width=".05" fill="#1071e5"/><path d="M669.4 228.87l-10.17-17.2-10.18 17.2" stroke="#1071e5" stroke-width="2" fill="none"/><path d="M579.23 93.7a5 5 0 0 1 5-5h150a5 5 0 0 1 5 5v110a5 5 0 0 1-5 5h-150a5 5 0 0 1-5-5z" stroke="#000" stroke-width="2" fill="#fff"/><g><use xlink:href="#P" transform="matrix(1,0,0,1,591.2300044711664,100.69301249921193) translate(14.574999999999996 41.4)"/><use xlink:href="#Q" transform="matrix(1,0,0,1,591.2300044711664,100.69301249921193) translate(44.05 63)"/></g><path d="M891.4 93.7a5 5 0 0 1 5-5h150a5 5 0 0 1 5 5v110a5 5 0 0 1-5 5h-150a5 5 0 0 1-5-5z" stroke="#000" stroke-width="2" fill="#fff"/><g><use xlink:href="#P" transform="matrix(1,0,0,1,903.3930815428985,100.69301249921193) translate(14.574999999999996 41.4)"/><use xlink:href="#R" transform="matrix(1,0,0,1,903.3930815428985,100.69301249921193) translate(42.025 63)"/></g><path d="M762.18 326.14h-20.95v-2h20.95zm126.4 0h-38.64v-2h38.63z" stroke="#3a414a" stroke-width=".05" fill="#3a414a"/><path d="M890.4 325.14l-18.68 11.04-1-1.72 15.74-9.32-15.75-9.32 1.02-1.72z" stroke="#3a414a" stroke-width=".05" fill="#3a414a"/><path d="M741.26 326.14h-1.03v-2h1.03z" fill="#3a414a"/><path d="M741.28 326.16h-1.07v-2.05h1.08zm-1.02-2v1.95h.97v-1.94z" stroke="#3a414a" stroke-width=".05" fill="#3a414a"/><g><use xlink:href="#S" transform="matrix(1,0,0,1,762.1832049996498,314.47103096080383) translate(0.005000000000002558 14.222222222222223)"/><use xlink:href="#T" transform="matrix(1,0,0,1,762.1832049996498,314.47103096080383) translate(17.733395061728398 14.222222222222223)"/><use xlink:href="#U" transform="matrix(1,0,0,1,762.1832049996498,314.47103096080383) translate(67.06672839506174 14.222222222222223)"/></g><path d="M1136.3 447.86a5 5 0 0 1 5-5h150a5 5 0 0 1 5 5v110a5 5 0 0 1-5 5h-150a5 5 0 0 1-5-5z" stroke="#000" stroke-width="2" fill="#fff"/><g><use xlink:href="#x" transform="matrix(1,0,0,1,1148.3139035474728,454.8626633982507) translate(14.574999999999996 41.4)"/><use xlink:href="#V" transform="matrix(1,0,0,1,1148.3139035474728,454.8626633982507) translate(20.049999999999997 63)"/><use xlink:href="#W" transform="matrix(1,0,0,1,1148.3139035474728,454.8626633982507) translate(77 63)"/></g><path d="M891.4 447.86a5 5 0 0 1 5-5h150a5 5 0 0 1 5 5v110a5 5 0 0 1-5 5h-150a5 5 0 0 1-5-5z" stroke="#1071e5" stroke-width="2" fill="#fff"/><g><use xlink:href="#u" transform="matrix(1,0,0,1,903.3930815428985,454.86266339825056) translate(14.574999999999996 29.4)"/><use xlink:href="#X" transform="matrix(1,0,0,1,903.3930815428985,454.86266339825056) translate(10.074999999999996 51)"/><use xlink:href="#Y" transform="matrix(1,0,0,1,903.3930815428985,454.86266339825056) translate(67.025 51)"/><use xlink:href="#Z" transform="matrix(1,0,0,1,903.3930815428985,454.86266339825056) translate(119.975 51)"/><use xlink:href="#aa" transform="matrix(1,0,0,1,903.3930815428985,454.86266339825056) translate(44.025 72.60000000000001)"/></g><path d="M891.4 270.78a5 5 0 0 1 5-5h150a5 5 0 0 1 5 5v110a5 5 0 0 1-5 5h-150a5 5 0 0 1-5-5z" stroke="#1071e5" stroke-width="2" fill="#fff"/><g><use xlink:href="#u" transform="matrix(1,0,0,1,903.3930815428985,277.7778379487313) translate(14.574999999999996 41.4)"/><use xlink:href="#X" transform="matrix(1,0,0,1,903.3930815428985,277.7778379487313) translate(33.525 63)"/><use xlink:href="#ab" transform="matrix(1,0,0,1,903.3930815428985,277.7778379487313) translate(90.475 63)"/></g><path d="M971.4 263.78v-8.7m0-8.72v-17.43m0-8.7v-8.72" stroke="#1071e5" stroke-width="2" fill="none"/><path d="M972.4 264.78h-2v-1.03h2z" stroke="#1071e5" stroke-width=".05" fill="#1071e5"/><path d="M981.57 228.87l-10.18-17.2-10.2 17.2" stroke="#1071e5" stroke-width="2" fill="none"/><path d="M1216.3 440.86V228.2" stroke="#3a414a" stroke-width="2" fill="none"/><path d="M1217.3 441.86h-2v-1.02h2z" stroke="#3a414a" stroke-width=".05" fill="#3a414a"/><path d="M1216.3 212.93l4.65 14.26h-9.27z" stroke="#3a414a" stroke-width="2" fill="#fff"/><path d="M699.7 625.6a5 5 0 0 1 5-5h150a5 5 0 0 1 5 5v110a5 5 0 0 1-5 5h-150a5 5 0 0 1-5-5z" stroke="#000" stroke-width="2" fill="#ced4db"/><g><use xlink:href="#M" transform="matrix(1,0,0,1,711.6860964525277,632.5876291690308) translate(34.525 50.4)"/></g><path d="M779.7 564.86v8.96m0 8.95v17.64m0 8.7v8.67" stroke="#1071e5" stroke-width="2" fill="none"/><path d="M780.7 564.9h-2v-1.04h2z" stroke="#1071e5" stroke-width=".05" fill="#1071e5"/><path d="M769.5 600.4l10.2 17.22 10.17-17.2" stroke="#1071e5" stroke-width="2" fill="none"/><path d="M883.33 741.1l-4.08 2.74m-4.1 2.76l-8.16 5.5m-4.1 2.75l-8.16 5.5m-4.64.96h-9.85m-4.92 0h-9.86m-4.92 0h-9.85m-4.93 0h-9.85m-4.92 0h-9.86m-4.92 0h-9.85m-4.93 0h-9.85m-4.93 0h-9.85m-4.93 0h-9.86m-4.93 0h-9.84m-4.92 0h-9.86m-4.92 0h-4.9l-.96-4.86m-.95-4.83l-1.92-9.65m-.96-4.83l-1.9-9.67m-.97-4.83l-1.9-9.66m-.97-4.83l-1.9-9.67m-.97-4.83l-1.9-9.66m-.97-4.83l-1.93-9.67m-.95-4.83l-1.92-9.66m-.96-4.83l-1.9-9.67m-.97-4.83l-1.9-9.66m-.97-4.84l-.23-1.2-5.3-6.83m-3-3.9l-6.03-7.78m-3.02-3.9l-6.03-7.8m-3.02-3.9l-6.03-7.78m-3-3.9l-6.04-7.78m-3-3.9l-6.03-7.8m-3-3.9l-6.04-7.8m-3.02-3.9l-6-7.78m-3.03-3.9l-3-3.9" stroke="#3a414a" fill="none"/><path d="M883.58 740.77l.83.2-.8.54-.56-.82.13-.08zM580.46 523.23l-.8.62-.54-.72h1.26z" stroke="#3a414a" stroke-width=".05" fill="#3a414a"/><defs><path fill="#3a414a" d="M190 0L58-211 59 0H30v-248h39L202-35l-2-213h31V0h-41" id="ac"/><path fill="#3a414a" d="M141-36C126-15 110 5 73 4 37 3 15-17 15-53c-1-64 63-63 125-63 3-35-9-54-41-54-24 1-41 7-42 31l-33-3c5-37 33-52 76-52 45 0 72 20 72 64v82c-1 20 7 32 28 27v20c-31 9-61-2-59-35zM48-53c0 20 12 33 32 33 41-3 63-29 60-74-43 2-92-5-92 41" id="ad"/><path fill="#3a414a" d="M210-169c-67 3-38 105-44 169h-31v-121c0-29-5-50-35-48C34-165 62-65 56 0H25l-1-190h30c1 10-1 24 2 32 10-44 99-50 107 0 11-21 27-35 58-36 85-2 47 119 55 194h-31v-121c0-29-5-49-35-48" id="ae"/><path fill="#3a414a" d="M100-194c63 0 86 42 84 106H49c0 40 14 67 53 68 26 1 43-12 49-29l28 8c-11 28-37 45-77 45C44 4 14-33 15-96c1-61 26-98 85-98zm52 81c6-60-76-77-97-28-3 7-6 17-6 28h103" id="af"/><g id="a"><use transform="matrix(0.06172839506172839,0,0,0.06172839506172839,0,0)" xlink:href="#ac"/><use transform="matrix(0.06172839506172839,0,0,0.06172839506172839,15.987654320987653,0)" xlink:href="#ad"/><use transform="matrix(0.06172839506172839,0,0,0.06172839506172839,28.333333333333332,0)" xlink:href="#ae"/><use transform="matrix(0.06172839506172839,0,0,0.06172839506172839,46.79012345679012,0)" xlink:href="#af"/></g><path fill="#3a414a" d="M96-169c-40 0-48 33-48 73s9 75 48 75c24 0 41-14 43-38l32 2c-6 37-31 61-74 61-59 0-76-41-82-99-10-93 101-131 147-64 4 7 5 14 7 22l-32 3c-4-21-16-35-41-35" id="ag"/><path fill="#3a414a" d="M100-194c62-1 85 37 85 99 1 63-27 99-86 99S16-35 15-95c0-66 28-99 85-99zM99-20c44 1 53-31 53-75 0-43-8-75-51-75s-53 32-53 75 10 74 51 75" id="ah"/><path fill="#3a414a" d="M115-194c55 1 70 41 70 98S169 2 115 4C84 4 66-9 55-30l1 105H24l-1-265h31l2 30c10-21 28-34 59-34zm-8 174c40 0 45-34 45-75s-6-73-45-74c-42 0-51 32-51 76 0 43 10 73 51 73" id="ai"/><path fill="#3a414a" d="M84 4C-5 8 30-112 23-190h32v120c0 31 7 50 39 49 72-2 45-101 50-169h31l1 190h-30c-1-10 1-25-2-33-11 22-28 36-60 37" id="aj"/><path fill="#3a414a" d="M59-47c-2 24 18 29 38 22v24C64 9 27 4 27-40v-127H5v-23h24l9-43h21v43h35v23H59v120" id="ak"/><path fill="#3a414a" d="M85-194c31 0 48 13 60 33l-1-100h32l1 261h-30c-2-10 0-23-3-31C134-8 116 4 85 4 32 4 16-35 15-94c0-66 23-100 70-100zm9 24c-40 0-46 34-46 75 0 40 6 74 45 74 42 0 51-32 51-76 0-42-9-74-50-73" id="al"/><g id="b"><use transform="matrix(0.06172839506172839,0,0,0.06172839506172839,0,0)" xlink:href="#ag"/><use transform="matrix(0.06172839506172839,0,0,0.06172839506172839,11.11111111111111,0)" xlink:href="#ah"/><use transform="matrix(0.06172839506172839,0,0,0.06172839506172839,23.45679012345679,0)" xlink:href="#ae"/><use transform="matrix(0.06172839506172839,0,0,0.06172839506172839,41.91358024691358,0)" xlink:href="#ai"/><use transform="matrix(0.06172839506172839,0,0,0.06172839506172839,54.25925925925926,0)" xlink:href="#aj"/><use transform="matrix(0.06172839506172839,0,0,0.06172839506172839,66.60493827160494,0)" xlink:href="#ak"/><use transform="matrix(0.06172839506172839,0,0,0.06172839506172839,72.77777777777777,0)" xlink:href="#af"/><use transform="matrix(0.06172839506172839,0,0,0.06172839506172839,85.12345679012346,0)" xlink:href="#al"/></g><path fill="#3a414a" d="M117-194c89-4 53 116 60 194h-32v-121c0-31-8-49-39-48C34-167 62-67 57 0H25l-1-190h30c1 10-1 24 2 32 11-22 29-35 61-36" id="am"/><g id="c"><use transform="matrix(0.06172839506172839,0,0,0.06172839506172839,0,0)" xlink:href="#ad"/><use transform="matrix(0.06172839506172839,0,0,0.06172839506172839,12.345679012345679,0)" xlink:href="#am"/><use transform="matrix(0.06172839506172839,0,0,0.06172839506172839,24.691358024691358,0)" xlink:href="#al"/></g><path fill="#3a414a" d="M114-163C36-179 61-72 57 0H25l-1-190h30c1 12-1 29 2 39 6-27 23-49 58-41v29" id="an"/><path fill="#3a414a" d="M135-143c-3-34-86-38-87 0 15 53 115 12 119 90S17 21 10-45l28-5c4 36 97 45 98 0-10-56-113-15-118-90-4-57 82-63 122-42 12 7 21 19 24 35" id="ao"/><g id="d"><use transform="matrix(0.06172839506172839,0,0,0.06172839506172839,0,0)" xlink:href="#ai"/><use transform="matrix(0.06172839506172839,0,0,0.06172839506172839,12.345679012345679,0)" xlink:href="#an"/><use transform="matrix(0.06172839506172839,0,0,0.06172839506172839,19.691358024691358,0)" xlink:href="#af"/><use transform="matrix(0.06172839506172839,0,0,0.06172839506172839,32.03703703703704,0)" xlink:href="#ao"/><use transform="matrix(0.06172839506172839,0,0,0.06172839506172839,43.14814814814815,0)" xlink:href="#af"/><use transform="matrix(0.06172839506172839,0,0,0.06172839506172839,55.49382716049383,0)" xlink:href="#am"/><use transform="matrix(0.06172839506172839,0,0,0.06172839506172839,67.8395061728395,0)" xlink:href="#ak"/><use transform="matrix(0.06172839506172839,0,0,0.06172839506172839,74.01234567901234,0)" xlink:href="#af"/><use transform="matrix(0.06172839506172839,0,0,0.06172839506172839,86.35802469135803,0)" xlink:href="#al"/></g><path fill="#3a414a" d="M24-231v-30h32v30H24zM24 0v-190h32V0H24" id="ap"/><path fill="#3a414a" d="M177-190C167-65 218 103 67 71c-23-6-38-20-44-43l32-5c15 47 100 32 89-28v-30C133-14 115 1 83 1 29 1 15-40 15-95c0-56 16-97 71-98 29-1 48 16 59 35 1-10 0-23 2-32h30zM94-22c36 0 50-32 50-73 0-42-14-75-50-75-39 0-46 34-46 75s6 73 46 73" id="aq"/><g id="e"><use transform="matrix(0.06172839506172839,0,0,0.06172839506172839,0,0)" xlink:href="#aj"/><use transform="matrix(0.06172839506172839,0,0,0.06172839506172839,12.345679012345679,0)" xlink:href="#ao"/><use transform="matrix(0.06172839506172839,0,0,0.06172839506172839,23.45679012345679,0)" xlink:href="#ap"/><use transform="matrix(0.06172839506172839,0,0,0.06172839506172839,28.333333333333336,0)" xlink:href="#am"/><use transform="matrix(0.06172839506172839,0,0,0.06172839506172839,40.67901234567901,0)" xlink:href="#aq"/></g><use transform="matrix(0.06172839506172839,0,0,0.06172839506172839,0,0)" xlink:href="#ad" id="f"/><path fill="#3a414a" d="M24 0v-261h32V0H24" id="ar"/><path fill="#3a414a" d="M33 0v-38h34V0H33" id="as"/><g id="g"><use transform="matrix(0.06172839506172839,0,0,0.06172839506172839,0,0)" xlink:href="#ak"/><use transform="matrix(0.06172839506172839,0,0,0.06172839506172839,6.172839506172839,0)" xlink:href="#af"/><use transform="matrix(0.06172839506172839,0,0,0.06172839506172839,18.51851851851852,0)" xlink:href="#ae"/><use transform="matrix(0.06172839506172839,0,0,0.06172839506172839,36.9753086419753,0)" xlink:href="#ai"/><use transform="matrix(0.06172839506172839,0,0,0.06172839506172839,49.32098765432098,0)" xlink:href="#ar"/><use transform="matrix(0.06172839506172839,0,0,0.06172839506172839,54.197530864197525,0)" xlink:href="#ad"/><use transform="matrix(0.06172839506172839,0,0,0.06172839506172839,66.5432098765432,0)" xlink:href="#ak"/><use transform="matrix(0.06172839506172839,0,0,0.06172839506172839,72.71604938271604,0)" xlink:href="#af"/><use transform="matrix(0.06172839506172839,0,0,0.06172839506172839,85.06172839506172,0)" xlink:href="#as"/></g><path fill="#3a414a" d="M127-220V0H93v-220H8v-28h204v28h-85" id="at"/><path fill="#3a414a" d="M106-169C34-169 62-67 57 0H25v-261h32l-1 103c12-21 28-36 61-36 89 0 53 116 60 194h-32v-121c2-32-8-49-39-48" id="au"/><g id="h"><use transform="matrix(0.06172839506172839,0,0,0.06172839506172839,0,0)" xlink:href="#at"/><use transform="matrix(0.06172839506172839,0,0,0.06172839506172839,13.518518518518517,0)" xlink:href="#au"/><use transform="matrix(0.06172839506172839,0,0,0.06172839506172839,25.864197530864196,0)" xlink:href="#af"/></g><g id="i"><use transform="matrix(0.06172839506172839,0,0,0.06172839506172839,0,0)" xlink:href="#am"/><use transform="matrix(0.06172839506172839,0,0,0.06172839506172839,12.345679012345679,0)" xlink:href="#ad"/><use transform="matrix(0.06172839506172839,0,0,0.06172839506172839,24.691358024691358,0)" xlink:href="#ae"/><use transform="matrix(0.06172839506172839,0,0,0.06172839506172839,43.148148148148145,0)" xlink:href="#af"/></g><path fill="#3a414a" d="M109-170H84l-4-78h32zm-65 0H19l-4-78h33" id="av"/><g id="j"><use transform="matrix(0.06172839506172839,0,0,0.06172839506172839,0,0)" xlink:href="#av"/><use transform="matrix(0.06172839506172839,0,0,0.06172839506172839,7.8395061728395055,0)" xlink:href="#as"/><use transform="matrix(0.06172839506172839,0,0,0.06172839506172839,14.012345679012345,0)" xlink:href="#as"/><use transform="matrix(0.06172839506172839,0,0,0.06172839506172839,20.185185185185183,0)" xlink:href="#as"/></g><path fill="#3a414a" d="M33 0v-248h34V0H33" id="aw"/><g id="k"><use transform="matrix(0.06172839506172839,0,0,0.06172839506172839,0,0)" xlink:href="#aw"/><use transform="matrix(0.06172839506172839,0,0,0.06172839506172839,6.172839506172839,0)" xlink:href="#ao"/><use transform="matrix(0.06172839506172839,0,0,0.06172839506172839,17.28395061728395,0)" xlink:href="#ar"/><use transform="matrix(0.06172839506172839,0,0,0.06172839506172839,22.160493827160494,0)" xlink:href="#ad"/><use transform="matrix(0.06172839506172839,0,0,0.06172839506172839,34.50617283950617,0)" xlink:href="#am"/><use transform="matrix(0.06172839506172839,0,0,0.06172839506172839,46.85185185185185,0)" xlink:href="#al"/><use transform="matrix(0.06172839506172839,0,0,0.06172839506172839,59.197530864197525,0)" xlink:href="#av"/></g><g id="l"><use transform="matrix(0.06172839506172839,0,0,0.06172839506172839,0,0)" xlink:href="#al"/><use transform="matrix(0.06172839506172839,0,0,0.06172839506172839,12.345679012345679,0)" xlink:href="#ah"/><use transform="matrix(0.06172839506172839,0,0,0.06172839506172839,24.691358024691358,0)" xlink:href="#af"/><use transform="matrix(0.06172839506172839,0,0,0.06172839506172839,37.03703703703704,0)" xlink:href="#ao"/></g><g id="m"><use transform="matrix(0.06172839506172839,0,0,0.06172839506172839,0,0)" xlink:href="#am"/><use transform="matrix(0.06172839506172839,0,0,0.06172839506172839,12.345679012345679,0)" xlink:href="#ah"/><use transform="matrix(0.06172839506172839,0,0,0.06172839506172839,24.691358024691358,0)" xlink:href="#ak"/></g><path fill="#3a414a" d="M108 0H70L1-190h34L89-25l56-165h34" id="ax"/><g id="n"><use transform="matrix(0.06172839506172839,0,0,0.06172839506172839,0,0)" xlink:href="#au"/><use transform="matrix(0.06172839506172839,0,0,0.06172839506172839,12.345679012345679,0)" xlink:href="#ad"/><use transform="matrix(0.06172839506172839,0,0,0.06172839506172839,24.691358024691358,0)" xlink:href="#ax"/><use transform="matrix(0.06172839506172839,0,0,0.06172839506172839,35.80246913580247,0)" xlink:href="#af"/></g><g id="o"><use transform="matrix(0.06172839506172839,0,0,0.06172839506172839,0,0)" xlink:href="#ak"/><use transform="matrix(0.06172839506172839,0,0,0.06172839506172839,6.172839506172839,0)" xlink:href="#ah"/></g><g id="p"><use transform="matrix(0.06172839506172839,0,0,0.06172839506172839,0,0)" xlink:href="#ae"/><use transform="matrix(0.06172839506172839,0,0,0.06172839506172839,18.456790123456788,0)" xlink:href="#ad"/><use transform="matrix(0.06172839506172839,0,0,0.06172839506172839,30.80246913580247,0)" xlink:href="#ak"/><use transform="matrix(0.06172839506172839,0,0,0.06172839506172839,36.97530864197531,0)" xlink:href="#ag"/><use transform="matrix(0.06172839506172839,0,0,0.06172839506172839,48.08641975308642,0)" xlink:href="#au"/></g><g id="q"><use transform="matrix(0.06172839506172839,0,0,0.06172839506172839,0,0)" xlink:href="#ak"/><use transform="matrix(0.06172839506172839,0,0,0.06172839506172839,6.172839506172839,0)" xlink:href="#au"/><use transform="matrix(0.06172839506172839,0,0,0.06172839506172839,18.51851851851852,0)" xlink:href="#af"/></g><path fill="#3a414a" d="M140-251c81 0 123 46 123 126C263-46 219 4 140 4 59 4 17-45 17-125s42-126 123-126zm0 227c63 0 89-41 89-101s-29-99-89-99c-61 0-89 39-89 99S79-25 140-24" id="ay"/><path fill="#3a414a" d="M115-194c53 0 69 39 70 98 0 66-23 100-70 100C84 3 66-7 56-30L54 0H23l1-261h32v101c10-23 28-34 59-34zm-8 174c40 0 45-34 45-75 0-40-5-75-45-74-42 0-51 32-51 76 0 43 10 73 51 73" id="az"/><path fill="#3a414a" d="M24-231v-30h32v30H24zM-9 49c24 4 33-6 33-30v-209h32V24c2 40-23 58-65 49V49" id="aA"/><g id="r"><use transform="matrix(0.06172839506172839,0,0,0.06172839506172839,0,0)" xlink:href="#ay"/><use transform="matrix(0.06172839506172839,0,0,0.06172839506172839,17.28395061728395,0)" xlink:href="#az"/><use transform="matrix(0.06172839506172839,0,0,0.06172839506172839,29.629629629629626,0)" xlink:href="#aA"/><use transform="matrix(0.06172839506172839,0,0,0.06172839506172839,34.50617283950617,0)" xlink:href="#af"/><use transform="matrix(0.06172839506172839,0,0,0.06172839506172839,46.85185185185185,0)" xlink:href="#ag"/><use transform="matrix(0.06172839506172839,0,0,0.06172839506172839,57.96296296296296,0)" xlink:href="#ak"/></g><path fill="#3a414a" d="M179-190L93 31C79 59 56 82 12 73V49c39 6 53-20 64-50L1-190h34L92-34l54-156h33" id="aB"/><g id="s"><use transform="matrix(0.06172839506172839,0,0,0.06172839506172839,0,0)" xlink:href="#at"/><use transform="matrix(0.06172839506172839,0,0,0.06172839506172839,12.28395061728395,0)" xlink:href="#aB"/><use transform="matrix(0.06172839506172839,0,0,0.06172839506172839,23.39506172839506,0)" xlink:href="#ai"/><use transform="matrix(0.06172839506172839,0,0,0.06172839506172839,35.74074074074074,0)" xlink:href="#af"/></g><path fill="#3a414a" d="M14 0l48-248h34L48 0H14" id="aC"/><path fill="#3a414a" d="M55-144c13 50 104 24 104 88C159 21 15 23 1-39l26-10c6 40 102 42 102-4-13-50-104-23-104-87 0-71 143-71 148-8l-29 4c-5-35-85-37-89 0" id="aD"/><path fill="#3a414a" d="M6 0l50-261h32L37 0H6" id="aE"/><path fill="#3a414a" d="M165-48c-4 18 1 34 23 27l-3 20c-29 8-62 0-52-35h-2C116-14 99 4 63 4 30 4 8-16 8-49c0-68 71-67 138-67 10-26 0-56-31-54-26 1-42 9-47 31l-32-5c8-67 160-71 144 15-5 28-9 54-15 81zM42-50c3 52 80 24 89-6 7-12 7-24 11-38-47 1-103-4-100 44" id="aF"/><path fill="#3a414a" d="M67-158c22-48 132-52 116 29L158 0h-32l25-140c3-38-53-32-70-12C52-117 51-52 38 0H6l36-190h30" id="aG"/><path fill="#3a414a" d="M133-28C103 26-5 8 13-77c13-62 24-115 90-117 29-1 46 15 56 35l19-102h32L160 0h-30zM45-64c-2 27 10 43 35 43 54-1 69-50 69-103 0-29-15-46-42-46-53-1-58 58-62 106" id="aH"/><g id="t"><use transform="matrix(0.06172839506172839,0,0,0.06172839506172839,0,0)" xlink:href="#aC"/><use transform="matrix(0.06172839506172839,0,0,0.06172839506172839,6.172839506172839,0)" xlink:href="#aD"/><use transform="matrix(0.06172839506172839,0,0,0.06172839506172839,17.28395061728395,0)" xlink:href="#aE"/><use transform="matrix(0.06172839506172839,0,0,0.06172839506172839,22.160493827160494,0)" xlink:href="#aF"/><use transform="matrix(0.06172839506172839,0,0,0.06172839506172839,34.50617283950617,0)" xlink:href="#aG"/><use transform="matrix(0.06172839506172839,0,0,0.06172839506172839,46.85185185185185,0)" xlink:href="#aH"/></g><path fill="#1071e5" d="M143 4C61 4 22-44 18-125c-5-107 100-154 193-111 17 8 29 25 37 43l-32 9c-13-25-37-40-76-40-61 0-88 39-88 99 0 61 29 100 91 101 35 0 62-11 79-27v-45h-74v-28h105v86C228-13 192 4 143 4" id="aI"/><path fill="#1071e5" d="M100-194c63 0 86 42 84 106H49c0 40 14 67 53 68 26 1 43-12 49-29l28 8c-11 28-37 45-77 45C44 4 14-33 15-96c1-61 26-98 85-98zm52 81c6-60-76-77-97-28-3 7-6 17-6 28h103" id="aJ"/><path fill="#1071e5" d="M100-194c62-1 85 37 85 99 1 63-27 99-86 99S16-35 15-95c0-66 28-99 85-99zM99-20c44 1 53-31 53-75 0-43-8-75-51-75s-53 32-53 75 10 74 51 75" id="aK"/><path fill="#1071e5" d="M177-190C167-65 218 103 67 71c-23-6-38-20-44-43l32-5c15 47 100 32 89-28v-30C133-14 115 1 83 1 29 1 15-40 15-95c0-56 16-97 71-98 29-1 48 16 59 35 1-10 0-23 2-32h30zM94-22c36 0 50-32 50-73 0-42-14-75-50-75-39 0-46 34-46 75s6 73 46 73" id="aL"/><path fill="#1071e5" d="M114-163C36-179 61-72 57 0H25l-1-190h30c1 12-1 29 2 39 6-27 23-49 58-41v29" id="aM"/><path fill="#1071e5" d="M141-36C126-15 110 5 73 4 37 3 15-17 15-53c-1-64 63-63 125-63 3-35-9-54-41-54-24 1-41 7-42 31l-33-3c5-37 33-52 76-52 45 0 72 20 72 64v82c-1 20 7 32 28 27v20c-31 9-61-2-59-35zM48-53c0 20 12 33 32 33 41-3 63-29 60-74-43 2-92-5-92 41" id="aN"/><path fill="#1071e5" d="M115-194c55 1 70 41 70 98S169 2 115 4C84 4 66-9 55-30l1 105H24l-1-265h31l2 30c10-21 28-34 59-34zm-8 174c40 0 45-34 45-75s-6-73-45-74c-42 0-51 32-51 76 0 43 10 73 51 73" id="aO"/><path fill="#1071e5" d="M106-169C34-169 62-67 57 0H25v-261h32l-1 103c12-21 28-36 61-36 89 0 53 116 60 194h-32v-121c2-32-8-49-39-48" id="aP"/><path fill="#1071e5" d="M24-231v-30h32v30H24zM24 0v-190h32V0H24" id="aQ"/><path fill="#1071e5" d="M96-169c-40 0-48 33-48 73s9 75 48 75c24 0 41-14 43-38l32 2c-6 37-31 61-74 61-59 0-76-41-82-99-10-93 101-131 147-64 4 7 5 14 7 22l-32 3c-4-21-16-35-41-35" id="aR"/><path fill="#1071e5" d="M24 0v-261h32V0H24" id="aS"/><g id="u"><use transform="matrix(0.05,0,0,0.05,0,0)" xlink:href="#aI"/><use transform="matrix(0.05,0,0,0.05,14,0)" xlink:href="#aJ"/><use transform="matrix(0.05,0,0,0.05,24,0)" xlink:href="#aK"/><use transform="matrix(0.05,0,0,0.05,34,0)" xlink:href="#aL"/><use transform="matrix(0.05,0,0,0.05,44,0)" xlink:href="#aM"/><use transform="matrix(0.05,0,0,0.05,49.95,0)" xlink:href="#aN"/><use transform="matrix(0.05,0,0,0.05,59.95,0)" xlink:href="#aO"/><use transform="matrix(0.05,0,0,0.05,69.95,0)" xlink:href="#aP"/><use transform="matrix(0.05,0,0,0.05,79.95,0)" xlink:href="#aQ"/><use transform="matrix(0.05,0,0,0.05,83.9,0)" xlink:href="#aR"/><use transform="matrix(0.05,0,0,0.05,92.9,0)" xlink:href="#aN"/><use transform="matrix(0.05,0,0,0.05,102.9,0)" xlink:href="#aS"/></g><path fill="#1071e5" d="M190 0L58-211 59 0H30v-248h39L202-35l-2-213h31V0h-41" id="aT"/><path fill="#1071e5" d="M210-169c-67 3-38 105-44 169h-31v-121c0-29-5-50-35-48C34-165 62-65 56 0H25l-1-190h30c1 10-1 24 2 32 10-44 99-50 107 0 11-21 27-35 58-36 85-2 47 119 55 194h-31v-121c0-29-5-49-35-48" id="aU"/><g id="v"><use transform="matrix(0.05,0,0,0.05,0,0)" xlink:href="#aT"/><use transform="matrix(0.05,0,0,0.05,12.950000000000001,0)" xlink:href="#aN"/><use transform="matrix(0.05,0,0,0.05,22.950000000000003,0)" xlink:href="#aU"/><use transform="matrix(0.05,0,0,0.05,37.900000000000006,0)" xlink:href="#aJ"/></g><path fill="#1071e5" d="M195 0l-74-108L45 0H8l94-129-87-119h37l69 98 67-98h37l-84 118L233 0h-38" id="aV"/><use transform="matrix(0.05,0,0,0.05,0,0)" xlink:href="#aV" id="w"/><path d="M143 4C61 4 22-44 18-125c-5-107 100-154 193-111 17 8 29 25 37 43l-32 9c-13-25-37-40-76-40-61 0-88 39-88 99 0 61 29 100 91 101 35 0 62-11 79-27v-45h-74v-28h105v86C228-13 192 4 143 4" id="aW"/><path d="M100-194c63 0 86 42 84 106H49c0 40 14 67 53 68 26 1 43-12 49-29l28 8c-11 28-37 45-77 45C44 4 14-33 15-96c1-61 26-98 85-98zm52 81c6-60-76-77-97-28-3 7-6 17-6 28h103" id="aX"/><path d="M100-194c62-1 85 37 85 99 1 63-27 99-86 99S16-35 15-95c0-66 28-99 85-99zM99-20c44 1 53-31 53-75 0-43-8-75-51-75s-53 32-53 75 10 74 51 75" id="aY"/><path d="M177-190C167-65 218 103 67 71c-23-6-38-20-44-43l32-5c15 47 100 32 89-28v-30C133-14 115 1 83 1 29 1 15-40 15-95c0-56 16-97 71-98 29-1 48 16 59 35 1-10 0-23 2-32h30zM94-22c36 0 50-32 50-73 0-42-14-75-50-75-39 0-46 34-46 75s6 73 46 73" id="aZ"/><path d="M114-163C36-179 61-72 57 0H25l-1-190h30c1 12-1 29 2 39 6-27 23-49 58-41v29" id="ba"/><path d="M141-36C126-15 110 5 73 4 37 3 15-17 15-53c-1-64 63-63 125-63 3-35-9-54-41-54-24 1-41 7-42 31l-33-3c5-37 33-52 76-52 45 0 72 20 72 64v82c-1 20 7 32 28 27v20c-31 9-61-2-59-35zM48-53c0 20 12 33 32 33 41-3 63-29 60-74-43 2-92-5-92 41" id="bb"/><path d="M115-194c55 1 70 41 70 98S169 2 115 4C84 4 66-9 55-30l1 105H24l-1-265h31l2 30c10-21 28-34 59-34zm-8 174c40 0 45-34 45-75s-6-73-45-74c-42 0-51 32-51 76 0 43 10 73 51 73" id="bc"/><path d="M106-169C34-169 62-67 57 0H25v-261h32l-1 103c12-21 28-36 61-36 89 0 53 116 60 194h-32v-121c2-32-8-49-39-48" id="bd"/><path d="M24-231v-30h32v30H24zM24 0v-190h32V0H24" id="be"/><path d="M96-169c-40 0-48 33-48 73s9 75 48 75c24 0 41-14 43-38l32 2c-6 37-31 61-74 61-59 0-76-41-82-99-10-93 101-131 147-64 4 7 5 14 7 22l-32 3c-4-21-16-35-41-35" id="bf"/><path d="M24 0v-261h32V0H24" id="bg"/><g id="x"><use transform="matrix(0.05,0,0,0.05,0,0)" xlink:href="#aW"/><use transform="matrix(0.05,0,0,0.05,14,0)" xlink:href="#aX"/><use transform="matrix(0.05,0,0,0.05,24,0)" xlink:href="#aY"/><use transform="matrix(0.05,0,0,0.05,34,0)" xlink:href="#aZ"/><use transform="matrix(0.05,0,0,0.05,44,0)" xlink:href="#ba"/><use transform="matrix(0.05,0,0,0.05,49.95,0)" xlink:href="#bb"/><use transform="matrix(0.05,0,0,0.05,59.95,0)" xlink:href="#bc"/><use transform="matrix(0.05,0,0,0.05,69.95,0)" xlink:href="#bd"/><use transform="matrix(0.05,0,0,0.05,79.95,0)" xlink:href="#be"/><use transform="matrix(0.05,0,0,0.05,83.9,0)" xlink:href="#bf"/><use transform="matrix(0.05,0,0,0.05,92.9,0)" xlink:href="#bb"/><use transform="matrix(0.05,0,0,0.05,102.9,0)" xlink:href="#bg"/></g><path d="M108 0H70L1-190h34L89-25l56-165h34" id="bh"/><path d="M117-194c89-4 53 116 60 194h-32v-121c0-31-8-49-39-48C34-167 62-67 57 0H25l-1-190h30c1 10-1 24 2 32 11-22 29-35 61-36" id="bi"/><g id="y"><use transform="matrix(0.05,0,0,0.05,0,0)" xlink:href="#aW"/><use transform="matrix(0.05,0,0,0.05,14,0)" xlink:href="#be"/><use transform="matrix(0.05,0,0,0.05,17.95,0)" xlink:href="#bh"/><use transform="matrix(0.05,0,0,0.05,26.950000000000003,0)" xlink:href="#aX"/><use transform="matrix(0.05,0,0,0.05,36.95,0)" xlink:href="#bi"/></g><path d="M190 0L58-211 59 0H30v-248h39L202-35l-2-213h31V0h-41" id="bj"/><path d="M210-169c-67 3-38 105-44 169h-31v-121c0-29-5-50-35-48C34-165 62-65 56 0H25l-1-190h30c1 10-1 24 2 32 10-44 99-50 107 0 11-21 27-35 58-36 85-2 47 119 55 194h-31v-121c0-29-5-49-35-48" id="bk"/><g id="z"><use transform="matrix(0.05,0,0,0.05,0,0)" xlink:href="#bj"/><use transform="matrix(0.05,0,0,0.05,12.950000000000001,0)" xlink:href="#bb"/><use transform="matrix(0.05,0,0,0.05,22.950000000000003,0)" xlink:href="#bk"/><use transform="matrix(0.05,0,0,0.05,37.900000000000006,0)" xlink:href="#aX"/></g><path fill="#333" d="M141-36C126-15 110 5 73 4 37 3 15-17 15-53c-1-64 63-63 125-63 3-35-9-54-41-54-24 1-41 7-42 31l-33-3c5-37 33-52 76-52 45 0 72 20 72 64v82c-1 20 7 32 28 27v20c-31 9-61-2-59-35zM48-53c0 20 12 33 32 33 41-3 63-29 60-74-43 2-92-5-92 41" id="bl"/><path fill="#333" d="M85-194c31 0 48 13 60 33l-1-100h32l1 261h-30c-2-10 0-23-3-31C134-8 116 4 85 4 32 4 16-35 15-94c0-66 23-100 70-100zm9 24c-40 0-46 34-46 75 0 40 6 74 45 74 42 0 51-32 51-76 0-42-9-74-50-73" id="bm"/><path fill="#333" d="M24-231v-30h32v30H24zM24 0v-190h32V0H24" id="bn"/><path fill="#333" d="M59-47c-2 24 18 29 38 22v24C64 9 27 4 27-40v-127H5v-23h24l9-43h21v43h35v23H59v120" id="bo"/><path fill="#333" d="M100-194c62-1 85 37 85 99 1 63-27 99-86 99S16-35 15-95c0-66 28-99 85-99zM99-20c44 1 53-31 53-75 0-43-8-75-51-75s-53 32-53 75 10 74 51 75" id="bp"/><path fill="#333" d="M117-194c89-4 53 116 60 194h-32v-121c0-31-8-49-39-48C34-167 62-67 57 0H25l-1-190h30c1 10-1 24 2 32 11-22 29-35 61-36" id="bq"/><path fill="#333" d="M24 0v-261h32V0H24" id="br"/><g id="A"><use transform="matrix(0.04938271604938272,0,0,0.04938271604938272,0,0)" xlink:href="#bl"/><use transform="matrix(0.04938271604938272,0,0,0.04938271604938272,9.876543209876544,0)" xlink:href="#bm"/><use transform="matrix(0.04938271604938272,0,0,0.04938271604938272,19.75308641975309,0)" xlink:href="#bm"/><use transform="matrix(0.04938271604938272,0,0,0.04938271604938272,29.629629629629633,0)" xlink:href="#bn"/><use transform="matrix(0.04938271604938272,0,0,0.04938271604938272,33.53086419753087,0)" xlink:href="#bo"/><use transform="matrix(0.04938271604938272,0,0,0.04938271604938272,38.46913580246914,0)" xlink:href="#bn"/><use transform="matrix(0.04938271604938272,0,0,0.04938271604938272,42.370370370370374,0)" xlink:href="#bp"/><use transform="matrix(0.04938271604938272,0,0,0.04938271604938272,52.24691358024692,0)" xlink:href="#bq"/><use transform="matrix(0.04938271604938272,0,0,0.04938271604938272,62.12345679012346,0)" xlink:href="#bl"/><use transform="matrix(0.04938271604938272,0,0,0.04938271604938272,72,0)" xlink:href="#br"/></g><path fill="#333" d="M179-190L93 31C79 59 56 82 12 73V49c39 6 53-20 64-50L1-190h34L92-34l54-156h33" id="bs"/><path fill="#333" d="M115-194c55 1 70 41 70 98S169 2 115 4C84 4 66-9 55-30l1 105H24l-1-265h31l2 30c10-21 28-34 59-34zm-8 174c40 0 45-34 45-75s-6-73-45-74c-42 0-51 32-51 76 0 43 10 73 51 73" id="bt"/><path fill="#333" d="M100-194c63 0 86 42 84 106H49c0 40 14 67 53 68 26 1 43-12 49-29l28 8c-11 28-37 45-77 45C44 4 14-33 15-96c1-61 26-98 85-98zm52 81c6-60-76-77-97-28-3 7-6 17-6 28h103" id="bu"/><g id="B"><use transform="matrix(0.04938271604938272,0,0,0.04938271604938272,0,0)" xlink:href="#bo"/><use transform="matrix(0.04938271604938272,0,0,0.04938271604938272,4.938271604938272,0)" xlink:href="#bs"/><use transform="matrix(0.04938271604938272,0,0,0.04938271604938272,13.827160493827162,0)" xlink:href="#bt"/><use transform="matrix(0.04938271604938272,0,0,0.04938271604938272,23.703703703703706,0)" xlink:href="#bu"/></g><g id="C"><use transform="matrix(0.04938271604938272,0,0,0.04938271604938272,0,0)" xlink:href="#bl"/><use transform="matrix(0.04938271604938272,0,0,0.04938271604938272,9.876543209876544,0)" xlink:href="#bm"/><use transform="matrix(0.04938271604938272,0,0,0.04938271604938272,19.75308641975309,0)" xlink:href="#bm"/><use transform="matrix(0.04938271604938272,0,0,0.04938271604938272,29.629629629629633,0)" xlink:href="#bn"/><use transform="matrix(0.04938271604938272,0,0,0.04938271604938272,33.53086419753087,0)" xlink:href="#bo"/><use transform="matrix(0.04938271604938272,0,0,0.04938271604938272,38.46913580246914,0)" xlink:href="#bn"/><use transform="matrix(0.04938271604938272,0,0,0.04938271604938272,42.370370370370374,0)" xlink:href="#bp"/><use transform="matrix(0.04938271604938272,0,0,0.04938271604938272,52.24691358024692,0)" xlink:href="#bq"/><use transform="matrix(0.04938271604938272,0,0,0.04938271604938272,62.12345679012346,0)" xlink:href="#bl"/><use transform="matrix(0.04938271604938272,0,0,0.04938271604938272,72,0)" xlink:href="#br"/></g><g id="D"><use transform="matrix(0.04938271604938272,0,0,0.04938271604938272,0,0)" xlink:href="#bo"/><use transform="matrix(0.04938271604938272,0,0,0.04938271604938272,4.938271604938272,0)" xlink:href="#bs"/><use transform="matrix(0.04938271604938272,0,0,0.04938271604938272,13.827160493827162,0)" xlink:href="#bt"/><use transform="matrix(0.04938271604938272,0,0,0.04938271604938272,23.703703703703706,0)" xlink:href="#bu"/></g><path fill="#e81313" d="M109-170H84l-4-78h32zm-65 0H19l-4-78h33" id="bv"/><path fill="#e81313" d="M30 0v-248h33v221h125V0H30" id="bw"/><path fill="#e81313" d="M24-231v-30h32v30H24zM24 0v-190h32V0H24" id="bx"/><path fill="#e81313" d="M9 0v-24l116-142H16v-24h144v24L44-24h123V0H9" id="by"/><path fill="#e81313" d="M141-36C126-15 110 5 73 4 37 3 15-17 15-53c-1-64 63-63 125-63 3-35-9-54-41-54-24 1-41 7-42 31l-33-3c5-37 33-52 76-52 45 0 72 20 72 64v82c-1 20 7 32 28 27v20c-31 9-61-2-59-35zM48-53c0 20 12 33 32 33 41-3 63-29 60-74-43 2-92-5-92 41" id="bz"/><path fill="#e81313" d="M114-163C36-179 61-72 57 0H25l-1-190h30c1 12-1 29 2 39 6-27 23-49 58-41v29" id="bA"/><path fill="#e81313" d="M85-194c31 0 48 13 60 33l-1-100h32l1 261h-30c-2-10 0-23-3-31C134-8 116 4 85 4 32 4 16-35 15-94c0-66 23-100 70-100zm9 24c-40 0-46 34-46 75 0 40 6 74 45 74 42 0 51-32 51-76 0-42-9-74-50-73" id="bB"/><g id="E"><use transform="matrix(0.05,0,0,0.05,0,0)" xlink:href="#bv"/><use transform="matrix(0.05,0,0,0.05,6.3500000000000005,0)" xlink:href="#bw"/><use transform="matrix(0.05,0,0,0.05,16.35,0)" xlink:href="#bx"/><use transform="matrix(0.05,0,0,0.05,20.3,0)" xlink:href="#by"/><use transform="matrix(0.05,0,0,0.05,29.3,0)" xlink:href="#bz"/><use transform="matrix(0.05,0,0,0.05,39.3,0)" xlink:href="#bA"/><use transform="matrix(0.05,0,0,0.05,45.25,0)" xlink:href="#bB"/></g><path fill="#e81313" d="M33 0v-248h34V0H33" id="bC"/><path fill="#e81313" d="M135-143c-3-34-86-38-87 0 15 53 115 12 119 90S17 21 10-45l28-5c4 36 97 45 98 0-10-56-113-15-118-90-4-57 82-63 122-42 12 7 21 19 24 35" id="bD"/><path fill="#e81313" d="M24 0v-261h32V0H24" id="bE"/><path fill="#e81313" d="M117-194c89-4 53 116 60 194h-32v-121c0-31-8-49-39-48C34-167 62-67 57 0H25l-1-190h30c1 10-1 24 2 32 11-22 29-35 61-36" id="bF"/><g id="F"><use transform="matrix(0.05,0,0,0.05,0,0)" xlink:href="#bC"/><use transform="matrix(0.05,0,0,0.05,5,0)" xlink:href="#bD"/><use transform="matrix(0.05,0,0,0.05,14,0)" xlink:href="#bE"/><use transform="matrix(0.05,0,0,0.05,17.95,0)" xlink:href="#bz"/><use transform="matrix(0.05,0,0,0.05,27.950000000000003,0)" xlink:href="#bF"/><use transform="matrix(0.05,0,0,0.05,37.95,0)" xlink:href="#bB"/><use transform="matrix(0.05,0,0,0.05,47.95,0)" xlink:href="#bv"/></g><path fill="#e81313" d="M106-169C34-169 62-67 57 0H25v-261h32l-1 103c12-21 28-36 61-36 89 0 53 116 60 194h-32v-121c2-32-8-49-39-48" id="bG"/><g id="G"><use transform="matrix(0.04938271604938272,0,0,0.04938271604938272,0,0)" xlink:href="#bG"/><use transform="matrix(0.04938271604938272,0,0,0.04938271604938272,9.876543209876544,0)" xlink:href="#bz"/><use transform="matrix(0.04938271604938272,0,0,0.04938271604938272,19.75308641975309,0)" xlink:href="#bD"/></g><path fill="#e81313" d="M96-169c-40 0-48 33-48 73s9 75 48 75c24 0 41-14 43-38l32 2c-6 37-31 61-74 61-59 0-76-41-82-99-10-93 101-131 147-64 4 7 5 14 7 22l-32 3c-4-21-16-35-41-35" id="bH"/><path fill="#e81313" d="M100-194c62-1 85 37 85 99 1 63-27 99-86 99S16-35 15-95c0-66 28-99 85-99zM99-20c44 1 53-31 53-75 0-43-8-75-51-75s-53 32-53 75 10 74 51 75" id="bI"/><path fill="#e81313" d="M210-169c-67 3-38 105-44 169h-31v-121c0-29-5-50-35-48C34-165 62-65 56 0H25l-1-190h30c1 10-1 24 2 32 10-44 99-50 107 0 11-21 27-35 58-36 85-2 47 119 55 194h-31v-121c0-29-5-49-35-48" id="bJ"/><path fill="#e81313" d="M115-194c55 1 70 41 70 98S169 2 115 4C84 4 66-9 55-30l1 105H24l-1-265h31l2 30c10-21 28-34 59-34zm-8 174c40 0 45-34 45-75s-6-73-45-74c-42 0-51 32-51 76 0 43 10 73 51 73" id="bK"/><path fill="#e81313" d="M84 4C-5 8 30-112 23-190h32v120c0 31 7 50 39 49 72-2 45-101 50-169h31l1 190h-30c-1-10 1-25-2-33-11 22-28 36-60 37" id="bL"/><path fill="#e81313" d="M100-194c63 0 86 42 84 106H49c0 40 14 67 53 68 26 1 43-12 49-29l28 8c-11 28-37 45-77 45C44 4 14-33 15-96c1-61 26-98 85-98zm52 81c6-60-76-77-97-28-3 7-6 17-6 28h103" id="bM"/><g id="H"><use transform="matrix(0.04938271604938272,0,0,0.04938271604938272,0,0)" xlink:href="#bH"/><use transform="matrix(0.04938271604938272,0,0,0.04938271604938272,8.88888888888889,0)" xlink:href="#bI"/><use transform="matrix(0.04938271604938272,0,0,0.04938271604938272,18.765432098765434,0)" xlink:href="#bJ"/><use transform="matrix(0.04938271604938272,0,0,0.04938271604938272,33.53086419753087,0)" xlink:href="#bK"/><use transform="matrix(0.04938271604938272,0,0,0.04938271604938272,43.40740740740741,0)" xlink:href="#bI"/><use transform="matrix(0.04938271604938272,0,0,0.04938271604938272,53.283950617283956,0)" xlink:href="#bL"/><use transform="matrix(0.04938271604938272,0,0,0.04938271604938272,63.1604938271605,0)" xlink:href="#bF"/><use transform="matrix(0.04938271604938272,0,0,0.04938271604938272,73.03703703703704,0)" xlink:href="#bB"/><use transform="matrix(0.04938271604938272,0,0,0.04938271604938272,82.91358024691358,0)" xlink:href="#bM"/><use transform="matrix(0.04938271604938272,0,0,0.04938271604938272,92.79012345679013,0)" xlink:href="#bB"/></g><g id="I"><use transform="matrix(0.04938271604938272,0,0,0.04938271604938272,0,0)" xlink:href="#bF"/><use transform="matrix(0.04938271604938272,0,0,0.04938271604938272,9.876543209876544,0)" xlink:href="#bz"/><use transform="matrix(0.04938271604938272,0,0,0.04938271604938272,19.75308641975309,0)" xlink:href="#bJ"/><use transform="matrix(0.04938271604938272,0,0,0.04938271604938272,34.51851851851852,0)" xlink:href="#bM"/></g><path fill="#1071e5" d="M109-170H84l-4-78h32zm-65 0H19l-4-78h33" id="bN"/><path fill="#1071e5" d="M30 0v-248h33v221h125V0H30" id="bO"/><path fill="#1071e5" d="M9 0v-24l116-142H16v-24h144v24L44-24h123V0H9" id="bP"/><path fill="#1071e5" d="M85-194c31 0 48 13 60 33l-1-100h32l1 261h-30c-2-10 0-23-3-31C134-8 116 4 85 4 32 4 16-35 15-94c0-66 23-100 70-100zm9 24c-40 0-46 34-46 75 0 40 6 74 45 74 42 0 51-32 51-76 0-42-9-74-50-73" id="bQ"/><g id="J"><use transform="matrix(0.05,0,0,0.05,0,0)" xlink:href="#bN"/><use transform="matrix(0.05,0,0,0.05,6.3500000000000005,0)" xlink:href="#bO"/><use transform="matrix(0.05,0,0,0.05,16.35,0)" xlink:href="#aQ"/><use transform="matrix(0.05,0,0,0.05,20.3,0)" xlink:href="#bP"/><use transform="matrix(0.05,0,0,0.05,29.3,0)" xlink:href="#aN"/><use transform="matrix(0.05,0,0,0.05,39.3,0)" xlink:href="#aM"/><use transform="matrix(0.05,0,0,0.05,45.25,0)" xlink:href="#bQ"/></g><path fill="#1071e5" d="M33 0v-248h34V0H33" id="bR"/><path fill="#1071e5" d="M135-143c-3-34-86-38-87 0 15 53 115 12 119 90S17 21 10-45l28-5c4 36 97 45 98 0-10-56-113-15-118-90-4-57 82-63 122-42 12 7 21 19 24 35" id="bS"/><path fill="#1071e5" d="M117-194c89-4 53 116 60 194h-32v-121c0-31-8-49-39-48C34-167 62-67 57 0H25l-1-190h30c1 10-1 24 2 32 11-22 29-35 61-36" id="bT"/><g id="K"><use transform="matrix(0.05,0,0,0.05,0,0)" xlink:href="#bR"/><use transform="matrix(0.05,0,0,0.05,5,0)" xlink:href="#bS"/><use transform="matrix(0.05,0,0,0.05,14,0)" xlink:href="#aS"/><use transform="matrix(0.05,0,0,0.05,17.95,0)" xlink:href="#aN"/><use transform="matrix(0.05,0,0,0.05,27.950000000000003,0)" xlink:href="#bT"/><use transform="matrix(0.05,0,0,0.05,37.95,0)" xlink:href="#bQ"/><use transform="matrix(0.05,0,0,0.05,47.95,0)" xlink:href="#bN"/></g><path d="M84 4C-5 8 30-112 23-190h32v120c0 31 7 50 39 49 72-2 45-101 50-169h31l1 190h-30c-1-10 1-25-2-33-11 22-28 36-60 37" id="bU"/><g id="L"><use transform="matrix(0.04938271604938272,0,0,0.04938271604938272,0,0)" xlink:href="#bh"/><use transform="matrix(0.04938271604938272,0,0,0.04938271604938272,8.88888888888889,0)" xlink:href="#bb"/><use transform="matrix(0.04938271604938272,0,0,0.04938271604938272,18.765432098765434,0)" xlink:href="#bg"/><use transform="matrix(0.04938271604938272,0,0,0.04938271604938272,22.666666666666668,0)" xlink:href="#bU"/><use transform="matrix(0.04938271604938272,0,0,0.04938271604938272,32.543209876543216,0)" xlink:href="#aX"/></g><path d="M212-179c-10-28-35-45-73-45-59 0-87 40-87 99 0 60 29 101 89 101 43 0 62-24 78-52l27 14C228-24 195 4 139 4 59 4 22-46 18-125c-6-104 99-153 187-111 19 9 31 26 39 46" id="bV"/><path d="M59-47c-2 24 18 29 38 22v24C64 9 27 4 27-40v-127H5v-23h24l9-43h21v43h35v23H59v120" id="bW"/><g id="M"><use transform="matrix(0.05,0,0,0.05,0,0)" xlink:href="#bV"/><use transform="matrix(0.05,0,0,0.05,12.950000000000001,0)" xlink:href="#aY"/><use transform="matrix(0.05,0,0,0.05,22.950000000000003,0)" xlink:href="#bi"/><use transform="matrix(0.05,0,0,0.05,32.95,0)" xlink:href="#bf"/><use transform="matrix(0.05,0,0,0.05,41.95,0)" xlink:href="#aX"/><use transform="matrix(0.05,0,0,0.05,51.95,0)" xlink:href="#bc"/><use transform="matrix(0.05,0,0,0.05,61.95,0)" xlink:href="#bW"/></g><path d="M85-194c31 0 48 13 60 33l-1-100h32l1 261h-30c-2-10 0-23-3-31C134-8 116 4 85 4 32 4 16-35 15-94c0-66 23-100 70-100zm9 24c-40 0-46 34-46 75 0 40 6 74 45 74 42 0 51-32 51-76 0-42-9-74-50-73" id="bX"/><path d="M101-234c-31-9-42 10-38 44h38v23H63V0H32v-167H5v-23h27c-7-52 17-82 69-68v24" id="bY"/><path d="M135-143c-3-34-86-38-87 0 15 53 115 12 119 90S17 21 10-45l28-5c4 36 97 45 98 0-10-56-113-15-118-90-4-57 82-63 122-42 12 7 21 19 24 35" id="bZ"/><path d="M33-154v-36h34v36H33zM33 0v-36h34V0H33" id="ca"/><g id="N"><use transform="matrix(0.05,0,0,0.05,0,0)" xlink:href="#ba"/><use transform="matrix(0.05,0,0,0.05,5.95,0)" xlink:href="#bX"/><use transform="matrix(0.05,0,0,0.05,15.949999999999998,0)" xlink:href="#bY"/><use transform="matrix(0.05,0,0,0.05,20.95,0)" xlink:href="#bZ"/><use transform="matrix(0.05,0,0,0.05,29.950000000000003,0)" xlink:href="#ca"/></g><path d="M30 0v-248h33v221h125V0H30" id="cb"/><g id="O"><use transform="matrix(0.05,0,0,0.05,0,0)" xlink:href="#cb"/><use transform="matrix(0.05,0,0,0.05,10,0)" xlink:href="#be"/><use transform="matrix(0.05,0,0,0.05,13.949999999999998,0)" xlink:href="#bW"/><use transform="matrix(0.05,0,0,0.05,18.95,0)" xlink:href="#aX"/><use transform="matrix(0.05,0,0,0.05,28.950000000000003,0)" xlink:href="#ba"/><use transform="matrix(0.05,0,0,0.05,34.9,0)" xlink:href="#bb"/><use transform="matrix(0.05,0,0,0.05,44.9,0)" xlink:href="#bg"/></g><g id="P"><use transform="matrix(0.05,0,0,0.05,0,0)" xlink:href="#aW"/><use transform="matrix(0.05,0,0,0.05,14,0)" xlink:href="#aX"/><use transform="matrix(0.05,0,0,0.05,24,0)" xlink:href="#aY"/><use transform="matrix(0.05,0,0,0.05,34,0)" xlink:href="#aZ"/><use transform="matrix(0.05,0,0,0.05,44,0)" xlink:href="#ba"/><use transform="matrix(0.05,0,0,0.05,49.95,0)" xlink:href="#bb"/><use transform="matrix(0.05,0,0,0.05,59.95,0)" xlink:href="#bc"/><use transform="matrix(0.05,0,0,0.05,69.95,0)" xlink:href="#bd"/><use transform="matrix(0.05,0,0,0.05,79.95,0)" xlink:href="#be"/><use transform="matrix(0.05,0,0,0.05,83.9,0)" xlink:href="#bf"/><use transform="matrix(0.05,0,0,0.05,92.9,0)" xlink:href="#bb"/><use transform="matrix(0.05,0,0,0.05,102.9,0)" xlink:href="#bg"/></g><g id="Q"><use transform="matrix(0.05,0,0,0.05,0,0)" xlink:href="#bj"/><use transform="matrix(0.05,0,0,0.05,12.950000000000001,0)" xlink:href="#bb"/><use transform="matrix(0.05,0,0,0.05,22.950000000000003,0)" xlink:href="#bk"/><use transform="matrix(0.05,0,0,0.05,37.900000000000006,0)" xlink:href="#aX"/></g><path d="M140-251c81 0 123 46 123 126C263-46 219 4 140 4 59 4 17-45 17-125s42-126 123-126zm0 227c63 0 89-41 89-101s-29-99-89-99c-61 0-89 39-89 99S79-25 140-24" id="cc"/><path d="M115-194c53 0 69 39 70 98 0 66-23 100-70 100C84 3 66-7 56-30L54 0H23l1-261h32v101c10-23 28-34 59-34zm-8 174c40 0 45-34 45-75 0-40-5-75-45-74-42 0-51 32-51 76 0 43 10 73 51 73" id="cd"/><path d="M24-231v-30h32v30H24zM-9 49c24 4 33-6 33-30v-209h32V24c2 40-23 58-65 49V49" id="ce"/><g id="R"><use transform="matrix(0.05,0,0,0.05,0,0)" xlink:href="#cc"/><use transform="matrix(0.05,0,0,0.05,14,0)" xlink:href="#cd"/><use transform="matrix(0.05,0,0,0.05,24,0)" xlink:href="#ce"/><use transform="matrix(0.05,0,0,0.05,27.950000000000003,0)" xlink:href="#aX"/><use transform="matrix(0.05,0,0,0.05,37.95,0)" xlink:href="#bf"/><use transform="matrix(0.05,0,0,0.05,46.95,0)" xlink:href="#bW"/></g><path fill="#333" d="M135-143c-3-34-86-38-87 0 15 53 115 12 119 90S17 21 10-45l28-5c4 36 97 45 98 0-10-56-113-15-118-90-4-57 82-63 122-42 12 7 21 19 24 35" id="cf"/><g id="S"><use transform="matrix(0.04938271604938272,0,0,0.04938271604938272,0,0)" xlink:href="#bn"/><use transform="matrix(0.04938271604938272,0,0,0.04938271604938272,3.901234567901235,0)" xlink:href="#cf"/></g><path fill="#333" d="M210-169c-67 3-38 105-44 169h-31v-121c0-29-5-50-35-48C34-165 62-65 56 0H25l-1-190h30c1 10-1 24 2 32 10-44 99-50 107 0 11-21 27-35 58-36 85-2 47 119 55 194h-31v-121c0-29-5-49-35-48" id="cg"/><g id="T"><use transform="matrix(0.04938271604938272,0,0,0.04938271604938272,0,0)" xlink:href="#bq"/><use transform="matrix(0.04938271604938272,0,0,0.04938271604938272,9.876543209876544,0)" xlink:href="#bl"/><use transform="matrix(0.04938271604938272,0,0,0.04938271604938272,19.75308641975309,0)" xlink:href="#cg"/><use transform="matrix(0.04938271604938272,0,0,0.04938271604938272,34.51851851851852,0)" xlink:href="#bu"/></g><path fill="#333" d="M101-234c-31-9-42 10-38 44h38v23H63V0H32v-167H5v-23h27c-7-52 17-82 69-68v24" id="ch"/><path fill="#333" d="M114-163C36-179 61-72 57 0H25l-1-190h30c1 12-1 29 2 39 6-27 23-49 58-41v29" id="ci"/><g id="U"><use transform="matrix(0.04938271604938272,0,0,0.04938271604938272,0,0)" xlink:href="#ch"/><use transform="matrix(0.04938271604938272,0,0,0.04938271604938272,4.938271604938272,0)" xlink:href="#bp"/><use transform="matrix(0.04938271604938272,0,0,0.04938271604938272,14.814814814814817,0)" xlink:href="#ci"/></g><g id="V"><use transform="matrix(0.05,0,0,0.05,0,0)" xlink:href="#cc"/><use transform="matrix(0.05,0,0,0.05,14,0)" xlink:href="#cd"/><use transform="matrix(0.05,0,0,0.05,24,0)" xlink:href="#ce"/><use transform="matrix(0.05,0,0,0.05,27.950000000000003,0)" xlink:href="#aX"/><use transform="matrix(0.05,0,0,0.05,37.95,0)" xlink:href="#bf"/><use transform="matrix(0.05,0,0,0.05,46.95,0)" xlink:href="#bW"/></g><path d="M127-220V0H93v-220H8v-28h204v28h-85" id="cj"/><path d="M179-190L93 31C79 59 56 82 12 73V49c39 6 53-20 64-50L1-190h34L92-34l54-156h33" id="ck"/><g id="W"><use transform="matrix(0.05,0,0,0.05,0,0)" xlink:href="#cj"/><use transform="matrix(0.05,0,0,0.05,9.950000000000001,0)" xlink:href="#ck"/><use transform="matrix(0.05,0,0,0.05,18.950000000000003,0)" xlink:href="#bc"/><use transform="matrix(0.05,0,0,0.05,28.950000000000003,0)" xlink:href="#aX"/></g><path fill="#1071e5" d="M140-251c81 0 123 46 123 126C263-46 219 4 140 4 59 4 17-45 17-125s42-126 123-126zm0 227c63 0 89-41 89-101s-29-99-89-99c-61 0-89 39-89 99S79-25 140-24" id="cl"/><path fill="#1071e5" d="M115-194c53 0 69 39 70 98 0 66-23 100-70 100C84 3 66-7 56-30L54 0H23l1-261h32v101c10-23 28-34 59-34zm-8 174c40 0 45-34 45-75 0-40-5-75-45-74-42 0-51 32-51 76 0 43 10 73 51 73" id="cm"/><path fill="#1071e5" d="M24-231v-30h32v30H24zM-9 49c24 4 33-6 33-30v-209h32V24c2 40-23 58-65 49V49" id="cn"/><path fill="#1071e5" d="M59-47c-2 24 18 29 38 22v24C64 9 27 4 27-40v-127H5v-23h24l9-43h21v43h35v23H59v120" id="co"/><g id="X"><use transform="matrix(0.05,0,0,0.05,0,0)" xlink:href="#cl"/><use transform="matrix(0.05,0,0,0.05,14,0)" xlink:href="#cm"/><use transform="matrix(0.05,0,0,0.05,24,0)" xlink:href="#cn"/><use transform="matrix(0.05,0,0,0.05,27.950000000000003,0)" xlink:href="#aJ"/><use transform="matrix(0.05,0,0,0.05,37.95,0)" xlink:href="#aR"/><use transform="matrix(0.05,0,0,0.05,46.95,0)" xlink:href="#co"/></g><path fill="#1071e5" d="M127-220V0H93v-220H8v-28h204v28h-85" id="cp"/><path fill="#1071e5" d="M179-190L93 31C79 59 56 82 12 73V49c39 6 53-20 64-50L1-190h34L92-34l54-156h33" id="cq"/><g id="Y"><use transform="matrix(0.05,0,0,0.05,0,0)" xlink:href="#cp"/><use transform="matrix(0.05,0,0,0.05,9.950000000000001,0)" xlink:href="#cq"/><use transform="matrix(0.05,0,0,0.05,18.950000000000003,0)" xlink:href="#aO"/><use transform="matrix(0.05,0,0,0.05,28.950000000000003,0)" xlink:href="#aJ"/><use transform="matrix(0.05,0,0,0.05,38.95,0)" xlink:href="#bS"/></g><path fill="#1071e5" d="M16-82v-28h88v28H16" id="cr"/><use transform="matrix(0.05,0,0,0.05,0,0)" xlink:href="#cr" id="Z"/><g id="aa"><use transform="matrix(0.05,0,0,0.05,0,0)" xlink:href="#bR"/><use transform="matrix(0.05,0,0,0.05,5,0)" xlink:href="#bS"/><use transform="matrix(0.05,0,0,0.05,14,0)" xlink:href="#aS"/><use transform="matrix(0.05,0,0,0.05,17.95,0)" xlink:href="#aN"/><use transform="matrix(0.05,0,0,0.05,27.950000000000003,0)" xlink:href="#bT"/><use transform="matrix(0.05,0,0,0.05,37.95,0)" xlink:href="#bQ"/></g><path fill="#1071e5" d="M137-103V0h-34v-103L8-248h37l75 118 75-118h37" id="cs"/><use transform="matrix(0.05,0,0,0.05,0,0)" xlink:href="#cs" id="ab"/></defs></g></svg>