<svg xmlns="http://www.w3.org/2000/svg" xmlns:xlink="http://www.w3.org/1999/xlink" xmlns:lucid="lucid" width="1321.13" height="1899.28"><g transform="translate(280.79817110655017 442.6827647701558)" lucid:page-tab-id="GiD48azBM19p"><path d="M-500-500h2000v2000H-500z" fill="#fff"/><path d="M102.97 36.98a5 5 0 0 1 5-5h150a5 5 0 0 1 5 5v110a5 5 0 0 1-5 5h-150a5 5 0 0 1-5-5z" stroke="#1071e5" stroke-width="2" fill="#fff"/><use xlink:href="#a" transform="matrix(1,0,0,1,114.9693300021076,43.984062106514216) translate(14.574999999999996 41.4)"/><use xlink:href="#b" transform="matrix(1,0,0,1,114.9693300021076,43.984062106514216) translate(35.55 63)"/><use xlink:href="#c" transform="matrix(1,0,0,1,114.9693300021076,43.984062106514216) translate(88.45 63)"/><path d="M223.43 214.7a5 5 0 0 1 5-5h150a5 5 0 0 1 5 5v110a5 5 0 0 1-5 5h-150a5 5 0 0 1-5-5z" stroke="#000" stroke-width="2" fill="#fff"/><use xlink:href="#d" transform="matrix(1,0,0,1,235.425421983469,221.70902787729437) translate(14.574999999999996 41.4)"/><use xlink:href="#e" transform="matrix(1,0,0,1,235.425421983469,221.70902787729437) translate(18.074999999999996 63)"/><use xlink:href="#f" transform="matrix(1,0,0,1,235.425421983469,221.70902787729437) translate(70.025 63)"/><path d="M631.83 584.2h-2v-22.43h2zm0-43.76h-2V517.2h2z" stroke="#3a414a" stroke-width=".05" fill="#3a414a"/><path d="M641.87 567.34L630.83 586l-11.04-18.66 1.7-1.02 9.33 15.76 9.32-15.76z" stroke="#3a414a" stroke-width=".05" fill="#3a414a"/><path d="M631.83 517.23h-2v-1.03h2z" fill="#3a414a"/><path d="M631.86 517.25h-2.05v-1.07h2.06zm-2-1.02v.98h1.95v-.97z" stroke="#3a414a" stroke-width=".05" fill="#3a414a"/><use xlink:href="#g" transform="matrix(1,0,0,1,573.6214756787243,540.4391538189226) translate(0.005000000000002558 14.222222222222223)"/><use xlink:href="#h" transform="matrix(1,0,0,1,573.6214756787243,540.4391538189226) translate(80.84450617283952 14.222222222222223)"/><path d="M302.2 207.04l-.84 1.8-20.2-9.34v-2.2zm-96.95-44.85v2.2l-21.8-10.1.85-1.8z" stroke="#3a414a" stroke-width=".05" fill="#3a414a"/><path d="M303.43 208.7l-21.58 2.2-.2-2 18.2-1.84-10.38-15.08 1.65-1.13z" stroke="#3a414a" stroke-width=".05" fill="#3a414a"/><path d="M183.48 154.32l-2.9-1.34h3.52z" fill="#3a414a"/><path d="M183.5 154.35l-3.03-1.4h3.67zm-2.8-1.34l2.77 1.3.6-1.3z" stroke="#3a414a" stroke-width=".05" fill="#3a414a"/><use xlink:href="#i" transform="matrix(1,0,0,1,205.24675870883766,159.51321165857095) translate(0.005000000000002558 14.222222222222223)"/><use xlink:href="#j" transform="matrix(1,0,0,1,205.24675870883766,159.51321165857095) translate(21.165493827160496 35.55555555555556)"/><path d="M-223.24 63.38a5 5 0 0 1 5-5h150a5 5 0 0 1 5 5v57.2a5 5 0 0 1-5 5h-150a5 5 0 0 1-5-5z" stroke="#e81313" stroke-width="2" fill="#fff"/><use xlink:href="#k" transform="matrix(1,0,0,1,-211.24124468319786,70.38406210651425) translate(39 25.4)"/><path d="M-31.47 92.98h-28.95v-2h28.95zm132.44 0H71.2v-2h29.77z" stroke="#e81313" stroke-width=".05" fill="#e81313"/><path d="M-42.55 82.66l-15.76 9.32 15.75 9.32-1.02 1.73-18.67-11.05 18.67-11.04z" stroke="#e81313" stroke-width=".05" fill="#e81313"/><path d="M101.97 92.98h-1.03v-2h1.03z" fill="#e81313"/><path d="M102 93h-1.08v-2.04H102zm-1.03-2v1.96h.97V91z" stroke="#e81313" stroke-width=".05" fill="#e81313"/><use xlink:href="#l" transform="matrix(1,0,0,1,-31.46929067387792,59.984062106514244) translate(37.01734567901235 14.222222222222223)"/><use xlink:href="#m" transform="matrix(1,0,0,1,-31.46929067387792,59.984062106514244) translate(0.005000000000002558 35.55555555555556)"/><use xlink:href="#n" transform="matrix(1,0,0,1,-31.46929067387792,59.984062106514244) translate(29.140802469135807 56.88888888888889)"/><path d="M-.57 244.6a5 5 0 0 1 5-5h150a5 5 0 0 1 5 5v50.22a5 5 0 0 1-5 5h-150a5 5 0 0 1-5-5z" stroke="#1071e5" stroke-width="2" fill="#fff"/><use xlink:href="#o" transform="matrix(1,0,0,1,11.425421983468766,251.60056266770187) translate(39 21.3375)"/><path d="M81.46 238.2l-1.27-1.53 42.9-35.47h3.13zm101.38-83.8l-30.8 25.47h-3.15l32.66-27.02z" stroke="#000" stroke-width=".05"/><path d="M88.66 218.87l-6.2 17.23 18.08-2.86.3 1.97-21.42 3.4 7.36-20.4z" stroke="#000" stroke-width=".05"/><path d="M182.82 154.4l-1.18-1.42h2.9z"/><path d="M182.8 154.44l-1.22-1.48h3.03zm-1.1-1.43l1.12 1.37 1.65-1.36z" stroke="#000" stroke-width=".05"/><use xlink:href="#p" transform="matrix(1,0,0,1,116.35003281031365,179.86470388690302) translate(0.004999999999999005 14.222222222222223)"/><path d="M860.34-139.46a5 5 0 0 1 5-5h150a5 5 0 0 1 5 5v110a5 5 0 0 1-5 5h-150a5 5 0 0 1-5-5z" stroke="#000" stroke-width="2" fill="#ced4db"/><use xlink:href="#q" transform="matrix(1,0,0,1,872.3349705446292,-132.46062302174437) translate(34.525 50.4)"/><path d="M-.57 423.8a5 5 0 0 1 5-5h150a5 5 0 0 1 5 5V474a5 5 0 0 1-5 5h-150a5 5 0 0 1-5-5z" stroke="#000" stroke-width="2" fill="#ced4db"/><use xlink:href="#r" transform="matrix(1,0,0,1,11.425421983468766,430.78740508496617) translate(50.525 14.4)"/><use xlink:href="#s" transform="matrix(1,0,0,1,11.425421983468766,430.78740508496617) translate(43.575 36)"/><path d="M79.42 301.82v9.5m0 9.52v19.03m0 9.5v19.04m0 9.52v19.02m0 9.52v9.5" stroke="#1071e5" stroke-width="2" fill="none"/><path d="M80.42 301.84h-2v-1.02h2z" stroke="#1071e5" stroke-width=".05" fill="#1071e5"/><path d="M69.25 398.6l10.17 17.22 10.2-17.2M712.83 647h10.55m10.55 0h21.1m10.54 0h21.1m10.54 0h21.1m10.56 0h21.1m10.54 0h21.1m10.54 0h21.1m10.55 0h10.54l.93-.07.92-.22.86-.35.8-.5.72-.6.6-.72.5-.8.36-.87.22-.9.08-.95v-10.03m0-10.04v-20.08m0-10.04v-20.07m0-10.04v-20.1m0-10.03V510.5m0-10.05v-20.08m0-10.05v-20.07m0-10.05v-20.08m0-10.04V390m0-10.04v-20.08m0-10.04v-20.08m0-10.04v-20.08m0-10.04v-20.08m0-10.04V239.4m0-10.04v-20.08m0-10.04v-20.08m0-10.04v-20.08m0-10.04v-20.08m0-10.04V88.8m0-10.04V58.68m0-10.04V28.56m0-10.04V-1.56m0-10.04v-10.04" stroke="#1071e5" stroke-width="2" fill="none"/><path d="M712.86 648h-1.03v-2h1.03z" stroke="#1071e5" stroke-width=".05" fill="#1071e5"/><path d="M950.52-4.28L940.34-21.5l-10.2 17.22M101.14 41.45l-8-5.28m-7.97-5.28L69.2 20.3m-7.98-5.28L45.25 4.48M37.27-.8L21.3-11.36m-7.98-5.3L-2.65-27.2m-7.98-5.3L-26.6-43.04m-7.98-5.28L-50.55-58.9m-7.98-5.28l-7.98-5.28" stroke="#1071e5" stroke-width="2" fill="none"/><path d="M101.97 40.8v2.4l-1.4-.93 1.1-1.67z" stroke="#1071e5" stroke-width=".05" fill="#1071e5"/><path d="M-46.42-68.37l-19.97-1 8.75 17.98" stroke="#1071e5" stroke-width="2" fill="none"/><path d="M-229.03-125.46a5 5 0 0 1 5-5h150a5 5 0 0 1 5 5v110a5 5 0 0 1-5 5h-150a5 5 0 0 1-5-5z" stroke="#000" stroke-width="2" fill="#fff"/><use xlink:href="#t" transform="matrix(1,0,0,1,-217.03066999789235,-118.46062302174437) translate(14.574999999999996 41.4)"/><use xlink:href="#u" transform="matrix(1,0,0,1,-217.03066999789235,-118.46062302174437) translate(44.05 63)"/><path d="M550.83-117.07a5 5 0 0 1 5-5h150a5 5 0 0 1 5 5v110a5 5 0 0 1-5 5h-150a5 5 0 0 1-5-5z" stroke="#000" stroke-width="2" fill="#fff"/><use xlink:href="#t" transform="matrix(1,0,0,1,562.8313522219343,-110.06790300417867) translate(14.574999999999996 41.4)"/><use xlink:href="#v" transform="matrix(1,0,0,1,562.8313522219343,-110.06790300417867) translate(42.025 63)"/><path d="M548 453.56v2h-30.5v-2zm-94.07-362.5l1.06.26 1 .42.95.58.83.7.72.85.57.94.42 1.02.25 1.07.08 1.04V443.9h-2V98.02l-.06-.82-.2-.76-.3-.72-.4-.67-.5-.6-.6-.5-.67-.42-.73-.3-.76-.18-.8-.07H264.96v-2h187.9z" stroke="#3a414a" stroke-width=".05" fill="#3a414a"/><path d="M549.83 454.56l-18.67 11.05-1.02-1.72 15.76-9.32-15.76-9.32 1.02-1.72z" stroke="#3a414a" stroke-width=".05" fill="#3a414a"/><path d="M265 92.98h-1.03v-2H265z" fill="#3a414a"/><path d="M265.02 93h-1.08v-2.04h1.08zM264 91v1.96h.97V91z" stroke="#3a414a" stroke-width=".05" fill="#3a414a"/><use xlink:href="#w" transform="matrix(1,0,0,1,429.7426108096206,443.89715752183315) translate(0.005000000000002558 14.222222222222223)"/><use xlink:href="#x" transform="matrix(1,0,0,1,429.7426108096206,443.89715752183315) translate(17.733395061728398 14.222222222222223)"/><use xlink:href="#y" transform="matrix(1,0,0,1,429.7426108096206,443.89715752183315) translate(67.06672839506174 14.222222222222223)"/><path d="M550.83 592a5 5 0 0 1 5-5h150a5 5 0 0 1 5 5v110a5 5 0 0 1-5 5h-150a5 5 0 0 1-5-5z" stroke="#1071e5" stroke-width="2" fill="#fff"/><use xlink:href="#a" transform="matrix(1,0,0,1,562.8313522219343,599.0076764614178) translate(14.574999999999996 29.4)"/><use xlink:href="#z" transform="matrix(1,0,0,1,562.8313522219343,599.0076764614178) translate(10.074999999999996 51)"/><use xlink:href="#A" transform="matrix(1,0,0,1,562.8313522219343,599.0076764614178) translate(67.025 51)"/><use xlink:href="#B" transform="matrix(1,0,0,1,562.8313522219343,599.0076764614178) translate(119.975 51)"/><use xlink:href="#C" transform="matrix(1,0,0,1,562.8313522219343,599.0076764614178) translate(44.025 72.60000000000001)"/><path d="M550.83 400.2a5 5 0 0 1 5-5h150a5 5 0 0 1 5 5v110a5 5 0 0 1-5 5h-150a5 5 0 0 1-5-5z" stroke="#1071e5" stroke-width="2" fill="#fff"/><use xlink:href="#a" transform="matrix(1,0,0,1,562.8313522219343,407.20396450976057) translate(14.574999999999996 41.4)"/><use xlink:href="#z" transform="matrix(1,0,0,1,562.8313522219343,407.20396450976057) translate(33.525 63)"/><use xlink:href="#c" transform="matrix(1,0,0,1,562.8313522219343,407.20396450976057) translate(90.475 63)"/><path d="M630.83 393.2v-10.06m0-10.06v-20.13m0-10.06v-20.14m0-10.06v-20.13m0-10.06v-20.1m0-10.08V232.2m0-10.07V202m0-10.05v-20.13m0-10.06v-20.13m0-10.06v-20.13m0-10.06V81.25m0-10.06V51.05m0-10.06V20.88m0-10.07V.76" stroke="#1071e5" stroke-width="2" fill="none"/><path d="M631.83 394.2h-2v-1.02h2z" stroke="#1071e5" stroke-width=".05" fill="#1071e5"/><path d="M641 18.1L630.84.9l-10.18 17.2" stroke="#1071e5" stroke-width="2" fill="none"/><path d="M223.43 392.43a5 5 0 0 1 5-5h150a5 5 0 0 1 5 5v110a5 5 0 0 1-5 5h-150a5 5 0 0 1-5-5z" stroke="#000" stroke-width="2" fill="#ced4db"/><use xlink:href="#q" transform="matrix(1,0,0,1,235.425421983469,399.43399364807453) translate(34.525 50.4)"/><path d="M303.43 331.7v8.96m0 8.96v17.63m0 8.68v8.7" stroke="#1071e5" stroke-width="2" fill="none"/><path d="M304.43 331.74h-2v-1.03h2z" stroke="#1071e5" stroke-width=".05" fill="#1071e5"/><path d="M293.25 367.25l10.18 17.22 10.18-17.22" stroke="#1071e5" stroke-width="2" fill="none"/><path d="M102.97 756.48a5 5 0 0 1 5-5h150a5 5 0 0 1 5 5v110a5 5 0 0 1-5 5h-150a5 5 0 0 1-5-5z" stroke="#1071e5" stroke-width="2" fill="#fff"/><use xlink:href="#a" transform="matrix(1,0,0,1,114.9693300021076,763.4827344876594) translate(14.574999999999996 41.4)"/><use xlink:href="#b" transform="matrix(1,0,0,1,114.9693300021076,763.4827344876594) translate(35.55 63)"/><use xlink:href="#D" transform="matrix(1,0,0,1,114.9693300021076,763.4827344876594) translate(88.45 63)"/><path d="M223.43 570.16a5 5 0 0 1 5-5h150a5 5 0 0 1 5 5v110a5 5 0 0 1-5 5h-150a5 5 0 0 1-5-5z" stroke="#000" stroke-width="2" fill="#fff"/><use xlink:href="#d" transform="matrix(1,0,0,1,235.425421983469,577.1589594188547) translate(14.574999999999996 41.4)"/><use xlink:href="#e" transform="matrix(1,0,0,1,235.425421983469,577.1589594188547) translate(18.074999999999996 63)"/><use xlink:href="#f" transform="matrix(1,0,0,1,235.425421983469,577.1589594188547) translate(70.025 63)"/><path d="M205.25 739.65h.12l-21.05 11.24-.94-1.77 21.87-11.68zm97.04-51.75l-21.15 11.3V697h-.13l20.33-10.87z" stroke="#3a414a" stroke-width=".05" fill="#3a414a"/><path d="M303.43 686.16l-11.27 18.53-1.7-1.05 9.5-15.64-18.3-.8.1-2z" stroke="#3a414a" stroke-width=".05" fill="#3a414a"/><path d="M184.13 750.48h-3.28l2.55-1.36z" fill="#3a414a"/><path d="M184.17 750.5h-3.42l2.66-1.42zm-3.22-.04h3.14l-.7-1.3z" stroke="#3a414a" stroke-width=".05" fill="#3a414a"/><use xlink:href="#i" transform="matrix(1,0,0,1,205.24675870883766,696.9875136199237) translate(0.005000000000002558 14.222222222222223)"/><use xlink:href="#j" transform="matrix(1,0,0,1,205.24675870883766,696.9875136199237) translate(21.165493827160496 35.55555555555556)"/><path d="M-223.24 777.52a5 5 0 0 1 5-5h150a5 5 0 0 1 5 5v57.2a5 5 0 0 1-5 5h-150a5 5 0 0 1-5-5z" stroke="#e81313" stroke-width="2" fill="#fff"/><use xlink:href="#E" transform="matrix(1,0,0,1,-211.24124468319786,784.5189300803215) translate(9.25 25.4)"/><use xlink:href="#F" transform="matrix(1,0,0,1,-211.24124468319786,784.5189300803215) translate(72.45 25.4)"/><path d="M100.97 810.48v2H71.2v-2zm-161.4-3.36v-2h28.96v2z" stroke="#e81313" stroke-width=".05" fill="#e81313"/><path d="M-42.55 796.8l-15.76 9.32 15.75 9.32-1.02 1.72-18.67-11.04 18.67-11.04z" stroke="#e81313" stroke-width=".05" fill="#e81313"/><path d="M101.97 812.48h-1.03v-2h1.03z" fill="#e81313"/><path d="M102 812.5h-1.08v-2.04H102zm-1.03-2v1.96h.97v-1.95z" stroke="#e81313" stroke-width=".05" fill="#e81313"/><use xlink:href="#l" transform="matrix(1,0,0,1,-31.46929067387792,776.8008322839905) translate(37.01734567901235 14.222222222222223)"/><use xlink:href="#m" transform="matrix(1,0,0,1,-31.46929067387792,776.8008322839905) translate(0.005000000000002558 35.55555555555556)"/><use xlink:href="#n" transform="matrix(1,0,0,1,-31.46929067387792,776.8008322839905) translate(29.140802469135807 56.88888888888889)"/><path d="M-.57 600.05a5 5 0 0 1 5-5h150a5 5 0 0 1 5 5v50.22a5 5 0 0 1-5 5h-150a5 5 0 0 1-5-5z" stroke="#1071e5" stroke-width="2" fill="#fff"/><use xlink:href="#G" transform="matrix(1,0,0,1,11.425421983468766,607.0504942092622) translate(7.75 21.3375)"/><use xlink:href="#H" transform="matrix(1,0,0,1,11.425421983468766,607.0504942092622) translate(70.95 21.3375)"/><path d="M182.9 749.07l-1.34 1.48-33.76-30.72h2.97zm-55.58-50.57h-2.97L80.1 658.23l1.34-1.48z" stroke="#000" stroke-width=".05"/><path d="M100.67 660.67l-.4 1.95-17.94-3.7 5.4 17.5-1.93.58-6.38-20.73z" stroke="#000" stroke-width=".05"/><path d="M184.46 750.48h-2.88l1.3-1.43z"/><path d="M184.52 750.5h-3l1.36-1.48zm-2.88-.04h2.75l-1.52-1.37z" stroke="#000" stroke-width=".05"/><use xlink:href="#p" transform="matrix(1,0,0,1,116.35003281031365,698.4977314593292) translate(0.004999999999999005 14.222222222222223)"/><path d="M79.42 593.05v-9.27m0-9.27V556m0-9.27v-18.53m0-9.27v-18.54m0-9.27v-9.28" stroke="#1071e5" stroke-width="2" fill="none"/><path d="M80.42 594.05h-2v-1.02h2z" stroke="#1071e5" stroke-width=".05" fill="#1071e5"/><path d="M89.6 499.18l-10.17-17.2-10.2 17.2M303.43 563.16v-8.82m0-8.82V527.9m0-8.83v-8.82" stroke="#1071e5" stroke-width="2" fill="none"/><path d="M304.43 564.16h-2v-1.03h2z" stroke="#1071e5" stroke-width=".05" fill="#1071e5"/><path d="M313.6 527.6l-10.18-17.2-10.18 17.2" stroke="#1071e5" stroke-width="2" fill="none"/><path d="M459.83 805.52l-.08 1.06-.26 1.07-.43 1-.57.95-.72.83-.83.72-.94.57-1 .42-1.07.26-1.06.08h-187.9v-2H452.8l.8-.06.77-.18.73-.3.67-.42.6-.5.5-.6.4-.67.3-.72.2-.77.06-.82v-340.2h2zM548 456.2h-30.5v-2H548z" stroke="#3a414a" stroke-width=".05" fill="#3a414a"/><path d="M549.83 455.2l-18.67 11.05-1.02-1.73 15.76-9.32-15.76-9.32 1.02-1.72z" stroke="#3a414a" stroke-width=".05" fill="#3a414a"/><path d="M265 812.48h-1.03v-2H265z" fill="#3a414a"/><path d="M265.02 812.5h-1.08v-2.04h1.08zm-1.03-2v1.96h.97v-1.95z" stroke="#3a414a" stroke-width=".05" fill="#3a414a"/><path d="M99.6 1003.7a5 5 0 0 1 5-5h150a5 5 0 0 1 5 5v110a5 5 0 0 1-5 5h-150a5 5 0 0 1-5-5z" stroke="#1071e5" stroke-width="2" fill="#fff"/><use xlink:href="#I" transform="matrix(1,0,0,1,111.59966802222323,1010.7101917355885) translate(31.5 50.4)"/><path d="M-53.9 1137.8h-2v-14.73h2zm0-36.07h-2v-15.55h2z" stroke="#3a414a" stroke-width=".05" fill="#3a414a"/><path d="M-54.9 1139.6l-9.8-16.53h2.33l7.46 12.62 7.45-12.63h2.33z" stroke="#3a414a" stroke-width=".05" fill="#3a414a"/><path d="M-53.9 1086.2h-2v-1.02h2z" fill="#3a414a"/><path d="M-53.9 1086.23h-2.04v-1.07h2.05zm-2-1.02v.98h1.96v-.97z" stroke="#3a414a" stroke-width=".05" fill="#3a414a"/><use xlink:href="#J" transform="matrix(1,0,0,1,-88.44263271182469,1101.7317376440055) translate(0.005000000000002558 14.222222222222223)"/><use xlink:href="#K" transform="matrix(1,0,0,1,-88.44263271182469,1101.7317376440055) translate(33.58524691358026 14.222222222222223)"/><path d="M-87.92 1145.6a5 5 0 0 1 5-5h56a5 5 0 0 1 5 5v40.96a5 5 0 0 1-5 5h-56a5 5 0 0 1-5-5z" stroke="#1071e5" stroke-width="2" fill="#fff"/><use xlink:href="#L" transform="matrix(1,0,0,1,-75.91640347037594,1152.613823914714) translate(11.5 17.775)"/><use xlink:href="#M" transform="matrix(1,0,0,1,-75.91640347037594,1152.613823914714) translate(26.5 17.775)"/><path d="M-160.74 1247.06l-.9-1.78 29.4-14.84h4.45zm105.4-53.16l-30.16 15.2h-4.44l33.68-16.98z" stroke="#3a414a" stroke-width=".05" fill="#3a414a"/><path d="M-159.3 1245.22l18.26 1.22-.13 2-21.64-1.45 10.58-16.56h2.38z" stroke="#3a414a" stroke-width=".05" fill="#3a414a"/><path d="M-55.38 1193.9l-.68-1.34h3.37z" fill="#3a414a"/><path d="M-55.4 1193.95l-.7-1.42h3.5zm-.62-1.37l.65 1.3 2.57-1.3z" stroke="#3a414a" stroke-width=".05" fill="#3a414a"/><use xlink:href="#J" transform="matrix(1,0,0,1,-164.12110231508515,1209.108162852089) translate(0.005000000000002558 14.222222222222223)"/><use xlink:href="#N" transform="matrix(1,0,0,1,-164.12110231508515,1209.108162852089) translate(33.58524691358026 14.222222222222223)"/><path d="M-195.82 1253a5 5 0 0 1 5-5h56a5 5 0 0 1 5 5v40.94a5 5 0 0 1-5 5h-56a5 5 0 0 1-5-5z" stroke="#1071e5" stroke-width="2" fill="#fff"/><use xlink:href="#L" transform="matrix(1,0,0,1,-183.81655255344003,1259.9902491227972) translate(11.5 17.775)"/><use xlink:href="#M" transform="matrix(1,0,0,1,-183.81655255344003,1259.9902491227972) translate(26.5 17.775)"/><path d="M-161.8 1352.06h-2v-14.5h2zm0-35.82h-2v-15.3h2z" stroke="#3a414a" stroke-width=".05" fill="#3a414a"/><path d="M-162.8 1353.88l-9.65-16.3h2.32l7.32 12.37 7.3-12.38h2.33z" stroke="#3a414a" stroke-width=".05" fill="#3a414a"/><path d="M-161.8 1300.96h-2v-1.02h2z" fill="#3a414a"/><path d="M-161.8 1301h-2.04v-1.1h2.05zm-2-1.04v.98h1.96v-.98z" stroke="#3a414a" stroke-width=".05" fill="#3a414a"/><use xlink:href="#O" transform="matrix(1,0,0,1,-210.16994228871596,1316.2392501212394) translate(0.005000000000002558 14.222222222222223)"/><use xlink:href="#P" transform="matrix(1,0,0,1,-210.16994228871596,1316.2392501212394) translate(18.721049382716053 14.222222222222223)"/><use xlink:href="#Q" transform="matrix(1,0,0,1,-210.16994228871596,1316.2392501212394) translate(60.153148148148155 14.222222222222223)"/><path d="M-242.8 1359.88a5 5 0 0 1 5-5h150a5 5 0 0 1 5 5v50.2a5 5 0 0 1-5 5h-150a5 5 0 0 1-5-5z" stroke="#1071e5" stroke-width="2" fill="#fff"/><use xlink:href="#R" transform="matrix(1,0,0,1,-230.81191759735793,1366.8759984530134) translate(15.699999999999996 21.3375)"/><path d="M17.2 1253a5 5 0 0 1 5-5h56a5 5 0 0 1 5 5v40.94a5 5 0 0 1-5 5h-56a5 5 0 0 1-5-5z" stroke="#1071e5" stroke-width="2" fill="#fff"/><use xlink:href="#L" transform="matrix(1,0,0,1,29.188082402642067,1259.9902491227972) translate(11.5 17.775)"/><use xlink:href="#M" transform="matrix(1,0,0,1,29.188082402642067,1259.9902491227972) translate(26.5 17.775)"/><path d="M53.9 1352l-2 .1-.76-14.53h2zm-1.86-35.76h-2l-.8-15.25 2-.12z" stroke="#3a414a" stroke-width=".05" fill="#3a414a"/><path d="M53 1353.88l-10.83-16.3h2.4l8.2 12.37 6.5-12.38h2.25z" stroke="#3a414a" stroke-width=".05" fill="#3a414a"/><path d="M51.24 1300.9l-2 .1-.05-1.06h2z" fill="#3a414a"/><path d="M51.27 1300.93l-2.05.1-.05-1.12h2.05zm-2.05-.97l.05 1.03 1.95-.12-.05-.92z" stroke="#3a414a" stroke-width=".05" fill="#3a414a"/><use xlink:href="#O" transform="matrix(1,0,0,1,4.232524272389185,1316.2392501212394) translate(0.005000000000002558 14.222222222222223)"/><use xlink:href="#P" transform="matrix(1,0,0,1,4.232524272389185,1316.2392501212394) translate(18.721049382716053 14.222222222222223)"/><use xlink:href="#Q" transform="matrix(1,0,0,1,4.232524272389185,1316.2392501212394) translate(60.153148148148155 14.222222222222223)"/><path d="M-27 1359.88a5 5 0 0 1 5-5h150a5 5 0 0 1 5 5v50.2a5 5 0 0 1-5 5H-22a5 5 0 0 1-5-5z" stroke="#1071e5" stroke-width="2" fill="#fff"/><use xlink:href="#S" transform="matrix(1,0,0,1,-15.011619431229747,1366.8759984530134) translate(15.699999999999996 21.3375)"/><path d="M49.04 1245.27l-.92 1.77-32.06-16.6h4.35zm-69.82-36.16h-4.35l-29.35-15.2.92-1.77z" stroke="#3a414a" stroke-width=".05" fill="#3a414a"/><path d="M50.2 1247l-21.66 1.2-.12-2 18.28-1.02-9.7-15.52 1.7-1.06zM-53.54 1192.14l-.92 1.78-.9-.47.9-1.78z" stroke="#3a414a" stroke-width=".05" fill="#3a414a"/><use xlink:href="#J" transform="matrix(1,0,0,1,-33.96446384938978,1209.108162852089) translate(0.004999999999999005 14.222222222222223)"/><use xlink:href="#T" transform="matrix(1,0,0,1,-33.96446384938978,1209.108162852089) translate(33.58524691358025 14.222222222222223)"/><path d="M-8 1059.7h-11.9v-2H-8zm104.78 0H67.9v-2h28.88z" stroke="#3a414a" stroke-width=".05" fill="#3a414a"/><path d="M98.6 1058.7l-18.67 11.05-1.02-1.72 15.77-9.32-15.76-9.3 1.03-1.73z" stroke="#3a414a" stroke-width=".05" fill="#3a414a"/><path d="M-19.88 1059.7h-1.03v-2h1.02z" fill="#3a414a"/><path d="M-19.86 1059.73h-1.07v-2.05h1.07zm-1.02-2v1.95h.97v-1.95z" stroke="#3a414a" stroke-width=".05" fill="#3a414a"/><use xlink:href="#i" transform="matrix(1,0,0,1,-7.996966844771109,1037.3768584022553) translate(0.005000000000002558 14.222222222222223)"/><use xlink:href="#j" transform="matrix(1,0,0,1,-7.996966844771109,1037.3768584022553) translate(21.165493827160496 35.55555555555556)"/><path d="M-87.92 1038.24a5 5 0 0 1 5-5h56a5 5 0 0 1 5 5v40.94a5 5 0 0 1-5 5h-56a5 5 0 0 1-5-5z" stroke="#1071e5" stroke-width="2" fill="#fff"/><use xlink:href="#L" transform="matrix(1,0,0,1,-75.91640347037591,1045.2373987066303) translate(11.5 17.775)"/><use xlink:href="#M" transform="matrix(1,0,0,1,-75.91640347037591,1045.2373987066303) translate(26.5 17.775)"/><path d="M-52.84 1032.05l-1.12-1.66 100.3-67.37h3.6zM182.7 873.87l-101 67.82h-3.58l103.46-69.5z" stroke="#3a414a" stroke-width=".05" fill="#3a414a"/><path d="M-43.76 1013.52l-7.9 16.53 18.3-1.05.1 2-21.65 1.24 9.33-19.58z" stroke="#3a414a" stroke-width=".05" fill="#3a414a"/><path d="M182.68 873.9l-.95-1.42h3.03z" fill="#3a414a"/><path d="M182.67 873.92l-.98-1.46h3.15zm-.9-1.4l.9 1.33 2-1.34z" stroke="#3a414a" stroke-width=".05" fill="#3a414a"/><use xlink:href="#J" transform="matrix(1,0,0,1,-8.48973777461164,941.6933999304775) translate(0.0049999999999954525 14.222222222222223)"/><use xlink:href="#U" transform="matrix(1,0,0,1,-8.48973777461164,941.6933999304775) translate(33.58524691358025 14.222222222222223)"/><use xlink:href="#V" transform="matrix(1,0,0,1,-8.48973777461164,941.6933999304775) translate(101.58524691358025 14.222222222222223)"/><path d="M550.83 1003.7a5 5 0 0 1 5-5h150a5 5 0 0 1 5 5v110a5 5 0 0 1-5 5h-150a5 5 0 0 1-5-5z" stroke="#1071e5" stroke-width="2" fill="#fff"/><use xlink:href="#W" transform="matrix(1,0,0,1,562.8313522219343,1010.7101917355888) translate(31.124999999999993 50.4)"/><path d="M395.4 1137.8h-2v-14.73h2zm0-36.07h-2v-15.55h2z" stroke="#3a414a" stroke-width=".05" fill="#3a414a"/><path d="M394.4 1139.6l-9.78-16.53h2.32l7.46 12.62 7.47-12.63h2.32z" stroke="#3a414a" stroke-width=".05" fill="#3a414a"/><path d="M395.4 1086.2h-2v-1.02h2z" fill="#3a414a"/><path d="M395.43 1086.23h-2.05v-1.07h2.05zm-2-1.02v.98h1.95v-.97z" stroke="#3a414a" stroke-width=".05" fill="#3a414a"/><use xlink:href="#J" transform="matrix(1,0,0,1,360.87087332282846,1101.7317376440058) translate(0.005000000000002558 14.222222222222223)"/><use xlink:href="#K" transform="matrix(1,0,0,1,360.87087332282846,1101.7317376440058) translate(33.58524691358026 14.222222222222223)"/><path d="M361.4 1145.6a5 5 0 0 1 5-5h56a5 5 0 0 1 5 5v40.96a5 5 0 0 1-5 5h-56a5 5 0 0 1-5-5z" stroke="#1071e5" stroke-width="2" fill="#fff"/><use xlink:href="#L" transform="matrix(1,0,0,1,373.39710256427725,1152.613823914714) translate(11.5 17.775)"/><use xlink:href="#M" transform="matrix(1,0,0,1,373.39710256427725,1152.613823914714) translate(26.5 17.775)"/><path d="M395.4 1245.17h-2v-14.73h2zm0-36.06h-2v-15.54h2z" stroke="#3a414a" stroke-width=".05" fill="#3a414a"/><path d="M394.4 1247l-9.78-16.56h2.32l7.46 12.62 7.47-12.62h2.32z" stroke="#3a414a" stroke-width=".05" fill="#3a414a"/><path d="M395.4 1193.6h-2v-1.04h2z" fill="#3a414a"/><path d="M395.43 1193.6h-2.05v-1.07h2.05zm-2-1.02v.98h1.95v-.98z" stroke="#3a414a" stroke-width=".05" fill="#3a414a"/><use xlink:href="#J" transform="matrix(1,0,0,1,339.1424782611001,1209.108162852089) translate(0.005000000000002558 14.222222222222223)"/><use xlink:href="#N" transform="matrix(1,0,0,1,339.1424782611001,1209.108162852089) translate(33.58524691358026 14.222222222222223)"/><path d="M361.4 1253a5 5 0 0 1 5-5h56a5 5 0 0 1 5 5v40.94a5 5 0 0 1-5 5h-56a5 5 0 0 1-5-5z" stroke="#1071e5" stroke-width="2" fill="#fff"/><use xlink:href="#L" transform="matrix(1,0,0,1,373.39710256427725,1259.9902491227972) translate(11.5 17.775)"/><use xlink:href="#M" transform="matrix(1,0,0,1,373.39710256427725,1259.9902491227972) translate(26.5 17.775)"/><path d="M390.3 1352.16l-2-.2 1.42-14.4h2zm5-51.13l-1.5 15.2h-2l1.5-15.4z" stroke="#3a414a" stroke-width=".05" fill="#3a414a"/><path d="M389.13 1353.88l-7.6-16.3h2.2l5.78 12.4 9.08-12.4h2.47z" stroke="#3a414a" stroke-width=".05" fill="#3a414a"/><path d="M395.3 1301.05l-2-.2.1-.9h2z" fill="#3a414a"/><path d="M395.32 1301.08l-2.04-.2.1-.97h2.05zm-1.9-1.12l-.1.88 1.95.2.1-1.08z" stroke="#3a414a" stroke-width=".05" fill="#3a414a"/><use xlink:href="#O" transform="matrix(1,0,0,1,344.40753150132605,1316.2392501212394) translate(0.005000000000002558 14.222222222222223)"/><use xlink:href="#P" transform="matrix(1,0,0,1,344.40753150132605,1316.2392501212394) translate(18.721049382716053 14.222222222222223)"/><use xlink:href="#Q" transform="matrix(1,0,0,1,344.40753150132605,1316.2392501212394) translate(60.153148148148155 14.222222222222223)"/><path d="M309.13 1359.88a5 5 0 0 1 5-5h150a5 5 0 0 1 5 5v50.2a5 5 0 0 1-5 5h-150a5 5 0 0 1-5-5z" stroke="#1071e5" stroke-width="2" fill="#fff"/><use xlink:href="#S" transform="matrix(1,0,0,1,321.1293748650088,1366.8759984530134) translate(15.699999999999996 21.3375)"/><path d="M442.77 1059.7H429.4v-2h13.38zm105.24 0H518.7v-2H548z" stroke="#3a414a" stroke-width=".05" fill="#3a414a"/><path d="M549.83 1058.7l-18.67 11.05-1.02-1.72 15.76-9.32-15.76-9.3 1.02-1.73z" stroke="#3a414a" stroke-width=".05" fill="#3a414a"/><path d="M429.43 1059.7h-1.02v-2h1.03z" fill="#3a414a"/><path d="M429.46 1059.73h-1.08v-2.05h1.08zm-1.03-2v1.95h.98v-1.95z" stroke="#3a414a" stroke-width=".05" fill="#3a414a"/><use xlink:href="#i" transform="matrix(1,0,0,1,442.77490194382966,1037.3768584022557) translate(0.005000000000002558 14.222222222222223)"/><use xlink:href="#j" transform="matrix(1,0,0,1,442.77490194382966,1037.3768584022557) translate(21.165493827160496 35.55555555555556)"/><path d="M361.4 1038.24a5 5 0 0 1 5-5h56a5 5 0 0 1 5 5v40.94a5 5 0 0 1-5 5h-56a5 5 0 0 1-5-5z" stroke="#1071e5" stroke-width="2" fill="#fff"/><use xlink:href="#L" transform="matrix(1,0,0,1,373.39710256427725,1045.2373987066308) translate(11.5 17.775)"/><use xlink:href="#M" transform="matrix(1,0,0,1,373.39710256427725,1045.2373987066308) translate(26.5 17.775)"/><path d="M393.55 1030.34l-1.2 1.6-91.2-68.9h3.3zM276.23 941.7h-3.32l-89.74-67.82 1.2-1.6z" stroke="#3a414a" stroke-width=".05" fill="#3a414a"/><path d="M394.4 1032.24l-21.55-2.45.22-2 18.2 2.07-6.96-16.94 1.86-.76zM184.4 872.3l-1.22 1.6-.8-.62 1.2-1.6z" stroke="#3a414a" stroke-width=".05" fill="#3a414a"/><use xlink:href="#J" transform="matrix(1,0,0,1,216.16701524271497,941.6933999304778) translate(0.0049999999999954525 14.222222222222223)"/><use xlink:href="#U" transform="matrix(1,0,0,1,216.16701524271497,941.6933999304778) translate(33.58524691358025 14.222222222222223)"/><use xlink:href="#V" transform="matrix(1,0,0,1,216.16701524271497,941.6933999304778) translate(101.58524691358025 14.222222222222223)"/><path d="M335.87-117.07a5 5 0 0 1 5-5h150a5 5 0 0 1 5 5v110a5 5 0 0 1-5 5h-150a5 5 0 0 1-5-5z" stroke="#1071e5" stroke-width="2" fill="#fff"/><g><use xlink:href="#I" transform="matrix(1,0,0,1,347.8744899064639,-110.06790300417867) translate(31.5 50.4)"/></g><path d="M180.6-89.54h-2v-7h2zm0-28.33h-2v-24.53h2z" stroke="#3a414a" stroke-width=".05" fill="#3a414a"/><path d="M190.64-125.55l-1.72 1.02-9.32-15.76-9.32 15.77-1.72-1.02 11.04-18.67z" stroke="#3a414a" stroke-width=".05" fill="#3a414a"/><path d="M180.6-88.54h-2v-1.03h2z" fill="#3a414a"/><path d="M180.63-88.52h-2.06v-1.07h2.06zm-2-1.02v.97h1.94v-.97z" stroke="#3a414a" stroke-width=".05" fill="#3a414a"/><g><use xlink:href="#J" transform="matrix(1,0,0,1,146.06880382469234,-117.86666666666669) translate(0.005000000000002558 14.222222222222223)"/><use xlink:href="#K" transform="matrix(1,0,0,1,146.06880382469234,-117.86666666666669) translate(33.58524691358026 14.222222222222223)"/></g><path d="M146.6-191.16a5 5 0 0 1 5-5h56a5 5 0 0 1 5 5v40.94a5 5 0 0 1-5 5h-56a5 5 0 0 1-5-5z" stroke="#1071e5" stroke-width="2" fill="#fff"/><g><use xlink:href="#L" transform="matrix(1,0,0,1,158.59503306614113,-184.1642708250539) translate(11.5 17.775)"/><use xlink:href="#M" transform="matrix(1,0,0,1,158.59503306614113,-184.1642708250539) translate(26.5 17.775)"/></g><path d="M180.6-198.16h-2v-9.57h2zm0-30.9h-2v-21.96h2z" stroke="#3a414a" stroke-width=".05" fill="#3a414a"/><path d="M190.64-234.17l-1.72 1.02-9.32-15.76-9.32 15.75-1.72-1.02 11.04-18.67z" stroke="#3a414a" stroke-width=".05" fill="#3a414a"/><path d="M180.6-197.16h-2v-1.03h2z" fill="#3a414a"/><path d="M180.63-197.14h-2.06v-1.08h2.06zm-2-1.03v.98h1.94v-.97z" stroke="#3a414a" stroke-width=".05" fill="#3a414a"/><g><use xlink:href="#J" transform="matrix(1,0,0,1,124.34040876296396,-229.06666666666692) translate(0.005000000000002558 14.222222222222223)"/><use xlink:href="#N" transform="matrix(1,0,0,1,124.34040876296396,-229.06666666666692) translate(33.58524691358026 14.222222222222223)"/></g><path d="M146.6-299.8a5 5 0 0 1 5-5h56a5 5 0 0 1 5 5v40.96a5 5 0 0 1-5 5h-56a5 5 0 0 1-5-5z" stroke="#1071e5" stroke-width="2" fill="#fff"/><g><use xlink:href="#L" transform="matrix(1,0,0,1,158.59503306614113,-292.7878456169707) translate(11.5 17.775)"/><use xlink:href="#M" transform="matrix(1,0,0,1,158.59503306614113,-292.7878456169707) translate(26.5 17.775)"/></g><path d="M180.6-306.8h-2v-9.73h2zm0-31.07h-2v-21.78h2z" stroke="#3a414a" stroke-width=".05" fill="#3a414a"/><path d="M190.64-342.8l-1.72 1.02-9.32-15.76-9.32 15.76-1.72-1.02 11.04-18.67z" stroke="#3a414a" stroke-width=".05" fill="#3a414a"/><path d="M180.6-305.8h-2v-1h2z" fill="#3a414a"/><path d="M180.63-305.76h-2.06v-1.08h2.06zm-2-1.03v1h1.94v-1z" stroke="#3a414a" stroke-width=".05" fill="#3a414a"/><g><use xlink:href="#O" transform="matrix(1,0,0,1,132.2416433308652,-337.86666666666684) translate(0.005000000000002558 14.222222222222223)"/><use xlink:href="#P" transform="matrix(1,0,0,1,132.2416433308652,-337.86666666666684) translate(18.721049382716053 14.222222222222223)"/><use xlink:href="#Q" transform="matrix(1,0,0,1,132.2416433308652,-337.86666666666684) translate(60.153148148148155 14.222222222222223)"/></g><path d="M99.6-417.68a5 5 0 0 1 5-5h150a5 5 0 0 1 5 5v50.2a5 5 0 0 1-5 5h-150a5 5 0 0 1-5-5z" stroke="#1071e5" stroke-width="2" fill="#fff"/><g><use xlink:href="#S" transform="matrix(1,0,0,1,111.59966802222323,-410.6827647701558) translate(15.699999999999996 21.3375)"/></g><path d="M227.9-61.07h-13.3v-2h13.3zm105.16 0H303.8v-2h29.26z" stroke="#3a414a" stroke-width=".05" fill="#3a414a"/><path d="M334.88-62.07L316.2-51.03l-1-1.72 15.75-9.32-15.76-9.32 1-1.7z" stroke="#3a414a" stroke-width=".05" fill="#3a414a"/><path d="M214.63-61.07h-1.03v-2h1.03z" fill="#3a414a"/><path d="M214.66-61.04h-1.08v-2.05h1.07zm-1.03-2v1.95h.97v-1.94z" stroke="#3a414a" stroke-width=".05" fill="#3a414a"/><g><use xlink:href="#i" transform="matrix(1,0,0,1,227.90613587958842,-83.40123633751207) translate(0.005000000000002558 14.222222222222223)"/><use xlink:href="#j" transform="matrix(1,0,0,1,227.90613587958842,-83.40123633751207) translate(21.165493827160496 35.55555555555556)"/></g><path d="M146.6-82.54a5 5 0 0 1 5-5h56a5 5 0 0 1 5 5v40.95a5 5 0 0 1-5 5h-56a5 5 0 0 1-5-5z" stroke="#1071e5" stroke-width="2" fill="#fff"/><g><use xlink:href="#L" transform="matrix(1,0,0,1,158.59503306614113,-75.54069603313701) translate(11.5 17.775)"/><use xlink:href="#M" transform="matrix(1,0,0,1,158.59503306614113,-75.54069603313701) translate(26.5 17.775)"/></g><path d="M180.6 29.98h-2V8.36h2zm0-42.95h-2v-20.8h2z" stroke="#3a414a" stroke-width=".05" fill="#3a414a"/><path d="M190.64-16.93l-1.72 1.02-9.32-15.77-9.32 15.76-1.72-1.03 11.04-18.66z" stroke="#3a414a" stroke-width=".05" fill="#3a414a"/><path d="M180.6 30.98h-2v-1.02h2z" fill="#3a414a"/><path d="M180.63 31h-2.06v-1.07h2.06zm-2-1.02v.98h1.94v-.98z" stroke="#3a414a" stroke-width=".05" fill="#3a414a"/><g><use xlink:href="#J" transform="matrix(1,0,0,1,107.0811495037047,-12.972189506756688) translate(0.0049999999999954525 14.222222222222223)"/><use xlink:href="#U" transform="matrix(1,0,0,1,107.0811495037047,-12.972189506756688) translate(33.58524691358025 14.222222222222223)"/><use xlink:href="#V" transform="matrix(1,0,0,1,107.0811495037047,-12.972189506756688) translate(101.58524691358025 14.222222222222223)"/></g><path d="M415.87-124.07v-9.23m0-9.23V-161m0-9.23v-9.23l.08-.94.22-.9.36-.88.5-.8.6-.72.72-.62.8-.5.87-.35.92-.22.93-.06h10.05m10.05 0h20.1m10.05 0h20.1m10.04 0h20.1m10.04 0h20.1m10.05 0h20.1m10.05 0h20.1m10.04 0h20.1m10.04 0h20.1m10.05 0h20.1m10.04 0h20.1m10.05 0h20.1m10.04 0h20.1m10.05 0h20.1m10.05 0h20.1m10.05 0h20.1m10.04 0h20.1m10.05 0h10.04l.93.07.92.23.86.36.8.5.72.6.6.7.5.8.36.88.22.92.08.94v10.73m0 10.72v10.72" stroke="#1071e5" stroke-width="2" fill="none"/><path d="M416.87-123.07h-2v-1.02h2z" stroke="#1071e5" stroke-width=".05" fill="#1071e5"/><path d="M930.15-164.64l10.2 17.2 10.17-17.2M712.83 1058.7h10.55m10.55 0h21.1m10.54 0h21.1m10.54 0h21.1m10.56 0h21.1m10.54 0h21.1m10.54 0h21.1m10.55 0h10.54l.93-.06.92-.22.86-.36.8-.5.72-.6.6-.72.5-.8.36-.88.22-.9.08-.95v-9.94m0-9.94v-19.9m0-9.95v-19.9m0-9.94v-19.9m0-9.95v-19.9m0-9.94v-19.9m0-9.94v-19.9m0-9.94v-19.9m0-9.95v-19.88m0-9.95v-19.9m0-9.94v-19.9m0-9.95v-19.9m0-9.94v-19.9m0-9.94v-19.9m0-9.95v-19.9m0-9.94v-19.88m0-9.95v-19.9m0-9.94v-19.9m0-9.95v-19.9m0-9.94v-19.9m0-9.94v-19.9m0-9.95v-19.9m0-9.94v-19.9m0-9.93v-19.9m0-9.95v-19.9m0-9.94v-19.9m0-9.94v-19.9m0-9.95V237m0-9.95v-19.9m0-9.94v-19.9m0-9.94v-19.9m0-9.94v-19.9m0-9.94v-19.9m0-9.95v-19.9m0-9.94V28.1m0-9.95v-19.9m0-9.95v-9.94" stroke="#1071e5" stroke-width="2" fill="none"/><path d="M712.86 1059.7h-1.03v-2h1.03z" stroke="#1071e5" stroke-width=".05" fill="#1071e5"/><path d="M950.52-4.28L940.34-21.5l-10.2 17.22" stroke="#1071e5" stroke-width="2" fill="none"/><path d="M180.6 1447.56l.06.82.2.76.3.73.4.67.5.6.6.5.67.4.73.3.76.2.82.06h9.94v2h-10.02l-1.06-.08-1.06-.26-1.02-.42-.94-.58-.83-.7-.72-.85-.57-.92-.42-1.02-.26-1.07-.08-1.06v-9.95h2zm44.93 7.04h-19.96v-2h19.96zm29.95 0H235.5v-2h19.98zm29.95 0h-19.97v-2h19.97zm29.95 0H295.4v-2h19.98zm29.95 0h-19.97v-2h19.97zm29.95 0H355.3v-2h19.98zm29.95 0h-19.97v-2h19.97zm29.95 0H415.2v-2h19.98zm29.95 0h-19.97v-2h19.97zm29.95 0H475.1v-2h19.98zm29.95 0h-19.97v-2h19.97zm29.95 0H535v-2H555zm29.94 0h-19.96v-2h19.96zm29.96 0H594.9v-2h19.98zm29.94 0h-19.96v-2h19.96zm29.95 0H654.8v-2h19.97zm29.95 0h-19.96v-2h19.96zm29.95 0H714.7v-2h19.97zm29.95 0h-19.97v-2h19.97zm29.95 0H774.6v-2h19.97zm29.95 0h-19.97v-2h19.97zm29.95 0H834.5v-2h19.97zm29.95 0h-19.97v-2h19.97zm29.95 0H894.4v-2h19.97zm26.97-6.96l-.1 1.05-.25 1.06-.42 1.02-.58.93-.7.85-.85.7-.94.6-1 .4-1.07.27-1.06.08h-10.02v-2h9.95l.82-.07.76-.18.72-.3.67-.4.6-.52.5-.6.42-.66.3-.73.17-.76.07-.82v-9.96h2zM180.6 1427.8h-2v-19.82h2zm760.74-.2h-2v-19.98h2zm-760.74-29.53h-2v-19.8h2zm760.74-.45h-2v-19.98h2zm-760.74-29.27h-2v-19.8h2zm760.74-.7h-2v-20h2zm-760.74-29h-2v-19.83h2zm760.74-1h-2v-19.98h2zm-760.74-28.73h-2v-19.8h2zm760.74-1.25h-2v-20h2zM180.6 1279.2h-2v-19.8h2zm760.74-1.5h-2v-20h2zm-760.74-28.22h-2v-19.8h2zm760.74-1.78h-2v-20h2zm-760.74-27.93h-2v-19.8h2zm760.74-2.05h-2v-20h2zm-760.74-27.67h-2v-19.8h2zm760.74-2.32h-2v-20h2zm-760.74-27.4h-2v-19.8h2zm760.74-2.58h-2v-20h2zm-760.74-27.13h-2v-9.9h2zm760.74-2.86h-2v-20h2zm0-29.98h-2v-20h2zm0-29.98h-2v-20h2zm0-30h-2v-19.98h2zm0-29.97h-2v-20h2zm0-30h-2v-19.98h2zm0-29.97h-2v-20h2zm0-30h-2V897.9h2zm0-29.97h-2v-20h2zm0-30h-2v-20h2zm0-29.98h-2v-20h2zm0-30h-2v-19.98h2zm0-29.97h-2v-20h2zm0-30h-2V718h2zm0-29.97h-2v-20h2zm0-29.98h-2v-20h2zm0-30h-2v-19.98h2zm0-29.97h-2v-20h2zm0-30h-2v-19.98h2zm0-29.97h-2v-20h2zm0-30h-2V508.1h2zm0-29.97h-2v-20h2zm0-30h-2v-20h2zm0-29.98h-2v-20h2zm0-30h-2v-19.97h2zm0-29.97h-2v-20h2zm0-29.98h-2v-20h2zm0-30h-2V298.2h2zm0-29.97h-2v-20h2zm0-30h-2v-19.98h2zm0-29.97h-2v-20h2zm0-30h-2v-19.98h2zm0-29.97h-2v-20h2zm0-29.98h-2v-20h2zm0-30h-2V88.3h2zm0-29.97h-2V58.33h2zm0-29.98h-2v-20h2zm0-29.98h-2v-20h2zm0-30h-2v-9.98h2z" stroke="#1071e5" stroke-width=".05" fill="#1071e5"/><path d="M180.6 1120.74h-2v-1.03h2z" fill="#1071e5"/><path d="M180.63 1120.76h-2.06v-1.08h2.06zm-2-1.03v.98h1.94v-.97zM951.38-4.8l-1.73 1.03-9.3-15.76L931-3.77l-1.7-1.02 11.04-18.66zM100.97 860.88H90.6l.02-2h10.35zm-20.7 0H59.54v-2h20.7zm-31.07 0H28.5v-2h20.7zm-31.07 0h-20.7v-2h20.7zm-31.06 0h-20.7v-2h20.7zm-31.07 0h-20.7v-2H-44zm-31.06 0h-20.7v-2h20.7zm-31.06 0h-20.7v-2h20.7zm-31.07 0h-20.7v-2h20.7zm-31.05 0h-20.7v-2h20.7zm-31.07 0h-20.7v-2h20.7zm-31.06 0h-20.7v-2h20.7zm-46.42-7.04l.07.82.18.76.3.72.4.67.52.6.6.52.66.4.73.3.76.2.82.05h10.32v2h-10.4l-1.05-.08-1.06-.26-1.02-.42-.93-.58-.85-.7-.7-.85-.6-.95-.4-1-.26-1.08-.1-1.06V844h2zm0-19.7h-2v-19.76h2zm0-29.64h-2v-19.75h2zm0-29.62h-2v-19.75h2zm0-29.63h-2V725.5h2zm0-29.62h-2v-19.75h2zm0-29.62h-2v-19.74h2zm0-29.62h-2v-19.75h2zm0-29.62h-2V607h2zm0-29.62h-2V577.4h2zm0-29.63h-2v-19.74h2zm0-29.6h-2v-19.76h2zm0-29.63h-2V488.5h2zm0-29.63h-2V458.9h2zm0-29.62h-2v-19.75h2zm0-29.63h-2v-19.75h2zm0-29.63h-2v-19.75h2zm0-29.62h-2V340.4h2zm0-29.63h-2v-19.75h2zm0-29.62h-2v-19.75h2zm0-29.63h-2v-19.74h2zm0-29.62h-2V221.9h2zm0-29.62h-2v-19.75h2zm0-29.63h-2v-19.75h2zm0-29.62h-2v-19.75h2zm0-29.62h-2V103.4h2zm0-29.63h-2V73.78h2zm0-29.62h-2V44.17h2zm0-29.62h-2V14.54h2zm0-29.62h-2V-15.1h2zm0-29.62h-2V-44.7h2zm18.32-44.5h-13.28l-.82.06-.76.2-.73.3-.67.4-.6.5-.5.6-.4.67-.3.73-.2.76-.06.82v9.83h-2v-9.9l.1-1.06.24-1.06.42-1.02.58-.94.7-.83.85-.73.92-.57 1.02-.42 1.07-.26 1.06-.08h13.36zm26.63 0h-13.3v-2h13.3z" stroke="#1071e5" stroke-width=".05" fill="#1071e5"/><path d="M101.97 860.88h-1.03v-2h1.03z" fill="#1071e5"/><path d="M102 860.9h-1.08v-2.05H102zm-1.03-2v1.95h.97v-1.95zM-230.03-70.46l-18.67 11.04-1.02-1.72 15.76-9.32-15.76-9.32 1.02-1.72z" stroke="#1071e5" stroke-width=".05" fill="#1071e5"/><defs><path fill="#1071e5" d="M143 4C61 4 22-44 18-125c-5-107 100-154 193-111 17 8 29 25 37 43l-32 9c-13-25-37-40-76-40-61 0-88 39-88 99 0 61 29 100 91 101 35 0 62-11 79-27v-45h-74v-28h105v86C228-13 192 4 143 4" id="X"/><path fill="#1071e5" d="M100-194c63 0 86 42 84 106H49c0 40 14 67 53 68 26 1 43-12 49-29l28 8c-11 28-37 45-77 45C44 4 14-33 15-96c1-61 26-98 85-98zm52 81c6-60-76-77-97-28-3 7-6 17-6 28h103" id="Y"/><path fill="#1071e5" d="M100-194c62-1 85 37 85 99 1 63-27 99-86 99S16-35 15-95c0-66 28-99 85-99zM99-20c44 1 53-31 53-75 0-43-8-75-51-75s-53 32-53 75 10 74 51 75" id="Z"/><path fill="#1071e5" d="M177-190C167-65 218 103 67 71c-23-6-38-20-44-43l32-5c15 47 100 32 89-28v-30C133-14 115 1 83 1 29 1 15-40 15-95c0-56 16-97 71-98 29-1 48 16 59 35 1-10 0-23 2-32h30zM94-22c36 0 50-32 50-73 0-42-14-75-50-75-39 0-46 34-46 75s6 73 46 73" id="aa"/><path fill="#1071e5" d="M114-163C36-179 61-72 57 0H25l-1-190h30c1 12-1 29 2 39 6-27 23-49 58-41v29" id="ab"/><path fill="#1071e5" d="M141-36C126-15 110 5 73 4 37 3 15-17 15-53c-1-64 63-63 125-63 3-35-9-54-41-54-24 1-41 7-42 31l-33-3c5-37 33-52 76-52 45 0 72 20 72 64v82c-1 20 7 32 28 27v20c-31 9-61-2-59-35zM48-53c0 20 12 33 32 33 41-3 63-29 60-74-43 2-92-5-92 41" id="ac"/><path fill="#1071e5" d="M115-194c55 1 70 41 70 98S169 2 115 4C84 4 66-9 55-30l1 105H24l-1-265h31l2 30c10-21 28-34 59-34zm-8 174c40 0 45-34 45-75s-6-73-45-74c-42 0-51 32-51 76 0 43 10 73 51 73" id="ad"/><path fill="#1071e5" d="M106-169C34-169 62-67 57 0H25v-261h32l-1 103c12-21 28-36 61-36 89 0 53 116 60 194h-32v-121c2-32-8-49-39-48" id="ae"/><path fill="#1071e5" d="M24-231v-30h32v30H24zM24 0v-190h32V0H24" id="af"/><path fill="#1071e5" d="M96-169c-40 0-48 33-48 73s9 75 48 75c24 0 41-14 43-38l32 2c-6 37-31 61-74 61-59 0-76-41-82-99-10-93 101-131 147-64 4 7 5 14 7 22l-32 3c-4-21-16-35-41-35" id="ag"/><path fill="#1071e5" d="M24 0v-261h32V0H24" id="ah"/><g id="a"><use transform="matrix(0.05,0,0,0.05,0,0)" xlink:href="#X"/><use transform="matrix(0.05,0,0,0.05,14,0)" xlink:href="#Y"/><use transform="matrix(0.05,0,0,0.05,24,0)" xlink:href="#Z"/><use transform="matrix(0.05,0,0,0.05,34,0)" xlink:href="#aa"/><use transform="matrix(0.05,0,0,0.05,44,0)" xlink:href="#ab"/><use transform="matrix(0.05,0,0,0.05,49.95,0)" xlink:href="#ac"/><use transform="matrix(0.05,0,0,0.05,59.95,0)" xlink:href="#ad"/><use transform="matrix(0.05,0,0,0.05,69.95,0)" xlink:href="#ae"/><use transform="matrix(0.05,0,0,0.05,79.95,0)" xlink:href="#af"/><use transform="matrix(0.05,0,0,0.05,83.9,0)" xlink:href="#ag"/><use transform="matrix(0.05,0,0,0.05,92.9,0)" xlink:href="#ac"/><use transform="matrix(0.05,0,0,0.05,102.9,0)" xlink:href="#ah"/></g><path fill="#1071e5" d="M190 0L58-211 59 0H30v-248h39L202-35l-2-213h31V0h-41" id="ai"/><path fill="#1071e5" d="M210-169c-67 3-38 105-44 169h-31v-121c0-29-5-50-35-48C34-165 62-65 56 0H25l-1-190h30c1 10-1 24 2 32 10-44 99-50 107 0 11-21 27-35 58-36 85-2 47 119 55 194h-31v-121c0-29-5-49-35-48" id="aj"/><g id="b"><use transform="matrix(0.05,0,0,0.05,0,0)" xlink:href="#ai"/><use transform="matrix(0.05,0,0,0.05,12.950000000000001,0)" xlink:href="#ac"/><use transform="matrix(0.05,0,0,0.05,22.950000000000003,0)" xlink:href="#aj"/><use transform="matrix(0.05,0,0,0.05,37.900000000000006,0)" xlink:href="#Y"/></g><path fill="#1071e5" d="M137-103V0h-34v-103L8-248h37l75 118 75-118h37" id="ak"/><use transform="matrix(0.05,0,0,0.05,0,0)" xlink:href="#ak" id="c"/><path d="M143 4C61 4 22-44 18-125c-5-107 100-154 193-111 17 8 29 25 37 43l-32 9c-13-25-37-40-76-40-61 0-88 39-88 99 0 61 29 100 91 101 35 0 62-11 79-27v-45h-74v-28h105v86C228-13 192 4 143 4" id="al"/><path d="M100-194c63 0 86 42 84 106H49c0 40 14 67 53 68 26 1 43-12 49-29l28 8c-11 28-37 45-77 45C44 4 14-33 15-96c1-61 26-98 85-98zm52 81c6-60-76-77-97-28-3 7-6 17-6 28h103" id="am"/><path d="M100-194c62-1 85 37 85 99 1 63-27 99-86 99S16-35 15-95c0-66 28-99 85-99zM99-20c44 1 53-31 53-75 0-43-8-75-51-75s-53 32-53 75 10 74 51 75" id="an"/><path d="M177-190C167-65 218 103 67 71c-23-6-38-20-44-43l32-5c15 47 100 32 89-28v-30C133-14 115 1 83 1 29 1 15-40 15-95c0-56 16-97 71-98 29-1 48 16 59 35 1-10 0-23 2-32h30zM94-22c36 0 50-32 50-73 0-42-14-75-50-75-39 0-46 34-46 75s6 73 46 73" id="ao"/><path d="M114-163C36-179 61-72 57 0H25l-1-190h30c1 12-1 29 2 39 6-27 23-49 58-41v29" id="ap"/><path d="M141-36C126-15 110 5 73 4 37 3 15-17 15-53c-1-64 63-63 125-63 3-35-9-54-41-54-24 1-41 7-42 31l-33-3c5-37 33-52 76-52 45 0 72 20 72 64v82c-1 20 7 32 28 27v20c-31 9-61-2-59-35zM48-53c0 20 12 33 32 33 41-3 63-29 60-74-43 2-92-5-92 41" id="aq"/><path d="M115-194c55 1 70 41 70 98S169 2 115 4C84 4 66-9 55-30l1 105H24l-1-265h31l2 30c10-21 28-34 59-34zm-8 174c40 0 45-34 45-75s-6-73-45-74c-42 0-51 32-51 76 0 43 10 73 51 73" id="ar"/><path d="M106-169C34-169 62-67 57 0H25v-261h32l-1 103c12-21 28-36 61-36 89 0 53 116 60 194h-32v-121c2-32-8-49-39-48" id="as"/><path d="M24-231v-30h32v30H24zM24 0v-190h32V0H24" id="at"/><path d="M96-169c-40 0-48 33-48 73s9 75 48 75c24 0 41-14 43-38l32 2c-6 37-31 61-74 61-59 0-76-41-82-99-10-93 101-131 147-64 4 7 5 14 7 22l-32 3c-4-21-16-35-41-35" id="au"/><path d="M24 0v-261h32V0H24" id="av"/><g id="d"><use transform="matrix(0.05,0,0,0.05,0,0)" xlink:href="#al"/><use transform="matrix(0.05,0,0,0.05,14,0)" xlink:href="#am"/><use transform="matrix(0.05,0,0,0.05,24,0)" xlink:href="#an"/><use transform="matrix(0.05,0,0,0.05,34,0)" xlink:href="#ao"/><use transform="matrix(0.05,0,0,0.05,44,0)" xlink:href="#ap"/><use transform="matrix(0.05,0,0,0.05,49.95,0)" xlink:href="#aq"/><use transform="matrix(0.05,0,0,0.05,59.95,0)" xlink:href="#ar"/><use transform="matrix(0.05,0,0,0.05,69.95,0)" xlink:href="#as"/><use transform="matrix(0.05,0,0,0.05,79.95,0)" xlink:href="#at"/><use transform="matrix(0.05,0,0,0.05,83.9,0)" xlink:href="#au"/><use transform="matrix(0.05,0,0,0.05,92.9,0)" xlink:href="#aq"/><use transform="matrix(0.05,0,0,0.05,102.9,0)" xlink:href="#av"/></g><path d="M108 0H70L1-190h34L89-25l56-165h34" id="aw"/><path d="M117-194c89-4 53 116 60 194h-32v-121c0-31-8-49-39-48C34-167 62-67 57 0H25l-1-190h30c1 10-1 24 2 32 11-22 29-35 61-36" id="ax"/><g id="e"><use transform="matrix(0.05,0,0,0.05,0,0)" xlink:href="#al"/><use transform="matrix(0.05,0,0,0.05,14,0)" xlink:href="#at"/><use transform="matrix(0.05,0,0,0.05,17.95,0)" xlink:href="#aw"/><use transform="matrix(0.05,0,0,0.05,26.950000000000003,0)" xlink:href="#am"/><use transform="matrix(0.05,0,0,0.05,36.95,0)" xlink:href="#ax"/></g><path d="M190 0L58-211 59 0H30v-248h39L202-35l-2-213h31V0h-41" id="ay"/><path d="M210-169c-67 3-38 105-44 169h-31v-121c0-29-5-50-35-48C34-165 62-65 56 0H25l-1-190h30c1 10-1 24 2 32 10-44 99-50 107 0 11-21 27-35 58-36 85-2 47 119 55 194h-31v-121c0-29-5-49-35-48" id="az"/><g id="f"><use transform="matrix(0.05,0,0,0.05,0,0)" xlink:href="#ay"/><use transform="matrix(0.05,0,0,0.05,12.950000000000001,0)" xlink:href="#aq"/><use transform="matrix(0.05,0,0,0.05,22.950000000000003,0)" xlink:href="#az"/><use transform="matrix(0.05,0,0,0.05,37.900000000000006,0)" xlink:href="#am"/></g><path fill="#333" d="M141-36C126-15 110 5 73 4 37 3 15-17 15-53c-1-64 63-63 125-63 3-35-9-54-41-54-24 1-41 7-42 31l-33-3c5-37 33-52 76-52 45 0 72 20 72 64v82c-1 20 7 32 28 27v20c-31 9-61-2-59-35zM48-53c0 20 12 33 32 33 41-3 63-29 60-74-43 2-92-5-92 41" id="aA"/><path fill="#333" d="M85-194c31 0 48 13 60 33l-1-100h32l1 261h-30c-2-10 0-23-3-31C134-8 116 4 85 4 32 4 16-35 15-94c0-66 23-100 70-100zm9 24c-40 0-46 34-46 75 0 40 6 74 45 74 42 0 51-32 51-76 0-42-9-74-50-73" id="aB"/><path fill="#333" d="M24-231v-30h32v30H24zM24 0v-190h32V0H24" id="aC"/><path fill="#333" d="M59-47c-2 24 18 29 38 22v24C64 9 27 4 27-40v-127H5v-23h24l9-43h21v43h35v23H59v120" id="aD"/><path fill="#333" d="M100-194c62-1 85 37 85 99 1 63-27 99-86 99S16-35 15-95c0-66 28-99 85-99zM99-20c44 1 53-31 53-75 0-43-8-75-51-75s-53 32-53 75 10 74 51 75" id="aE"/><path fill="#333" d="M117-194c89-4 53 116 60 194h-32v-121c0-31-8-49-39-48C34-167 62-67 57 0H25l-1-190h30c1 10-1 24 2 32 11-22 29-35 61-36" id="aF"/><path fill="#333" d="M24 0v-261h32V0H24" id="aG"/><g id="g"><use transform="matrix(0.04938271604938272,0,0,0.04938271604938272,0,0)" xlink:href="#aA"/><use transform="matrix(0.04938271604938272,0,0,0.04938271604938272,9.876543209876544,0)" xlink:href="#aB"/><use transform="matrix(0.04938271604938272,0,0,0.04938271604938272,19.75308641975309,0)" xlink:href="#aB"/><use transform="matrix(0.04938271604938272,0,0,0.04938271604938272,29.629629629629633,0)" xlink:href="#aC"/><use transform="matrix(0.04938271604938272,0,0,0.04938271604938272,33.53086419753087,0)" xlink:href="#aD"/><use transform="matrix(0.04938271604938272,0,0,0.04938271604938272,38.46913580246914,0)" xlink:href="#aC"/><use transform="matrix(0.04938271604938272,0,0,0.04938271604938272,42.370370370370374,0)" xlink:href="#aE"/><use transform="matrix(0.04938271604938272,0,0,0.04938271604938272,52.24691358024692,0)" xlink:href="#aF"/><use transform="matrix(0.04938271604938272,0,0,0.04938271604938272,62.12345679012346,0)" xlink:href="#aA"/><use transform="matrix(0.04938271604938272,0,0,0.04938271604938272,72,0)" xlink:href="#aG"/></g><path fill="#333" d="M179-190L93 31C79 59 56 82 12 73V49c39 6 53-20 64-50L1-190h34L92-34l54-156h33" id="aH"/><path fill="#333" d="M115-194c55 1 70 41 70 98S169 2 115 4C84 4 66-9 55-30l1 105H24l-1-265h31l2 30c10-21 28-34 59-34zm-8 174c40 0 45-34 45-75s-6-73-45-74c-42 0-51 32-51 76 0 43 10 73 51 73" id="aI"/><path fill="#333" d="M100-194c63 0 86 42 84 106H49c0 40 14 67 53 68 26 1 43-12 49-29l28 8c-11 28-37 45-77 45C44 4 14-33 15-96c1-61 26-98 85-98zm52 81c6-60-76-77-97-28-3 7-6 17-6 28h103" id="aJ"/><g id="h"><use transform="matrix(0.04938271604938272,0,0,0.04938271604938272,0,0)" xlink:href="#aD"/><use transform="matrix(0.04938271604938272,0,0,0.04938271604938272,4.938271604938272,0)" xlink:href="#aH"/><use transform="matrix(0.04938271604938272,0,0,0.04938271604938272,13.827160493827162,0)" xlink:href="#aI"/><use transform="matrix(0.04938271604938272,0,0,0.04938271604938272,23.703703703703706,0)" xlink:href="#aJ"/></g><g id="i"><use transform="matrix(0.04938271604938272,0,0,0.04938271604938272,0,0)" xlink:href="#aA"/><use transform="matrix(0.04938271604938272,0,0,0.04938271604938272,9.876543209876544,0)" xlink:href="#aB"/><use transform="matrix(0.04938271604938272,0,0,0.04938271604938272,19.75308641975309,0)" xlink:href="#aB"/><use transform="matrix(0.04938271604938272,0,0,0.04938271604938272,29.629629629629633,0)" xlink:href="#aC"/><use transform="matrix(0.04938271604938272,0,0,0.04938271604938272,33.53086419753087,0)" xlink:href="#aD"/><use transform="matrix(0.04938271604938272,0,0,0.04938271604938272,38.46913580246914,0)" xlink:href="#aC"/><use transform="matrix(0.04938271604938272,0,0,0.04938271604938272,42.370370370370374,0)" xlink:href="#aE"/><use transform="matrix(0.04938271604938272,0,0,0.04938271604938272,52.24691358024692,0)" xlink:href="#aF"/><use transform="matrix(0.04938271604938272,0,0,0.04938271604938272,62.12345679012346,0)" xlink:href="#aA"/><use transform="matrix(0.04938271604938272,0,0,0.04938271604938272,72,0)" xlink:href="#aG"/></g><g id="j"><use transform="matrix(0.04938271604938272,0,0,0.04938271604938272,0,0)" xlink:href="#aD"/><use transform="matrix(0.04938271604938272,0,0,0.04938271604938272,4.938271604938272,0)" xlink:href="#aH"/><use transform="matrix(0.04938271604938272,0,0,0.04938271604938272,13.827160493827162,0)" xlink:href="#aI"/><use transform="matrix(0.04938271604938272,0,0,0.04938271604938272,23.703703703703706,0)" xlink:href="#aJ"/></g><path fill="#e81313" d="M109-170H84l-4-78h32zm-65 0H19l-4-78h33" id="aK"/><path fill="#e81313" d="M194 0L95-120 63-95V0H30v-248h33v124l119-124h40L117-140 236 0h-42" id="aL"/><path fill="#e81313" d="M47-170H22l-4-78h33" id="aM"/><path fill="#e81313" d="M177-190C167-65 218 103 67 71c-23-6-38-20-44-43l32-5c15 47 100 32 89-28v-30C133-14 115 1 83 1 29 1 15-40 15-95c0-56 16-97 71-98 29-1 48 16 59 35 1-10 0-23 2-32h30zM94-22c36 0 50-32 50-73 0-42-14-75-50-75-39 0-46 34-46 75s6 73 46 73" id="aN"/><path fill="#e81313" d="M141-36C126-15 110 5 73 4 37 3 15-17 15-53c-1-64 63-63 125-63 3-35-9-54-41-54-24 1-41 7-42 31l-33-3c5-37 33-52 76-52 45 0 72 20 72 64v82c-1 20 7 32 28 27v20c-31 9-61-2-59-35zM48-53c0 20 12 33 32 33 41-3 63-29 60-74-43 2-92-5-92 41" id="aO"/><path fill="#e81313" d="M114-163C36-179 61-72 57 0H25l-1-190h30c1 12-1 29 2 39 6-27 23-49 58-41v29" id="aP"/><path fill="#e81313" d="M24-231v-30h32v30H24zM24 0v-190h32V0H24" id="aQ"/><g id="k"><use transform="matrix(0.05,0,0,0.05,0,0)" xlink:href="#aK"/><use transform="matrix(0.05,0,0,0.05,6.3500000000000005,0)" xlink:href="#aL"/><use transform="matrix(0.05,0,0,0.05,18.35,0)" xlink:href="#aM"/><use transform="matrix(0.05,0,0,0.05,21.75,0)" xlink:href="#aN"/><use transform="matrix(0.05,0,0,0.05,31.75,0)" xlink:href="#aO"/><use transform="matrix(0.05,0,0,0.05,41.75,0)" xlink:href="#aP"/><use transform="matrix(0.05,0,0,0.05,47.7,0)" xlink:href="#aQ"/><use transform="matrix(0.05,0,0,0.05,51.650000000000006,0)" xlink:href="#aK"/></g><path fill="#e81313" d="M106-169C34-169 62-67 57 0H25v-261h32l-1 103c12-21 28-36 61-36 89 0 53 116 60 194h-32v-121c2-32-8-49-39-48" id="aR"/><path fill="#e81313" d="M135-143c-3-34-86-38-87 0 15 53 115 12 119 90S17 21 10-45l28-5c4 36 97 45 98 0-10-56-113-15-118-90-4-57 82-63 122-42 12 7 21 19 24 35" id="aS"/><g id="l"><use transform="matrix(0.04938271604938272,0,0,0.04938271604938272,0,0)" xlink:href="#aR"/><use transform="matrix(0.04938271604938272,0,0,0.04938271604938272,9.876543209876544,0)" xlink:href="#aO"/><use transform="matrix(0.04938271604938272,0,0,0.04938271604938272,19.75308641975309,0)" xlink:href="#aS"/></g><path fill="#e81313" d="M96-169c-40 0-48 33-48 73s9 75 48 75c24 0 41-14 43-38l32 2c-6 37-31 61-74 61-59 0-76-41-82-99-10-93 101-131 147-64 4 7 5 14 7 22l-32 3c-4-21-16-35-41-35" id="aT"/><path fill="#e81313" d="M100-194c62-1 85 37 85 99 1 63-27 99-86 99S16-35 15-95c0-66 28-99 85-99zM99-20c44 1 53-31 53-75 0-43-8-75-51-75s-53 32-53 75 10 74 51 75" id="aU"/><path fill="#e81313" d="M210-169c-67 3-38 105-44 169h-31v-121c0-29-5-50-35-48C34-165 62-65 56 0H25l-1-190h30c1 10-1 24 2 32 10-44 99-50 107 0 11-21 27-35 58-36 85-2 47 119 55 194h-31v-121c0-29-5-49-35-48" id="aV"/><path fill="#e81313" d="M115-194c55 1 70 41 70 98S169 2 115 4C84 4 66-9 55-30l1 105H24l-1-265h31l2 30c10-21 28-34 59-34zm-8 174c40 0 45-34 45-75s-6-73-45-74c-42 0-51 32-51 76 0 43 10 73 51 73" id="aW"/><path fill="#e81313" d="M84 4C-5 8 30-112 23-190h32v120c0 31 7 50 39 49 72-2 45-101 50-169h31l1 190h-30c-1-10 1-25-2-33-11 22-28 36-60 37" id="aX"/><path fill="#e81313" d="M117-194c89-4 53 116 60 194h-32v-121c0-31-8-49-39-48C34-167 62-67 57 0H25l-1-190h30c1 10-1 24 2 32 11-22 29-35 61-36" id="aY"/><path fill="#e81313" d="M85-194c31 0 48 13 60 33l-1-100h32l1 261h-30c-2-10 0-23-3-31C134-8 116 4 85 4 32 4 16-35 15-94c0-66 23-100 70-100zm9 24c-40 0-46 34-46 75 0 40 6 74 45 74 42 0 51-32 51-76 0-42-9-74-50-73" id="aZ"/><path fill="#e81313" d="M100-194c63 0 86 42 84 106H49c0 40 14 67 53 68 26 1 43-12 49-29l28 8c-11 28-37 45-77 45C44 4 14-33 15-96c1-61 26-98 85-98zm52 81c6-60-76-77-97-28-3 7-6 17-6 28h103" id="ba"/><g id="m"><use transform="matrix(0.04938271604938272,0,0,0.04938271604938272,0,0)" xlink:href="#aT"/><use transform="matrix(0.04938271604938272,0,0,0.04938271604938272,8.88888888888889,0)" xlink:href="#aU"/><use transform="matrix(0.04938271604938272,0,0,0.04938271604938272,18.765432098765434,0)" xlink:href="#aV"/><use transform="matrix(0.04938271604938272,0,0,0.04938271604938272,33.53086419753087,0)" xlink:href="#aW"/><use transform="matrix(0.04938271604938272,0,0,0.04938271604938272,43.40740740740741,0)" xlink:href="#aU"/><use transform="matrix(0.04938271604938272,0,0,0.04938271604938272,53.283950617283956,0)" xlink:href="#aX"/><use transform="matrix(0.04938271604938272,0,0,0.04938271604938272,63.1604938271605,0)" xlink:href="#aY"/><use transform="matrix(0.04938271604938272,0,0,0.04938271604938272,73.03703703703704,0)" xlink:href="#aZ"/><use transform="matrix(0.04938271604938272,0,0,0.04938271604938272,82.91358024691358,0)" xlink:href="#ba"/><use transform="matrix(0.04938271604938272,0,0,0.04938271604938272,92.79012345679013,0)" xlink:href="#aZ"/></g><g id="n"><use transform="matrix(0.04938271604938272,0,0,0.04938271604938272,0,0)" xlink:href="#aY"/><use transform="matrix(0.04938271604938272,0,0,0.04938271604938272,9.876543209876544,0)" xlink:href="#aO"/><use transform="matrix(0.04938271604938272,0,0,0.04938271604938272,19.75308641975309,0)" xlink:href="#aV"/><use transform="matrix(0.04938271604938272,0,0,0.04938271604938272,34.51851851851852,0)" xlink:href="#ba"/></g><path fill="#1071e5" d="M109-170H84l-4-78h32zm-65 0H19l-4-78h33" id="bb"/><path fill="#1071e5" d="M194 0L95-120 63-95V0H30v-248h33v124l119-124h40L117-140 236 0h-42" id="bc"/><path fill="#1071e5" d="M47-170H22l-4-78h33" id="bd"/><g id="o"><use transform="matrix(0.05,0,0,0.05,0,0)" xlink:href="#bb"/><use transform="matrix(0.05,0,0,0.05,6.3500000000000005,0)" xlink:href="#bc"/><use transform="matrix(0.05,0,0,0.05,18.35,0)" xlink:href="#bd"/><use transform="matrix(0.05,0,0,0.05,21.75,0)" xlink:href="#aa"/><use transform="matrix(0.05,0,0,0.05,31.75,0)" xlink:href="#ac"/><use transform="matrix(0.05,0,0,0.05,41.75,0)" xlink:href="#ab"/><use transform="matrix(0.05,0,0,0.05,47.7,0)" xlink:href="#af"/><use transform="matrix(0.05,0,0,0.05,51.650000000000006,0)" xlink:href="#bb"/></g><path d="M84 4C-5 8 30-112 23-190h32v120c0 31 7 50 39 49 72-2 45-101 50-169h31l1 190h-30c-1-10 1-25-2-33-11 22-28 36-60 37" id="be"/><g id="p"><use transform="matrix(0.04938271604938272,0,0,0.04938271604938272,0,0)" xlink:href="#aw"/><use transform="matrix(0.04938271604938272,0,0,0.04938271604938272,8.88888888888889,0)" xlink:href="#aq"/><use transform="matrix(0.04938271604938272,0,0,0.04938271604938272,18.765432098765434,0)" xlink:href="#av"/><use transform="matrix(0.04938271604938272,0,0,0.04938271604938272,22.666666666666668,0)" xlink:href="#be"/><use transform="matrix(0.04938271604938272,0,0,0.04938271604938272,32.543209876543216,0)" xlink:href="#am"/></g><path d="M212-179c-10-28-35-45-73-45-59 0-87 40-87 99 0 60 29 101 89 101 43 0 62-24 78-52l27 14C228-24 195 4 139 4 59 4 22-46 18-125c-6-104 99-153 187-111 19 9 31 26 39 46" id="bf"/><path d="M59-47c-2 24 18 29 38 22v24C64 9 27 4 27-40v-127H5v-23h24l9-43h21v43h35v23H59v120" id="bg"/><g id="q"><use transform="matrix(0.05,0,0,0.05,0,0)" xlink:href="#bf"/><use transform="matrix(0.05,0,0,0.05,12.950000000000001,0)" xlink:href="#an"/><use transform="matrix(0.05,0,0,0.05,22.950000000000003,0)" xlink:href="#ax"/><use transform="matrix(0.05,0,0,0.05,32.95,0)" xlink:href="#au"/><use transform="matrix(0.05,0,0,0.05,41.95,0)" xlink:href="#am"/><use transform="matrix(0.05,0,0,0.05,51.95,0)" xlink:href="#ar"/><use transform="matrix(0.05,0,0,0.05,61.95,0)" xlink:href="#bg"/></g><path d="M85-194c31 0 48 13 60 33l-1-100h32l1 261h-30c-2-10 0-23-3-31C134-8 116 4 85 4 32 4 16-35 15-94c0-66 23-100 70-100zm9 24c-40 0-46 34-46 75 0 40 6 74 45 74 42 0 51-32 51-76 0-42-9-74-50-73" id="bh"/><path d="M101-234c-31-9-42 10-38 44h38v23H63V0H32v-167H5v-23h27c-7-52 17-82 69-68v24" id="bi"/><path d="M135-143c-3-34-86-38-87 0 15 53 115 12 119 90S17 21 10-45l28-5c4 36 97 45 98 0-10-56-113-15-118-90-4-57 82-63 122-42 12 7 21 19 24 35" id="bj"/><path d="M33-154v-36h34v36H33zM33 0v-36h34V0H33" id="bk"/><g id="r"><use transform="matrix(0.05,0,0,0.05,0,0)" xlink:href="#ap"/><use transform="matrix(0.05,0,0,0.05,5.95,0)" xlink:href="#bh"/><use transform="matrix(0.05,0,0,0.05,15.949999999999998,0)" xlink:href="#bi"/><use transform="matrix(0.05,0,0,0.05,20.95,0)" xlink:href="#bj"/><use transform="matrix(0.05,0,0,0.05,29.950000000000003,0)" xlink:href="#bk"/></g><path d="M30 0v-248h33v221h125V0H30" id="bl"/><g id="s"><use transform="matrix(0.05,0,0,0.05,0,0)" xlink:href="#bl"/><use transform="matrix(0.05,0,0,0.05,10,0)" xlink:href="#at"/><use transform="matrix(0.05,0,0,0.05,13.949999999999998,0)" xlink:href="#bg"/><use transform="matrix(0.05,0,0,0.05,18.95,0)" xlink:href="#am"/><use transform="matrix(0.05,0,0,0.05,28.950000000000003,0)" xlink:href="#ap"/><use transform="matrix(0.05,0,0,0.05,34.9,0)" xlink:href="#aq"/><use transform="matrix(0.05,0,0,0.05,44.9,0)" xlink:href="#av"/></g><g id="t"><use transform="matrix(0.05,0,0,0.05,0,0)" xlink:href="#al"/><use transform="matrix(0.05,0,0,0.05,14,0)" xlink:href="#am"/><use transform="matrix(0.05,0,0,0.05,24,0)" xlink:href="#an"/><use transform="matrix(0.05,0,0,0.05,34,0)" xlink:href="#ao"/><use transform="matrix(0.05,0,0,0.05,44,0)" xlink:href="#ap"/><use transform="matrix(0.05,0,0,0.05,49.95,0)" xlink:href="#aq"/><use transform="matrix(0.05,0,0,0.05,59.95,0)" xlink:href="#ar"/><use transform="matrix(0.05,0,0,0.05,69.95,0)" xlink:href="#as"/><use transform="matrix(0.05,0,0,0.05,79.95,0)" xlink:href="#at"/><use transform="matrix(0.05,0,0,0.05,83.9,0)" xlink:href="#au"/><use transform="matrix(0.05,0,0,0.05,92.9,0)" xlink:href="#aq"/><use transform="matrix(0.05,0,0,0.05,102.9,0)" xlink:href="#av"/></g><g id="u"><use transform="matrix(0.05,0,0,0.05,0,0)" xlink:href="#ay"/><use transform="matrix(0.05,0,0,0.05,12.950000000000001,0)" xlink:href="#aq"/><use transform="matrix(0.05,0,0,0.05,22.950000000000003,0)" xlink:href="#az"/><use transform="matrix(0.05,0,0,0.05,37.900000000000006,0)" xlink:href="#am"/></g><path d="M140-251c81 0 123 46 123 126C263-46 219 4 140 4 59 4 17-45 17-125s42-126 123-126zm0 227c63 0 89-41 89-101s-29-99-89-99c-61 0-89 39-89 99S79-25 140-24" id="bm"/><path d="M115-194c53 0 69 39 70 98 0 66-23 100-70 100C84 3 66-7 56-30L54 0H23l1-261h32v101c10-23 28-34 59-34zm-8 174c40 0 45-34 45-75 0-40-5-75-45-74-42 0-51 32-51 76 0 43 10 73 51 73" id="bn"/><path d="M24-231v-30h32v30H24zM-9 49c24 4 33-6 33-30v-209h32V24c2 40-23 58-65 49V49" id="bo"/><g id="v"><use transform="matrix(0.05,0,0,0.05,0,0)" xlink:href="#bm"/><use transform="matrix(0.05,0,0,0.05,14,0)" xlink:href="#bn"/><use transform="matrix(0.05,0,0,0.05,24,0)" xlink:href="#bo"/><use transform="matrix(0.05,0,0,0.05,27.950000000000003,0)" xlink:href="#am"/><use transform="matrix(0.05,0,0,0.05,37.95,0)" xlink:href="#au"/><use transform="matrix(0.05,0,0,0.05,46.95,0)" xlink:href="#bg"/></g><path fill="#333" d="M135-143c-3-34-86-38-87 0 15 53 115 12 119 90S17 21 10-45l28-5c4 36 97 45 98 0-10-56-113-15-118-90-4-57 82-63 122-42 12 7 21 19 24 35" id="bp"/><g id="w"><use transform="matrix(0.04938271604938272,0,0,0.04938271604938272,0,0)" xlink:href="#aC"/><use transform="matrix(0.04938271604938272,0,0,0.04938271604938272,3.901234567901235,0)" xlink:href="#bp"/></g><path fill="#333" d="M210-169c-67 3-38 105-44 169h-31v-121c0-29-5-50-35-48C34-165 62-65 56 0H25l-1-190h30c1 10-1 24 2 32 10-44 99-50 107 0 11-21 27-35 58-36 85-2 47 119 55 194h-31v-121c0-29-5-49-35-48" id="bq"/><g id="x"><use transform="matrix(0.04938271604938272,0,0,0.04938271604938272,0,0)" xlink:href="#aF"/><use transform="matrix(0.04938271604938272,0,0,0.04938271604938272,9.876543209876544,0)" xlink:href="#aA"/><use transform="matrix(0.04938271604938272,0,0,0.04938271604938272,19.75308641975309,0)" xlink:href="#bq"/><use transform="matrix(0.04938271604938272,0,0,0.04938271604938272,34.51851851851852,0)" xlink:href="#aJ"/></g><path fill="#333" d="M101-234c-31-9-42 10-38 44h38v23H63V0H32v-167H5v-23h27c-7-52 17-82 69-68v24" id="br"/><path fill="#333" d="M114-163C36-179 61-72 57 0H25l-1-190h30c1 12-1 29 2 39 6-27 23-49 58-41v29" id="bs"/><g id="y"><use transform="matrix(0.04938271604938272,0,0,0.04938271604938272,0,0)" xlink:href="#br"/><use transform="matrix(0.04938271604938272,0,0,0.04938271604938272,4.938271604938272,0)" xlink:href="#aE"/><use transform="matrix(0.04938271604938272,0,0,0.04938271604938272,14.814814814814817,0)" xlink:href="#bs"/></g><path fill="#1071e5" d="M140-251c81 0 123 46 123 126C263-46 219 4 140 4 59 4 17-45 17-125s42-126 123-126zm0 227c63 0 89-41 89-101s-29-99-89-99c-61 0-89 39-89 99S79-25 140-24" id="bt"/><path fill="#1071e5" d="M115-194c53 0 69 39 70 98 0 66-23 100-70 100C84 3 66-7 56-30L54 0H23l1-261h32v101c10-23 28-34 59-34zm-8 174c40 0 45-34 45-75 0-40-5-75-45-74-42 0-51 32-51 76 0 43 10 73 51 73" id="bu"/><path fill="#1071e5" d="M24-231v-30h32v30H24zM-9 49c24 4 33-6 33-30v-209h32V24c2 40-23 58-65 49V49" id="bv"/><path fill="#1071e5" d="M59-47c-2 24 18 29 38 22v24C64 9 27 4 27-40v-127H5v-23h24l9-43h21v43h35v23H59v120" id="bw"/><g id="z"><use transform="matrix(0.05,0,0,0.05,0,0)" xlink:href="#bt"/><use transform="matrix(0.05,0,0,0.05,14,0)" xlink:href="#bu"/><use transform="matrix(0.05,0,0,0.05,24,0)" xlink:href="#bv"/><use transform="matrix(0.05,0,0,0.05,27.950000000000003,0)" xlink:href="#Y"/><use transform="matrix(0.05,0,0,0.05,37.95,0)" xlink:href="#ag"/><use transform="matrix(0.05,0,0,0.05,46.95,0)" xlink:href="#bw"/></g><path fill="#1071e5" d="M127-220V0H93v-220H8v-28h204v28h-85" id="bx"/><path fill="#1071e5" d="M179-190L93 31C79 59 56 82 12 73V49c39 6 53-20 64-50L1-190h34L92-34l54-156h33" id="by"/><path fill="#1071e5" d="M135-143c-3-34-86-38-87 0 15 53 115 12 119 90S17 21 10-45l28-5c4 36 97 45 98 0-10-56-113-15-118-90-4-57 82-63 122-42 12 7 21 19 24 35" id="bz"/><g id="A"><use transform="matrix(0.05,0,0,0.05,0,0)" xlink:href="#bx"/><use transform="matrix(0.05,0,0,0.05,9.950000000000001,0)" xlink:href="#by"/><use transform="matrix(0.05,0,0,0.05,18.950000000000003,0)" xlink:href="#ad"/><use transform="matrix(0.05,0,0,0.05,28.950000000000003,0)" xlink:href="#Y"/><use transform="matrix(0.05,0,0,0.05,38.95,0)" xlink:href="#bz"/></g><path fill="#1071e5" d="M16-82v-28h88v28H16" id="bA"/><use transform="matrix(0.05,0,0,0.05,0,0)" xlink:href="#bA" id="B"/><path fill="#1071e5" d="M33 0v-248h34V0H33" id="bB"/><path fill="#1071e5" d="M117-194c89-4 53 116 60 194h-32v-121c0-31-8-49-39-48C34-167 62-67 57 0H25l-1-190h30c1 10-1 24 2 32 11-22 29-35 61-36" id="bC"/><path fill="#1071e5" d="M85-194c31 0 48 13 60 33l-1-100h32l1 261h-30c-2-10 0-23-3-31C134-8 116 4 85 4 32 4 16-35 15-94c0-66 23-100 70-100zm9 24c-40 0-46 34-46 75 0 40 6 74 45 74 42 0 51-32 51-76 0-42-9-74-50-73" id="bD"/><g id="C"><use transform="matrix(0.05,0,0,0.05,0,0)" xlink:href="#bB"/><use transform="matrix(0.05,0,0,0.05,5,0)" xlink:href="#bz"/><use transform="matrix(0.05,0,0,0.05,14,0)" xlink:href="#ah"/><use transform="matrix(0.05,0,0,0.05,17.95,0)" xlink:href="#ac"/><use transform="matrix(0.05,0,0,0.05,27.950000000000003,0)" xlink:href="#bC"/><use transform="matrix(0.05,0,0,0.05,37.95,0)" xlink:href="#bD"/></g><path fill="#1071e5" d="M195 0l-74-108L45 0H8l94-129-87-119h37l69 98 67-98h37l-84 118L233 0h-38" id="bE"/><use transform="matrix(0.05,0,0,0.05,0,0)" xlink:href="#bE" id="D"/><path fill="#e81313" d="M63-220v92h138v28H63V0H30v-248h175v28H63" id="bF"/><g id="E"><use transform="matrix(0.05,0,0,0.05,0,0)" xlink:href="#aK"/><use transform="matrix(0.05,0,0,0.05,6.3500000000000005,0)" xlink:href="#bF"/><use transform="matrix(0.05,0,0,0.05,17.3,0)" xlink:href="#aP"/><use transform="matrix(0.05,0,0,0.05,23.25,0)" xlink:href="#aO"/><use transform="matrix(0.05,0,0,0.05,33.25,0)" xlink:href="#aS"/><use transform="matrix(0.05,0,0,0.05,42.25,0)" xlink:href="#ba"/><use transform="matrix(0.05,0,0,0.05,52.25,0)" xlink:href="#aP"/></g><path fill="#e81313" d="M33 0v-248h34V0H33" id="bG"/><path fill="#e81313" d="M24 0v-261h32V0H24" id="bH"/><g id="F"><use transform="matrix(0.05,0,0,0.05,0,0)" xlink:href="#bG"/><use transform="matrix(0.05,0,0,0.05,5,0)" xlink:href="#aS"/><use transform="matrix(0.05,0,0,0.05,14,0)" xlink:href="#bH"/><use transform="matrix(0.05,0,0,0.05,17.95,0)" xlink:href="#aO"/><use transform="matrix(0.05,0,0,0.05,27.950000000000003,0)" xlink:href="#aY"/><use transform="matrix(0.05,0,0,0.05,37.95,0)" xlink:href="#aZ"/><use transform="matrix(0.05,0,0,0.05,47.95,0)" xlink:href="#aK"/></g><path fill="#1071e5" d="M63-220v92h138v28H63V0H30v-248h175v28H63" id="bI"/><g id="G"><use transform="matrix(0.05,0,0,0.05,0,0)" xlink:href="#bb"/><use transform="matrix(0.05,0,0,0.05,6.3500000000000005,0)" xlink:href="#bI"/><use transform="matrix(0.05,0,0,0.05,17.3,0)" xlink:href="#ab"/><use transform="matrix(0.05,0,0,0.05,23.25,0)" xlink:href="#ac"/><use transform="matrix(0.05,0,0,0.05,33.25,0)" xlink:href="#bz"/><use transform="matrix(0.05,0,0,0.05,42.25,0)" xlink:href="#Y"/><use transform="matrix(0.05,0,0,0.05,52.25,0)" xlink:href="#ab"/></g><path fill="#1071e5" d="M185-189c-5-48-123-54-124 2 14 75 158 14 163 119 3 78-121 87-175 55-17-10-28-26-33-46l33-7c5 56 141 63 141-1 0-78-155-14-162-118-5-82 145-84 179-34 5 7 8 16 11 25" id="bJ"/><g id="H"><use transform="matrix(0.05,0,0,0.05,0,0)" xlink:href="#bB"/><use transform="matrix(0.05,0,0,0.05,5,0)" xlink:href="#bJ"/><use transform="matrix(0.05,0,0,0.05,17,0)" xlink:href="#ah"/><use transform="matrix(0.05,0,0,0.05,20.95,0)" xlink:href="#ac"/><use transform="matrix(0.05,0,0,0.05,30.950000000000003,0)" xlink:href="#bC"/><use transform="matrix(0.05,0,0,0.05,40.95,0)" xlink:href="#bD"/><use transform="matrix(0.05,0,0,0.05,50.95,0)" xlink:href="#bb"/></g><path fill="#1071e5" d="M9 0v-24l116-142H16v-24h144v24L44-24h123V0H9" id="bK"/><g id="I"><use transform="matrix(0.05,0,0,0.05,0,0)" xlink:href="#X"/><use transform="matrix(0.05,0,0,0.05,14,0)" xlink:href="#ac"/><use transform="matrix(0.05,0,0,0.05,24,0)" xlink:href="#bK"/><use transform="matrix(0.05,0,0,0.05,33,0)" xlink:href="#Y"/><use transform="matrix(0.05,0,0,0.05,43,0)" xlink:href="#bw"/><use transform="matrix(0.05,0,0,0.05,48,0)" xlink:href="#bw"/><use transform="matrix(0.05,0,0,0.05,53,0)" xlink:href="#Y"/><use transform="matrix(0.05,0,0,0.05,63,0)" xlink:href="#bD"/></g><path fill="#333" d="M106-169C34-169 62-67 57 0H25v-261h32l-1 103c12-21 28-36 61-36 89 0 53 116 60 194h-32v-121c2-32-8-49-39-48" id="bL"/><g id="J"><use transform="matrix(0.04938271604938272,0,0,0.04938271604938272,0,0)" xlink:href="#bL"/><use transform="matrix(0.04938271604938272,0,0,0.04938271604938272,9.876543209876544,0)" xlink:href="#aA"/><use transform="matrix(0.04938271604938272,0,0,0.04938271604938272,19.75308641975309,0)" xlink:href="#bp"/></g><g id="K"><use transform="matrix(0.04938271604938272,0,0,0.04938271604938272,0,0)" xlink:href="#aD"/><use transform="matrix(0.04938271604938272,0,0,0.04938271604938272,4.938271604938272,0)" xlink:href="#aC"/><use transform="matrix(0.04938271604938272,0,0,0.04938271604938272,8.839506172839506,0)" xlink:href="#bq"/><use transform="matrix(0.04938271604938272,0,0,0.04938271604938272,23.60493827160494,0)" xlink:href="#aJ"/></g><path fill="#1071e5" d="M26 75v-336h71v23H56V52h41v23H26" id="bM"/><use transform="matrix(0.05,0,0,0.05,0,0)" xlink:href="#bM" id="L"/><path fill="#1071e5" d="M3 75V52h41v-290H3v-23h71V75H3" id="bN"/><use transform="matrix(0.05,0,0,0.05,0,0)" xlink:href="#bN" id="M"/><path fill="#333" d="M115-194c53 0 69 39 70 98 0 66-23 100-70 100C84 3 66-7 56-30L54 0H23l1-261h32v101c10-23 28-34 59-34zm-8 174c40 0 45-34 45-75 0-40-5-75-45-74-42 0-51 32-51 76 0 43 10 73 51 73" id="bO"/><path fill="#333" d="M177-190C167-65 218 103 67 71c-23-6-38-20-44-43l32-5c15 47 100 32 89-28v-30C133-14 115 1 83 1 29 1 15-40 15-95c0-56 16-97 71-98 29-1 48 16 59 35 1-10 0-23 2-32h30zM94-22c36 0 50-32 50-73 0-42-14-75-50-75-39 0-46 34-46 75s6 73 46 73" id="bP"/><g id="N"><use transform="matrix(0.04938271604938272,0,0,0.04938271604938272,0,0)" xlink:href="#bO"/><use transform="matrix(0.04938271604938272,0,0,0.04938271604938272,9.876543209876544,0)" xlink:href="#aJ"/><use transform="matrix(0.04938271604938272,0,0,0.04938271604938272,19.75308641975309,0)" xlink:href="#bP"/><use transform="matrix(0.04938271604938272,0,0,0.04938271604938272,29.629629629629633,0)" xlink:href="#aC"/><use transform="matrix(0.04938271604938272,0,0,0.04938271604938272,33.53086419753087,0)" xlink:href="#aF"/><use transform="matrix(0.04938271604938272,0,0,0.04938271604938272,43.40740740740741,0)" xlink:href="#aF"/><use transform="matrix(0.04938271604938272,0,0,0.04938271604938272,53.283950617283956,0)" xlink:href="#aC"/><use transform="matrix(0.04938271604938272,0,0,0.04938271604938272,57.18518518518519,0)" xlink:href="#aF"/><use transform="matrix(0.04938271604938272,0,0,0.04938271604938272,67.06172839506173,0)" xlink:href="#bP"/></g><g id="O"><use transform="matrix(0.04938271604938272,0,0,0.04938271604938272,0,0)" xlink:href="#aC"/><use transform="matrix(0.04938271604938272,0,0,0.04938271604938272,3.901234567901235,0)" xlink:href="#aF"/></g><path fill="#333" d="M195 0l-74-108L45 0H8l94-129-87-119h37l69 98 67-98h37l-84 118L233 0h-38" id="bQ"/><path fill="#333" d="M185-189c-5-48-123-54-124 2 14 75 158 14 163 119 3 78-121 87-175 55-17-10-28-26-33-46l33-7c5 56 141 63 141-1 0-78-155-14-162-118-5-82 145-84 179-34 5 7 8 16 11 25" id="bR"/><path fill="#333" d="M30-248c118-7 216 8 213 122C240-48 200 0 122 0H30v-248zM63-27c89 8 146-16 146-99s-60-101-146-95v194" id="bS"/><g id="P"><use transform="matrix(0.04938271604938272,0,0,0.04938271604938272,0,0)" xlink:href="#bQ"/><use transform="matrix(0.04938271604938272,0,0,0.04938271604938272,11.851851851851853,0)" xlink:href="#bR"/><use transform="matrix(0.04938271604938272,0,0,0.04938271604938272,23.703703703703706,0)" xlink:href="#bS"/></g><g id="Q"><use transform="matrix(0.04938271604938272,0,0,0.04938271604938272,0,0)" xlink:href="#aB"/><use transform="matrix(0.04938271604938272,0,0,0.04938271604938272,9.876543209876544,0)" xlink:href="#aA"/><use transform="matrix(0.04938271604938272,0,0,0.04938271604938272,19.75308641975309,0)" xlink:href="#aD"/><use transform="matrix(0.04938271604938272,0,0,0.04938271604938272,24.69135802469136,0)" xlink:href="#aJ"/></g><path fill="#1071e5" d="M27 0v-27h64v-190l-56 39v-29l58-41h29v221h61V0H27" id="bT"/><path fill="#1071e5" d="M134-131c28 9 52 24 51 62-1 50-34 73-85 73S17-19 16-69c0-36 21-54 49-61-75-25-45-126 34-121 46 3 78 18 79 63 0 33-17 51-44 57zm-34-11c31 1 46-15 46-44 0-28-17-43-47-42-29 0-46 13-45 42 1 28 16 44 46 44zm1 122c35 0 51-18 51-52 0-30-18-46-53-46-33 0-51 17-51 47 0 34 19 51 53 51" id="bU"/><path fill="#1071e5" d="M155-56V0h-30v-56H8v-25l114-167h33v167h35v25h-35zm-30-156c-27 46-58 90-88 131h88v-131" id="bV"/><path fill="#1071e5" d="M101-251c82-7 93 87 43 132L82-64C71-53 59-42 53-27h129V0H18c2-99 128-94 128-182 0-28-16-43-45-43s-46 15-49 41l-32-3c6-41 34-60 81-64" id="bW"/><path fill="#1071e5" d="M101-251c68 0 85 55 85 127S166 4 100 4C33 4 14-52 14-124c0-73 17-127 87-127zm-1 229c47 0 54-49 54-102s-4-102-53-102c-51 0-55 48-55 102 0 53 5 102 54 102" id="bX"/><path fill="#1071e5" d="M54-142c48-35 137-8 131 61C196 18 31 33 14-55l32-4c7 23 22 37 52 37 35-1 51-22 54-58 4-55-73-65-99-34H22l8-134h141v27H59" id="bY"/><g id="R"><use transform="matrix(0.05,0,0,0.05,0,0)" xlink:href="#bb"/><use transform="matrix(0.05,0,0,0.05,6.3500000000000005,0)" xlink:href="#bT"/><use transform="matrix(0.05,0,0,0.05,16.35,0)" xlink:href="#bU"/><use transform="matrix(0.05,0,0,0.05,26.35,0)" xlink:href="#bV"/><use transform="matrix(0.05,0,0,0.05,36.35,0)" xlink:href="#bW"/><use transform="matrix(0.05,0,0,0.05,46.35,0)" xlink:href="#bA"/><use transform="matrix(0.05,0,0,0.05,52.300000000000004,0)" xlink:href="#bX"/><use transform="matrix(0.05,0,0,0.05,62.300000000000004,0)" xlink:href="#bY"/><use transform="matrix(0.05,0,0,0.05,72.30000000000001,0)" xlink:href="#bA"/><use transform="matrix(0.05,0,0,0.05,78.25000000000001,0)" xlink:href="#bT"/><use transform="matrix(0.05,0,0,0.05,88.25000000000001,0)" xlink:href="#bX"/><use transform="matrix(0.05,0,0,0.05,98.25000000000001,0)" xlink:href="#bb"/></g><path fill="#1071e5" d="M126-127c33 6 58 20 58 59 0 88-139 92-164 29-3-8-5-16-6-25l32-3c6 27 21 44 54 44 32 0 52-15 52-46 0-38-36-46-79-43v-28c39 1 72-4 72-42 0-27-17-43-46-43-28 0-47 15-49 41l-32-3c6-42 35-63 81-64 48-1 79 21 79 65 0 36-21 52-52 59" id="bZ"/><path fill="#1071e5" d="M110-160c48 1 74 30 74 79 0 53-28 85-80 85-65 0-83-55-86-122-5-90 50-162 133-122 14 7 22 21 27 39l-31 6c-5-40-67-38-82-6-9 19-15 44-15 74 11-20 30-34 60-33zm-7 138c34 0 49-23 49-58s-16-56-50-56c-29 0-50 16-49 49 1 36 15 65 50 65" id="ca"/><path fill="#1071e5" d="M64 0c3-98 48-159 88-221H18v-27h164v26C143-157 98-101 97 0H64" id="cb"/><g id="S"><use transform="matrix(0.05,0,0,0.05,0,0)" xlink:href="#bb"/><use transform="matrix(0.05,0,0,0.05,6.3500000000000005,0)" xlink:href="#bW"/><use transform="matrix(0.05,0,0,0.05,16.35,0)" xlink:href="#bX"/><use transform="matrix(0.05,0,0,0.05,26.35,0)" xlink:href="#bW"/><use transform="matrix(0.05,0,0,0.05,36.35,0)" xlink:href="#bZ"/><use transform="matrix(0.05,0,0,0.05,46.35,0)" xlink:href="#bA"/><use transform="matrix(0.05,0,0,0.05,52.300000000000004,0)" xlink:href="#bX"/><use transform="matrix(0.05,0,0,0.05,62.300000000000004,0)" xlink:href="#ca"/><use transform="matrix(0.05,0,0,0.05,72.30000000000001,0)" xlink:href="#bA"/><use transform="matrix(0.05,0,0,0.05,78.25000000000001,0)" xlink:href="#bX"/><use transform="matrix(0.05,0,0,0.05,88.25000000000001,0)" xlink:href="#cb"/><use transform="matrix(0.05,0,0,0.05,98.25000000000001,0)" xlink:href="#bb"/></g><g id="T"><use transform="matrix(0.04938271604938272,0,0,0.04938271604938272,0,0)" xlink:href="#aJ"/><use transform="matrix(0.04938271604938272,0,0,0.04938271604938272,9.876543209876544,0)" xlink:href="#aF"/><use transform="matrix(0.04938271604938272,0,0,0.04938271604938272,19.75308641975309,0)" xlink:href="#aB"/></g><path fill="#333" d="M96-169c-40 0-48 33-48 73s9 75 48 75c24 0 41-14 43-38l32 2c-6 37-31 61-74 61-59 0-76-41-82-99-10-93 101-131 147-64 4 7 5 14 7 22l-32 3c-4-21-16-35-41-35" id="cc"/><g id="U"><use transform="matrix(0.04938271604938272,0,0,0.04938271604938272,0,0)" xlink:href="#aG"/><use transform="matrix(0.04938271604938272,0,0,0.04938271604938272,3.901234567901235,0)" xlink:href="#aC"/><use transform="matrix(0.04938271604938272,0,0,0.04938271604938272,7.80246913580247,0)" xlink:href="#br"/><use transform="matrix(0.04938271604938272,0,0,0.04938271604938272,12.740740740740742,0)" xlink:href="#aJ"/><use transform="matrix(0.04938271604938272,0,0,0.04938271604938272,22.617283950617285,0)" xlink:href="#cc"/><use transform="matrix(0.04938271604938272,0,0,0.04938271604938272,31.506172839506174,0)" xlink:href="#aH"/><use transform="matrix(0.04938271604938272,0,0,0.04938271604938272,40.39506172839506,0)" xlink:href="#cc"/><use transform="matrix(0.04938271604938272,0,0,0.04938271604938272,49.28395061728395,0)" xlink:href="#aG"/><use transform="matrix(0.04938271604938272,0,0,0.04938271604938272,53.185185185185176,0)" xlink:href="#aJ"/></g><g id="V"><use transform="matrix(0.04938271604938272,0,0,0.04938271604938272,0,0)" xlink:href="#bp"/><use transform="matrix(0.04938271604938272,0,0,0.04938271604938272,8.88888888888889,0)" xlink:href="#aD"/><use transform="matrix(0.04938271604938272,0,0,0.04938271604938272,13.827160493827162,0)" xlink:href="#aA"/><use transform="matrix(0.04938271604938272,0,0,0.04938271604938272,23.703703703703706,0)" xlink:href="#bP"/><use transform="matrix(0.04938271604938272,0,0,0.04938271604938272,33.580246913580254,0)" xlink:href="#aJ"/></g><path fill="#1071e5" d="M197 0v-115H63V0H30v-248h33v105h134v-105h34V0h-34" id="cd"/><g id="W"><use transform="matrix(0.05,0,0,0.05,0,0)" xlink:href="#cd"/><use transform="matrix(0.05,0,0,0.05,12.950000000000001,0)" xlink:href="#af"/><use transform="matrix(0.05,0,0,0.05,16.900000000000002,0)" xlink:href="#bz"/><use transform="matrix(0.05,0,0,0.05,25.900000000000002,0)" xlink:href="#bw"/><use transform="matrix(0.05,0,0,0.05,30.900000000000002,0)" xlink:href="#Z"/><use transform="matrix(0.05,0,0,0.05,40.900000000000006,0)" xlink:href="#ab"/><use transform="matrix(0.05,0,0,0.05,46.85000000000001,0)" xlink:href="#af"/><use transform="matrix(0.05,0,0,0.05,50.80000000000001,0)" xlink:href="#ag"/><use transform="matrix(0.05,0,0,0.05,59.80000000000001,0)" xlink:href="#ac"/><use transform="matrix(0.05,0,0,0.05,69.80000000000001,0)" xlink:href="#ah"/></g></defs></g></svg>