<svg xmlns="http://www.w3.org/2000/svg" xmlns:xlink="http://www.w3.org/1999/xlink" xmlns:lucid="lucid" width="894.45" height="576.93"><g transform="translate(493.3334568393884 -201.89406168253498)" lucid:page-tab-id="0_0"><path d="M-500 0H500v1000H-500z" fill="#fff"/><path d="M-473.33 227.9a6 6 0 0 1 6-6H65.8a6 6 0 0 1 6 6v440.57a6 6 0 0 1-6 6h-533.13a6 6 0 0 1-6-6z" fill="#ffeca9"/><path d="M-452.52 221.9h5.92m11.85 0h5.92m11.85 0h5.92m11.85 0h5.9m11.86 0h5.93m11.83 0h5.93m11.84 0h5.93m11.85 0h5.92m11.85 0h5.92m11.85 0h5.92m11.85 0h5.9m11.86 0h5.92m11.85 0h5.92m11.85 0h5.93m11.84 0h5.93m11.84 0h5.93m11.85 0h5.92m11.85 0h5.9m11.86 0h5.92m11.85 0h5.92m11.85 0h5.92m11.85 0h5.93m11.84 0h5.93m11.84 0h5.94m11.84 0h5.93m11.86 0h5.92m11.85 0h5.92m11.85 0h5.92m11.85 0H51m11.84 0h2.96l.94.07.92.22.87.35.8.5.72.6.6.72.5.8.36.87.23.92.07.93v3.05m0 12.24v6.1m0 12.25v6.12m0 12.24v6.13m0 12.23v6.12m0 12.24v6.12m0 12.24v6.12m0 12.24v6.12m0 12.23v6.1m0 12.25v6.12m0 12.24v6.13m0 12.24v6.12m0 12.22v6.12m0 12.24v6.12m0 12.24v6.12m0 12.24v6.12m0 12.23v6.12m0 12.24v6.13m0 12.24v6.12m0 12.23v6.12m0 12.23v6.12m0 12.24v6.12m0 12.24v6.12m0 12.24v6.12m0 12.23v3.07l-.07.94-.22.93-.35.87-.5.8-.6.72-.72.6-.8.5-.87.36-.92.22-.94.07h-2.96m-11.85 0h-5.93m-11.85 0H27.3m-11.85 0H9.53m-11.85 0h-5.92m-11.85 0H-26m-11.86 0h-5.93m-11.83 0h-5.93m-11.84 0h-5.93m-11.85 0h-5.92m-11.85 0h-5.92m-11.85 0h-5.92m-11.85 0h-5.9m-11.86 0h-5.92m-11.85 0h-5.93m-11.84 0h-5.93m-11.84 0h-5.93m-11.85 0h-5.92m-11.85 0h-5.92m-11.85 0h-5.9m-11.86 0h-5.92m-11.85 0h-5.92m-11.85 0h-5.93m-11.84 0h-5.93m-11.84 0h-5.93m-11.84 0h-5.94m-11.85 0h-5.9m-11.86 0h-5.92m-11.85 0h-5.92m-11.85 0h-5.92m-11.85 0h-2.96l-.94-.07-.92-.22-.86-.36-.8-.5-.72-.6-.6-.72-.5-.8-.36-.87-.22-.92-.07-.93v-3.06m0-12.23v-6.1m0-12.25v-6.12m0-12.24v-6.12m0-12.24v-6.12m0-12.24v-6.1m0-12.25v-6.13m0-12.24v-6.12m0-12.23v-6.12m0-12.23v-6.12m0-12.24v-6.12m0-12.24v-6.12m0-12.24v-6.12m0-12.23v-6.13m0-12.24v-6.12m0-12.23v-6.12m0-12.24v-6.1m0-12.24v-6.12m0-12.24v-6.12m0-12.24v-6.12m0-12.24v-6.12m0-12.23v-6.12m0-12.23v-6.12m0-12.24v-6.1m0-12.25v-3.06l.07-.94.22-.92.36-.87.5-.8.6-.72.72-.6.8-.5.87-.36.93-.23.94-.08h2.96" stroke="#5e5e5e" stroke-width="3" fill="none"/><use xlink:href="#a" transform="matrix(1,0,0,1,-468.3334568393884,226.89406168253498) translate(229.820987654321 17.77777777777778)"/><path d="M-121.4 519.45a5 5 0 0 1 5-5h150a5 5 0 0 1 5 5v110a5 5 0 0 1-5 5h-150a5 5 0 0 1-5-5z" stroke="#000" stroke-width="2" fill="#ced4db"/><use xlink:href="#b" transform="matrix(1,0,0,1,-109.40361751038859,526.4447863440333) translate(24.049999999999997 41.4)"/><use xlink:href="#c" transform="matrix(1,0,0,1,-109.40361751038859,526.4447863440333) translate(44.05 63)"/><path d="M-121.4 275.38a5 5 0 0 1 5-5h150a5 5 0 0 1 5 5v110a5 5 0 0 1-5 5h-150a5 5 0 0 1-5-5z" stroke="#000" stroke-width="2" fill="#fff"/><use xlink:href="#d" transform="matrix(1,0,0,1,-109.40361751038859,282.3813204754153) translate(14.574999999999996 41.4)"/><use xlink:href="#c" transform="matrix(1,0,0,1,-109.40361751038859,282.3813204754153) translate(44.05 63)"/><path d="M-41.4 392.38v102.57" stroke="#3a414a" stroke-width="2" fill="none"/><path d="M-40.4 392.4h-2v-1.02h2z" stroke="#3a414a" stroke-width=".05" fill="#3a414a"/><path d="M-41.4 510.2l-4.64-14.26h9.27z" stroke="#3a414a" stroke-width="2" fill="#fff"/><path d="M-439.27 519.45a5 5 0 0 1 5-5h150a5 5 0 0 1 5 5v110a5 5 0 0 1-5 5h-150a5 5 0 0 1-5-5z" stroke="#000" stroke-width="2" fill="#fff"/><use xlink:href="#d" transform="matrix(1,0,0,1,-427.2724358987276,526.4447863440333) translate(14.574999999999996 41.4)"/><use xlink:href="#e" transform="matrix(1,0,0,1,-427.2724358987276,526.4447863440333) translate(18.074999999999996 63)"/><use xlink:href="#c" transform="matrix(1,0,0,1,-427.2724358987276,526.4447863440333) translate(70.025 63)"/><path d="M-210.96 575.45h-65.5v-2h65.5zm87.56 0h-11.65v-2h11.65z" stroke="#3a414a" stroke-width=".05" fill="#3a414a"/><path d="M-258.58 565.13l-15.76 9.32 15.76 9.3-1.02 1.74-18.67-11.05 18.67-11.05z" stroke="#3a414a" stroke-width=".05" fill="#3a414a"/><path d="M-122.4 575.45h-1.03v-2h1.03z" fill="#3a414a"/><path d="M-122.38 575.47h-1.07v-2.05h1.07zm-1.02-2v1.95h.97v-1.95z" stroke="#3a414a" stroke-width=".05" fill="#3a414a"/><use xlink:href="#f" transform="matrix(1,0,0,1,-210.95539996375237,553.1114530107) translate(0.005000000000002558 14.222222222222223)"/><use xlink:href="#g" transform="matrix(1,0,0,1,-210.95539996375237,553.1114530107) translate(21.165493827160496 35.55555555555556)"/><g fill="none"><path d="M-449.36 508.08a6 6 0 0 1-6-6V492a6 6 0 0 1 6-6h180.18a6 6 0 0 1 6 6v10.08a6 6 0 0 1-6 6z"/><path d="M-263.18 508.08c0-5.53-4.48-10-10-10h-76.1c-5.52 0-10-4.48-10-10 0 5.52-4.47 10-10 10h-76.08c-5.53 0-10 4.47-10 10" stroke="#979ea8"/></g><path d="M-339.67 416.27l-2.63 4.34-2.42 4.4-2.22 4.48-2.03 4.56-1.84 4.65-1.68 4.77-1.48 4.9-1.3 5.05-1.1 5.22-.92 5.42-.58 4.6-1-.14.6-4.6.9-5.46 1.13-5.27 1.3-5.1 1.5-4.94 1.68-4.8 1.86-4.7 2.05-4.6 2.24-4.52 2.43-4.44 2.65-4.37 1.18-1.78h1.2zm216.77-85.38l-18.73.38-18.58 1.17-17.62 1.85-16.44 2.42-15.17 2.9-13.9 3.25-12.66 3.53-10.95 3.55h-2.94l2.07-.76 11.55-3.76 12.7-3.54 13.94-3.27 15.2-2.9 16.5-2.43 17.65-1.85 18.63-1.17 18.75-.4z" stroke="#979ea8" stroke-width=".05" fill="#979ea8"/><path d="M-122.4 330.88h-.5l-.03-1h.53z" fill="#979ea8"/><path d="M-122.38 330.9l-.55.02-.03-1.05h.58zm-.53-.98l.02.95h.45v-.96z" stroke="#979ea8" stroke-width=".05" fill="#979ea8"/><path d="M-353.75 469.34l-5.43 13.98-3.83-14.5z" fill="#979ea8"/><path d="M-353.04 468.88l-6.23 16.06-4.4-16.66zm-6.05 12.82l4.63-11.9-7.88-.44z" stroke="#979ea8" stroke-width=".05" fill="#979ea8"/><use xlink:href="#h" transform="matrix(1,0,0,1,-435.0815711463269,349.9543151679124) translate(23.190185185185186 14.222222222222223)"/><use xlink:href="#i" transform="matrix(1,0,0,1,-435.0815711463269,349.9543151679124) translate(38.992654320987654 14.222222222222223)"/><use xlink:href="#j" transform="matrix(1,0,0,1,-435.0815711463269,349.9543151679124) translate(149.4617901234568 14.222222222222223)"/><use xlink:href="#k" transform="matrix(1,0,0,1,-435.0815711463269,349.9543151679124) translate(201.70870370370375 14.222222222222223)"/><use xlink:href="#l" transform="matrix(1,0,0,1,-435.0815711463269,349.9543151679124) translate(219.43709876543215 14.222222222222223)"/><use xlink:href="#m" transform="matrix(1,0,0,1,-435.0815711463269,349.9543151679124) translate(0.0049999999999954525 35.55555555555556)"/><use xlink:href="#j" transform="matrix(1,0,0,1,-435.0815711463269,349.9543151679124) translate(91.75808641975308 35.55555555555556)"/><use xlink:href="#n" transform="matrix(1,0,0,1,-435.0815711463269,349.9543151679124) translate(144.005 35.55555555555556)"/><use xlink:href="#o" transform="matrix(1,0,0,1,-435.0815711463269,349.9543151679124) translate(180.44944444444445 35.55555555555556)"/><use xlink:href="#p" transform="matrix(1,0,0,1,-435.0815711463269,349.9543151679124) translate(200.20253086419754 35.55555555555556)"/><use xlink:href="#l" transform="matrix(1,0,0,1,-435.0815711463269,349.9543151679124) translate(242.62228395061732 35.55555555555556)"/><use xlink:href="#q" transform="matrix(1,0,0,1,-435.0815711463269,349.9543151679124) translate(3.955617283950616 56.88888888888889)"/><use xlink:href="#r" transform="matrix(1,0,0,1,-435.0815711463269,349.9543151679124) translate(114.42475308641978 56.88888888888889)"/><use xlink:href="#j" transform="matrix(1,0,0,1,-435.0815711463269,349.9543151679124) translate(165.73339506172846 56.88888888888889)"/><use xlink:href="#s" transform="matrix(1,0,0,1,-435.0815711463269,349.9543151679124) translate(217.98030864197534 56.88888888888889)"/><path d="M221.12 275.38a5 5 0 0 1 5-5h150a5 5 0 0 1 5 5v110a5 5 0 0 1-5 5h-150a5 5 0 0 1-5-5z" stroke="#000" stroke-width="2" fill="#fff"/><use xlink:href="#d" transform="matrix(1,0,0,1,233.11722440607303,282.3813204754153) translate(14.574999999999996 41.4)"/><use xlink:href="#t" transform="matrix(1,0,0,1,233.11722440607303,282.3813204754153) translate(42.025 63)"/><path d="M99.06 331.38H40.6v-2h58.46zm119.24 0h-31.5v-2h31.5z" stroke="#3a414a" stroke-width=".05" fill="#3a414a"/><path d="M220.12 330.38l-18.67 11.04-1.02-1.72 15.76-9.32-15.77-9.32 1.02-1.72z" stroke="#3a414a" stroke-width=".05" fill="#3a414a"/><path d="M40.62 331.38H39.6v-2h1.02z" fill="#3a414a"/><path d="M40.65 331.4h-1.08v-2.04h1.08zm-1.03-2v1.96h.98v-1.95z" stroke="#3a414a" stroke-width=".05" fill="#3a414a"/><g><use xlink:href="#u" transform="matrix(1,0,0,1,99.05829930709922,319.7146538087486) translate(0.005000000000002558 14.222222222222223)"/><use xlink:href="#v" transform="matrix(1,0,0,1,99.05829930709922,319.7146538087486) translate(17.733395061728398 14.222222222222223)"/><use xlink:href="#w" transform="matrix(1,0,0,1,99.05829930709922,319.7146538087486) translate(67.06672839506174 14.222222222222223)"/></g><path d="M221.12 513.08a5 5 0 0 1 5-5h150a5 5 0 0 1 5 5v110a5 5 0 0 1-5 5h-150a5 5 0 0 1-5-5z" stroke="#000" stroke-width="2" fill="#fff"/><g><use xlink:href="#d" transform="matrix(1,0,0,1,233.11722440607303,520.0763245359134) translate(14.574999999999996 41.4)"/><use xlink:href="#x" transform="matrix(1,0,0,1,233.11722440607303,520.0763245359134) translate(3.0749999999999886 63)"/><use xlink:href="#y" transform="matrix(1,0,0,1,233.11722440607303,520.0763245359134) translate(60.02499999999999 63)"/></g><path d="M302.12 505.26h-2V460.2h2zm0-88.27h-2v-24.62h2z" stroke="#000" stroke-width=".05"/><path d="M302.12 392.4h-2v-1.02h2z"/><path d="M302.14 392.43h-2.05v-1.07h2.04zm-2-1.02v.98h1.95v-.97zM312.16 488.4l-11.04 18.68-11.04-18.67 1.72-1 9.32 15.75 9.32-15.76z" stroke="#000" stroke-width=".05"/><g><use xlink:href="#z" transform="matrix(1,0,0,1,262.692224406073,416.9898603576055) translate(0.005000000000002558 14.4)"/><use xlink:href="#A" transform="matrix(1,0,0,1,262.692224406073,416.9898603576055) translate(8.930000000000007 36)"/><use xlink:href="#B" transform="matrix(1,0,0,1,262.692224406073,416.9898603576055) translate(47.93000000000001 36)"/></g><path d="M-222.6 696.33a6 6 0 0 1 6-6h374.28a6 6 0 0 1 6 6v56.5a6 6 0 0 1-6 6H-216.6a6 6 0 0 1-6-6z" fill="#fff" fill-opacity="0"/><path d="M-206.62 690.33h9.98m5 0h9.97m5 0h9.98m5 0h9.98m5 0h9.97m5 0h9.97m5 0h9.97m4.98 0h9.98m5 0h9.97m5 0h9.97m5 0h9.98m4.98 0h10m4.98 0h9.98m5 0h9.97m4.98 0h9.98m5 0h9.97m5 0h9.97m5 0h9.97m5 0h9.97m5 0h9.97m5 0h9.98m5 0h9.98m5 0h9.97m5 0h9.97m5 0h4.98l.94.07.9.22.88.36.8.5.72.6.6.72.5.8.36.88.22.9.08.95v4.7m0 4.72v9.4m0 4.72v9.4m0 4.72v9.4m0 4.72v4.7l-.08.94-.2.92-.38.87-.5.8-.6.72-.7.6-.82.5-.87.36-.9.22-.95.07h-5m-4.98 0h-9.98m-5 0h-9.97m-5 0h-9.97m-5 0h-9.97m-5 0h-9.97m-5 0h-9.97m-5 0H47.9m-5 0h-9.98m-5 0h-9.97m-5 0H3m-5 0h-9.97m-4.98 0h-9.98m-5 0h-9.98m-4.98 0h-10m-4.98 0h-9.98m-5 0h-9.97m-5 0h-9.97m-5 0h-9.97m-4.98 0h-9.98m-5 0h-9.97m-5 0h-9.97m-5 0h-9.97m-5 0h-9.98m-5 0h-9.97m-5 0h-4.98l-.94-.07-.9-.22-.88-.36-.8-.5-.72-.6-.6-.72-.5-.8-.36-.87-.22-.92-.08-.93v-4.7m0-4.72V734m0-4.72v-9.4m0-4.72v-9.4m0-4.72v-4.7l.08-.95.22-.92.36-.87.5-.8.6-.7.72-.62.8-.5.87-.36.9-.22.95-.07h5" stroke="#000" fill="none"/><g><use xlink:href="#C" transform="matrix(1,0,0,1,-217.59695102702068,695.3301837238433) translate(3.0679012345678984 21.59722222222222)"/><use xlink:href="#D" transform="matrix(1,0,0,1,-217.59695102702068,695.3301837238433) translate(68.2037037037037 21.59722222222222)"/><use xlink:href="#n" transform="matrix(1,0,0,1,-217.59695102702068,695.3301837238433) translate(127.41358024691357 21.59722222222222)"/><use xlink:href="#i" transform="matrix(1,0,0,1,-217.59695102702068,695.3301837238433) translate(163.85802469135803 21.59722222222222)"/><use xlink:href="#E" transform="matrix(1,0,0,1,-217.59695102702068,695.3301837238433) translate(274.3271604938272 21.59722222222222)"/><use xlink:href="#F" transform="matrix(1,0,0,1,-217.59695102702068,695.3301837238433) translate(335.462962962963 21.59722222222222)"/><use xlink:href="#G" transform="matrix(1,0,0,1,-217.59695102702068,695.3301837238433) translate(2.030864197530832 42.93055555555556)"/><use xlink:href="#H" transform="matrix(1,0,0,1,-217.59695102702068,695.3301837238433) translate(45.48765432098762 42.93055555555556)"/><use xlink:href="#i" transform="matrix(1,0,0,1,-217.59695102702068,695.3301837238433) translate(60.30246913580244 42.93055555555556)"/><use xlink:href="#I" transform="matrix(1,0,0,1,-217.59695102702068,695.3301837238433) translate(170.7716049382716 42.93055555555556)"/><use xlink:href="#J" transform="matrix(1,0,0,1,-217.59695102702068,695.3301837238433) translate(227.0185185185185 42.93055555555556)"/><use xlink:href="#K" transform="matrix(1,0,0,1,-217.59695102702068,695.3301837238433) translate(303.9567901234568 42.93055555555556)"/></g><path d="M154.36 689.7l3.12-3.95m3.12-3.95l6.23-7.9m3.12-3.93l6.23-7.9m3.1-3.95l6.25-7.9m3.1-3.94l6.25-7.9m3.1-3.94l6.25-7.9m3.1-3.94l6.24-7.9m3.12-3.94l3.1-3.94" stroke="#3a414a" fill="none"/><path d="M154.55 689.83h-.93l.36-.45zM220.12 607.08l-.7-.56.7-.9z" stroke="#3a414a" stroke-width=".05" fill="#3a414a"/><defs><path fill="#333" d="M190 0L58-211 59 0H30v-248h39L202-35l-2-213h31V0h-41" id="L"/><path fill="#333" d="M141-36C126-15 110 5 73 4 37 3 15-17 15-53c-1-64 63-63 125-63 3-35-9-54-41-54-24 1-41 7-42 31l-33-3c5-37 33-52 76-52 45 0 72 20 72 64v82c-1 20 7 32 28 27v20c-31 9-61-2-59-35zM48-53c0 20 12 33 32 33 41-3 63-29 60-74-43 2-92-5-92 41" id="M"/><path fill="#333" d="M210-169c-67 3-38 105-44 169h-31v-121c0-29-5-50-35-48C34-165 62-65 56 0H25l-1-190h30c1 10-1 24 2 32 10-44 99-50 107 0 11-21 27-35 58-36 85-2 47 119 55 194h-31v-121c0-29-5-49-35-48" id="N"/><path fill="#333" d="M24-231v-30h32v30H24zM24 0v-190h32V0H24" id="O"/><path fill="#333" d="M117-194c89-4 53 116 60 194h-32v-121c0-31-8-49-39-48C34-167 62-67 57 0H25l-1-190h30c1 10-1 24 2 32 11-22 29-35 61-36" id="P"/><path fill="#333" d="M177-190C167-65 218 103 67 71c-23-6-38-20-44-43l32-5c15 47 100 32 89-28v-30C133-14 115 1 83 1 29 1 15-40 15-95c0-56 16-97 71-98 29-1 48 16 59 35 1-10 0-23 2-32h30zM94-22c36 0 50-32 50-73 0-42-14-75-50-75-39 0-46 34-46 75s6 73 46 73" id="Q"/><g id="a"><use transform="matrix(0.06172839506172839,0,0,0.06172839506172839,0,0)" xlink:href="#L"/><use transform="matrix(0.06172839506172839,0,0,0.06172839506172839,15.987654320987653,0)" xlink:href="#M"/><use transform="matrix(0.06172839506172839,0,0,0.06172839506172839,28.333333333333332,0)" xlink:href="#N"/><use transform="matrix(0.06172839506172839,0,0,0.06172839506172839,46.79012345679012,0)" xlink:href="#O"/><use transform="matrix(0.06172839506172839,0,0,0.06172839506172839,51.666666666666664,0)" xlink:href="#P"/><use transform="matrix(0.06172839506172839,0,0,0.06172839506172839,64.01234567901234,0)" xlink:href="#Q"/></g><path d="M212-179c-10-28-35-45-73-45-59 0-87 40-87 99 0 60 29 101 89 101 43 0 62-24 78-52l27 14C228-24 195 4 139 4 59 4 22-46 18-125c-6-104 99-153 187-111 19 9 31 26 39 46" id="R"/><path d="M100-194c62-1 85 37 85 99 1 63-27 99-86 99S16-35 15-95c0-66 28-99 85-99zM99-20c44 1 53-31 53-75 0-43-8-75-51-75s-53 32-53 75 10 74 51 75" id="S"/><path d="M210-169c-67 3-38 105-44 169h-31v-121c0-29-5-50-35-48C34-165 62-65 56 0H25l-1-190h30c1 10-1 24 2 32 10-44 99-50 107 0 11-21 27-35 58-36 85-2 47 119 55 194h-31v-121c0-29-5-49-35-48" id="T"/><path d="M115-194c55 1 70 41 70 98S169 2 115 4C84 4 66-9 55-30l1 105H24l-1-265h31l2 30c10-21 28-34 59-34zm-8 174c40 0 45-34 45-75s-6-73-45-74c-42 0-51 32-51 76 0 43 10 73 51 73" id="U"/><path d="M84 4C-5 8 30-112 23-190h32v120c0 31 7 50 39 49 72-2 45-101 50-169h31l1 190h-30c-1-10 1-25-2-33-11 22-28 36-60 37" id="V"/><path d="M117-194c89-4 53 116 60 194h-32v-121c0-31-8-49-39-48C34-167 62-67 57 0H25l-1-190h30c1 10-1 24 2 32 11-22 29-35 61-36" id="W"/><path d="M85-194c31 0 48 13 60 33l-1-100h32l1 261h-30c-2-10 0-23-3-31C134-8 116 4 85 4 32 4 16-35 15-94c0-66 23-100 70-100zm9 24c-40 0-46 34-46 75 0 40 6 74 45 74 42 0 51-32 51-76 0-42-9-74-50-73" id="X"/><g id="b"><use transform="matrix(0.05,0,0,0.05,0,0)" xlink:href="#R"/><use transform="matrix(0.05,0,0,0.05,12.950000000000001,0)" xlink:href="#S"/><use transform="matrix(0.05,0,0,0.05,22.950000000000003,0)" xlink:href="#T"/><use transform="matrix(0.05,0,0,0.05,37.900000000000006,0)" xlink:href="#U"/><use transform="matrix(0.05,0,0,0.05,47.900000000000006,0)" xlink:href="#S"/><use transform="matrix(0.05,0,0,0.05,57.900000000000006,0)" xlink:href="#V"/><use transform="matrix(0.05,0,0,0.05,67.9,0)" xlink:href="#W"/><use transform="matrix(0.05,0,0,0.05,77.9,0)" xlink:href="#X"/></g><path d="M190 0L58-211 59 0H30v-248h39L202-35l-2-213h31V0h-41" id="Y"/><path d="M141-36C126-15 110 5 73 4 37 3 15-17 15-53c-1-64 63-63 125-63 3-35-9-54-41-54-24 1-41 7-42 31l-33-3c5-37 33-52 76-52 45 0 72 20 72 64v82c-1 20 7 32 28 27v20c-31 9-61-2-59-35zM48-53c0 20 12 33 32 33 41-3 63-29 60-74-43 2-92-5-92 41" id="Z"/><path d="M100-194c63 0 86 42 84 106H49c0 40 14 67 53 68 26 1 43-12 49-29l28 8c-11 28-37 45-77 45C44 4 14-33 15-96c1-61 26-98 85-98zm52 81c6-60-76-77-97-28-3 7-6 17-6 28h103" id="aa"/><g id="c"><use transform="matrix(0.05,0,0,0.05,0,0)" xlink:href="#Y"/><use transform="matrix(0.05,0,0,0.05,12.950000000000001,0)" xlink:href="#Z"/><use transform="matrix(0.05,0,0,0.05,22.950000000000003,0)" xlink:href="#T"/><use transform="matrix(0.05,0,0,0.05,37.900000000000006,0)" xlink:href="#aa"/></g><path d="M143 4C61 4 22-44 18-125c-5-107 100-154 193-111 17 8 29 25 37 43l-32 9c-13-25-37-40-76-40-61 0-88 39-88 99 0 61 29 100 91 101 35 0 62-11 79-27v-45h-74v-28h105v86C228-13 192 4 143 4" id="ab"/><path d="M177-190C167-65 218 103 67 71c-23-6-38-20-44-43l32-5c15 47 100 32 89-28v-30C133-14 115 1 83 1 29 1 15-40 15-95c0-56 16-97 71-98 29-1 48 16 59 35 1-10 0-23 2-32h30zM94-22c36 0 50-32 50-73 0-42-14-75-50-75-39 0-46 34-46 75s6 73 46 73" id="ac"/><path d="M114-163C36-179 61-72 57 0H25l-1-190h30c1 12-1 29 2 39 6-27 23-49 58-41v29" id="ad"/><path d="M106-169C34-169 62-67 57 0H25v-261h32l-1 103c12-21 28-36 61-36 89 0 53 116 60 194h-32v-121c2-32-8-49-39-48" id="ae"/><path d="M24-231v-30h32v30H24zM24 0v-190h32V0H24" id="af"/><path d="M96-169c-40 0-48 33-48 73s9 75 48 75c24 0 41-14 43-38l32 2c-6 37-31 61-74 61-59 0-76-41-82-99-10-93 101-131 147-64 4 7 5 14 7 22l-32 3c-4-21-16-35-41-35" id="ag"/><path d="M24 0v-261h32V0H24" id="ah"/><g id="d"><use transform="matrix(0.05,0,0,0.05,0,0)" xlink:href="#ab"/><use transform="matrix(0.05,0,0,0.05,14,0)" xlink:href="#aa"/><use transform="matrix(0.05,0,0,0.05,24,0)" xlink:href="#S"/><use transform="matrix(0.05,0,0,0.05,34,0)" xlink:href="#ac"/><use transform="matrix(0.05,0,0,0.05,44,0)" xlink:href="#ad"/><use transform="matrix(0.05,0,0,0.05,49.95,0)" xlink:href="#Z"/><use transform="matrix(0.05,0,0,0.05,59.95,0)" xlink:href="#U"/><use transform="matrix(0.05,0,0,0.05,69.95,0)" xlink:href="#ae"/><use transform="matrix(0.05,0,0,0.05,79.95,0)" xlink:href="#af"/><use transform="matrix(0.05,0,0,0.05,83.9,0)" xlink:href="#ag"/><use transform="matrix(0.05,0,0,0.05,92.9,0)" xlink:href="#Z"/><use transform="matrix(0.05,0,0,0.05,102.9,0)" xlink:href="#ah"/></g><path d="M108 0H70L1-190h34L89-25l56-165h34" id="ai"/><g id="e"><use transform="matrix(0.05,0,0,0.05,0,0)" xlink:href="#ab"/><use transform="matrix(0.05,0,0,0.05,14,0)" xlink:href="#af"/><use transform="matrix(0.05,0,0,0.05,17.95,0)" xlink:href="#ai"/><use transform="matrix(0.05,0,0,0.05,26.950000000000003,0)" xlink:href="#aa"/><use transform="matrix(0.05,0,0,0.05,36.95,0)" xlink:href="#W"/></g><path fill="#333" d="M85-194c31 0 48 13 60 33l-1-100h32l1 261h-30c-2-10 0-23-3-31C134-8 116 4 85 4 32 4 16-35 15-94c0-66 23-100 70-100zm9 24c-40 0-46 34-46 75 0 40 6 74 45 74 42 0 51-32 51-76 0-42-9-74-50-73" id="aj"/><path fill="#333" d="M59-47c-2 24 18 29 38 22v24C64 9 27 4 27-40v-127H5v-23h24l9-43h21v43h35v23H59v120" id="ak"/><path fill="#333" d="M100-194c62-1 85 37 85 99 1 63-27 99-86 99S16-35 15-95c0-66 28-99 85-99zM99-20c44 1 53-31 53-75 0-43-8-75-51-75s-53 32-53 75 10 74 51 75" id="al"/><path fill="#333" d="M24 0v-261h32V0H24" id="am"/><g id="f"><use transform="matrix(0.04938271604938272,0,0,0.04938271604938272,0,0)" xlink:href="#M"/><use transform="matrix(0.04938271604938272,0,0,0.04938271604938272,9.876543209876544,0)" xlink:href="#aj"/><use transform="matrix(0.04938271604938272,0,0,0.04938271604938272,19.75308641975309,0)" xlink:href="#aj"/><use transform="matrix(0.04938271604938272,0,0,0.04938271604938272,29.629629629629633,0)" xlink:href="#O"/><use transform="matrix(0.04938271604938272,0,0,0.04938271604938272,33.53086419753087,0)" xlink:href="#ak"/><use transform="matrix(0.04938271604938272,0,0,0.04938271604938272,38.46913580246914,0)" xlink:href="#O"/><use transform="matrix(0.04938271604938272,0,0,0.04938271604938272,42.370370370370374,0)" xlink:href="#al"/><use transform="matrix(0.04938271604938272,0,0,0.04938271604938272,52.24691358024692,0)" xlink:href="#P"/><use transform="matrix(0.04938271604938272,0,0,0.04938271604938272,62.12345679012346,0)" xlink:href="#M"/><use transform="matrix(0.04938271604938272,0,0,0.04938271604938272,72,0)" xlink:href="#am"/></g><path fill="#333" d="M179-190L93 31C79 59 56 82 12 73V49c39 6 53-20 64-50L1-190h34L92-34l54-156h33" id="an"/><path fill="#333" d="M115-194c55 1 70 41 70 98S169 2 115 4C84 4 66-9 55-30l1 105H24l-1-265h31l2 30c10-21 28-34 59-34zm-8 174c40 0 45-34 45-75s-6-73-45-74c-42 0-51 32-51 76 0 43 10 73 51 73" id="ao"/><path fill="#333" d="M100-194c63 0 86 42 84 106H49c0 40 14 67 53 68 26 1 43-12 49-29l28 8c-11 28-37 45-77 45C44 4 14-33 15-96c1-61 26-98 85-98zm52 81c6-60-76-77-97-28-3 7-6 17-6 28h103" id="ap"/><g id="g"><use transform="matrix(0.04938271604938272,0,0,0.04938271604938272,0,0)" xlink:href="#ak"/><use transform="matrix(0.04938271604938272,0,0,0.04938271604938272,4.938271604938272,0)" xlink:href="#an"/><use transform="matrix(0.04938271604938272,0,0,0.04938271604938272,13.827160493827162,0)" xlink:href="#ao"/><use transform="matrix(0.04938271604938272,0,0,0.04938271604938272,23.703703703703706,0)" xlink:href="#ap"/></g><path d="M205 0l-28-72H64L36 0H1l101-248h38L239 0h-34zm-38-99l-47-123c-12 45-31 82-46 123h93" id="aq"/><use transform="matrix(0.04938271604938272,0,0,0.04938271604938272,0,0)" xlink:href="#aq" id="h"/><g id="i"><use transform="matrix(0.04938271604938272,0,0,0.04938271604938272,0,0)" xlink:href="#ab"/><use transform="matrix(0.04938271604938272,0,0,0.04938271604938272,13.827160493827162,0)" xlink:href="#aa"/><use transform="matrix(0.04938271604938272,0,0,0.04938271604938272,23.703703703703706,0)" xlink:href="#S"/><use transform="matrix(0.04938271604938272,0,0,0.04938271604938272,33.580246913580254,0)" xlink:href="#ac"/><use transform="matrix(0.04938271604938272,0,0,0.04938271604938272,43.4567901234568,0)" xlink:href="#ad"/><use transform="matrix(0.04938271604938272,0,0,0.04938271604938272,49.33333333333334,0)" xlink:href="#Z"/><use transform="matrix(0.04938271604938272,0,0,0.04938271604938272,59.209876543209894,0)" xlink:href="#U"/><use transform="matrix(0.04938271604938272,0,0,0.04938271604938272,69.08641975308643,0)" xlink:href="#ae"/><use transform="matrix(0.04938271604938272,0,0,0.04938271604938272,78.96296296296298,0)" xlink:href="#af"/><use transform="matrix(0.04938271604938272,0,0,0.04938271604938272,82.86419753086422,0)" xlink:href="#ag"/><use transform="matrix(0.04938271604938272,0,0,0.04938271604938272,91.7530864197531,0)" xlink:href="#Z"/><use transform="matrix(0.04938271604938272,0,0,0.04938271604938272,101.62962962962963,0)" xlink:href="#ah"/></g><g id="j"><use transform="matrix(0.04938271604938272,0,0,0.04938271604938272,0,0)" xlink:href="#Y"/><use transform="matrix(0.04938271604938272,0,0,0.04938271604938272,12.790123456790125,0)" xlink:href="#Z"/><use transform="matrix(0.04938271604938272,0,0,0.04938271604938272,22.66666666666667,0)" xlink:href="#T"/><use transform="matrix(0.04938271604938272,0,0,0.04938271604938272,37.4320987654321,0)" xlink:href="#aa"/></g><path d="M135-143c-3-34-86-38-87 0 15 53 115 12 119 90S17 21 10-45l28-5c4 36 97 45 98 0-10-56-113-15-118-90-4-57 82-63 122-42 12 7 21 19 24 35" id="ar"/><g id="k"><use transform="matrix(0.04938271604938272,0,0,0.04938271604938272,0,0)" xlink:href="#af"/><use transform="matrix(0.04938271604938272,0,0,0.04938271604938272,3.901234567901235,0)" xlink:href="#ar"/></g><use transform="matrix(0.04938271604938272,0,0,0.04938271604938272,0,0)" xlink:href="#Z" id="l"/><g id="m"><use transform="matrix(0.04938271604938272,0,0,0.04938271604938272,0,0)" xlink:href="#R"/><use transform="matrix(0.04938271604938272,0,0,0.04938271604938272,12.790123456790125,0)" xlink:href="#S"/><use transform="matrix(0.04938271604938272,0,0,0.04938271604938272,22.66666666666667,0)" xlink:href="#T"/><use transform="matrix(0.04938271604938272,0,0,0.04938271604938272,37.4320987654321,0)" xlink:href="#U"/><use transform="matrix(0.04938271604938272,0,0,0.04938271604938272,47.308641975308646,0)" xlink:href="#S"/><use transform="matrix(0.04938271604938272,0,0,0.04938271604938272,57.18518518518519,0)" xlink:href="#V"/><use transform="matrix(0.04938271604938272,0,0,0.04938271604938272,67.06172839506173,0)" xlink:href="#W"/><use transform="matrix(0.04938271604938272,0,0,0.04938271604938272,76.93827160493828,0)" xlink:href="#X"/></g><path d="M206 0h-36l-40-164L89 0H53L-1-190h32L70-26l43-164h34l41 164 42-164h31" id="as"/><path d="M59-47c-2 24 18 29 38 22v24C64 9 27 4 27-40v-127H5v-23h24l9-43h21v43h35v23H59v120" id="at"/><g id="n"><use transform="matrix(0.04938271604938272,0,0,0.04938271604938272,0,0)" xlink:href="#as"/><use transform="matrix(0.04938271604938272,0,0,0.04938271604938272,12.790123456790125,0)" xlink:href="#af"/><use transform="matrix(0.04938271604938272,0,0,0.04938271604938272,16.69135802469136,0)" xlink:href="#at"/><use transform="matrix(0.04938271604938272,0,0,0.04938271604938272,21.629629629629633,0)" xlink:href="#ae"/></g><g id="o"><use transform="matrix(0.04938271604938272,0,0,0.04938271604938272,0,0)" xlink:href="#Z"/><use transform="matrix(0.04938271604938272,0,0,0.04938271604938272,9.876543209876544,0)" xlink:href="#at"/></g><g id="p"><use transform="matrix(0.04938271604938272,0,0,0.04938271604938272,0,0)" xlink:href="#ah"/><use transform="matrix(0.04938271604938272,0,0,0.04938271604938272,3.901234567901235,0)" xlink:href="#aa"/><use transform="matrix(0.04938271604938272,0,0,0.04938271604938272,13.777777777777779,0)" xlink:href="#Z"/><use transform="matrix(0.04938271604938272,0,0,0.04938271604938272,23.654320987654323,0)" xlink:href="#ar"/><use transform="matrix(0.04938271604938272,0,0,0.04938271604938272,32.543209876543216,0)" xlink:href="#at"/></g><g id="q"><use transform="matrix(0.04938271604938272,0,0,0.04938271604938272,0,0)" xlink:href="#ab"/><use transform="matrix(0.04938271604938272,0,0,0.04938271604938272,13.827160493827162,0)" xlink:href="#aa"/><use transform="matrix(0.04938271604938272,0,0,0.04938271604938272,23.703703703703706,0)" xlink:href="#S"/><use transform="matrix(0.04938271604938272,0,0,0.04938271604938272,33.580246913580254,0)" xlink:href="#ac"/><use transform="matrix(0.04938271604938272,0,0,0.04938271604938272,43.4567901234568,0)" xlink:href="#ad"/><use transform="matrix(0.04938271604938272,0,0,0.04938271604938272,49.33333333333334,0)" xlink:href="#Z"/><use transform="matrix(0.04938271604938272,0,0,0.04938271604938272,59.209876543209894,0)" xlink:href="#U"/><use transform="matrix(0.04938271604938272,0,0,0.04938271604938272,69.08641975308643,0)" xlink:href="#ae"/><use transform="matrix(0.04938271604938272,0,0,0.04938271604938272,78.96296296296298,0)" xlink:href="#af"/><use transform="matrix(0.04938271604938272,0,0,0.04938271604938272,82.86419753086422,0)" xlink:href="#ag"/><use transform="matrix(0.04938271604938272,0,0,0.04938271604938272,91.7530864197531,0)" xlink:href="#Z"/><use transform="matrix(0.04938271604938272,0,0,0.04938271604938272,101.62962962962963,0)" xlink:href="#ah"/></g><g id="r"><use transform="matrix(0.04938271604938272,0,0,0.04938271604938272,0,0)" xlink:href="#ab"/><use transform="matrix(0.04938271604938272,0,0,0.04938271604938272,13.827160493827162,0)" xlink:href="#af"/><use transform="matrix(0.04938271604938272,0,0,0.04938271604938272,17.728395061728396,0)" xlink:href="#ai"/><use transform="matrix(0.04938271604938272,0,0,0.04938271604938272,26.617283950617285,0)" xlink:href="#aa"/><use transform="matrix(0.04938271604938272,0,0,0.04938271604938272,36.49382716049383,0)" xlink:href="#W"/></g><g id="s"><use transform="matrix(0.04938271604938272,0,0,0.04938271604938272,0,0)" xlink:href="#U"/><use transform="matrix(0.04938271604938272,0,0,0.04938271604938272,9.876543209876544,0)" xlink:href="#Z"/><use transform="matrix(0.04938271604938272,0,0,0.04938271604938272,19.75308641975309,0)" xlink:href="#ad"/><use transform="matrix(0.04938271604938272,0,0,0.04938271604938272,25.629629629629633,0)" xlink:href="#at"/></g><path d="M140-251c81 0 123 46 123 126C263-46 219 4 140 4 59 4 17-45 17-125s42-126 123-126zm0 227c63 0 89-41 89-101s-29-99-89-99c-61 0-89 39-89 99S79-25 140-24" id="au"/><path d="M115-194c53 0 69 39 70 98 0 66-23 100-70 100C84 3 66-7 56-30L54 0H23l1-261h32v101c10-23 28-34 59-34zm-8 174c40 0 45-34 45-75 0-40-5-75-45-74-42 0-51 32-51 76 0 43 10 73 51 73" id="av"/><path d="M24-231v-30h32v30H24zM-9 49c24 4 33-6 33-30v-209h32V24c2 40-23 58-65 49V49" id="aw"/><g id="t"><use transform="matrix(0.05,0,0,0.05,0,0)" xlink:href="#au"/><use transform="matrix(0.05,0,0,0.05,14,0)" xlink:href="#av"/><use transform="matrix(0.05,0,0,0.05,24,0)" xlink:href="#aw"/><use transform="matrix(0.05,0,0,0.05,27.950000000000003,0)" xlink:href="#aa"/><use transform="matrix(0.05,0,0,0.05,37.95,0)" xlink:href="#ag"/><use transform="matrix(0.05,0,0,0.05,46.95,0)" xlink:href="#at"/></g><path fill="#333" d="M135-143c-3-34-86-38-87 0 15 53 115 12 119 90S17 21 10-45l28-5c4 36 97 45 98 0-10-56-113-15-118-90-4-57 82-63 122-42 12 7 21 19 24 35" id="ax"/><g id="u"><use transform="matrix(0.04938271604938272,0,0,0.04938271604938272,0,0)" xlink:href="#O"/><use transform="matrix(0.04938271604938272,0,0,0.04938271604938272,3.901234567901235,0)" xlink:href="#ax"/></g><g id="v"><use transform="matrix(0.04938271604938272,0,0,0.04938271604938272,0,0)" xlink:href="#P"/><use transform="matrix(0.04938271604938272,0,0,0.04938271604938272,9.876543209876544,0)" xlink:href="#M"/><use transform="matrix(0.04938271604938272,0,0,0.04938271604938272,19.75308641975309,0)" xlink:href="#N"/><use transform="matrix(0.04938271604938272,0,0,0.04938271604938272,34.51851851851852,0)" xlink:href="#ap"/></g><path fill="#333" d="M101-234c-31-9-42 10-38 44h38v23H63V0H32v-167H5v-23h27c-7-52 17-82 69-68v24" id="ay"/><path fill="#333" d="M114-163C36-179 61-72 57 0H25l-1-190h30c1 12-1 29 2 39 6-27 23-49 58-41v29" id="az"/><g id="w"><use transform="matrix(0.04938271604938272,0,0,0.04938271604938272,0,0)" xlink:href="#ay"/><use transform="matrix(0.04938271604938272,0,0,0.04938271604938272,4.938271604938272,0)" xlink:href="#al"/><use transform="matrix(0.04938271604938272,0,0,0.04938271604938272,14.814814814814817,0)" xlink:href="#az"/></g><g id="x"><use transform="matrix(0.05,0,0,0.05,0,0)" xlink:href="#au"/><use transform="matrix(0.05,0,0,0.05,14,0)" xlink:href="#av"/><use transform="matrix(0.05,0,0,0.05,24,0)" xlink:href="#aw"/><use transform="matrix(0.05,0,0,0.05,27.950000000000003,0)" xlink:href="#aa"/><use transform="matrix(0.05,0,0,0.05,37.95,0)" xlink:href="#ag"/><use transform="matrix(0.05,0,0,0.05,46.95,0)" xlink:href="#at"/></g><path d="M179-190L93 31C79 59 56 82 12 73V49c39 6 53-20 64-50L1-190h34L92-34l54-156h33" id="aA"/><g id="y"><use transform="matrix(0.05,0,0,0.05,0,0)" xlink:href="#R"/><use transform="matrix(0.05,0,0,0.05,12.950000000000001,0)" xlink:href="#Z"/><use transform="matrix(0.05,0,0,0.05,22.950000000000003,0)" xlink:href="#at"/><use transform="matrix(0.05,0,0,0.05,27.950000000000003,0)" xlink:href="#aa"/><use transform="matrix(0.05,0,0,0.05,37.95,0)" xlink:href="#ac"/><use transform="matrix(0.05,0,0,0.05,47.95,0)" xlink:href="#S"/><use transform="matrix(0.05,0,0,0.05,57.95,0)" xlink:href="#ad"/><use transform="matrix(0.05,0,0,0.05,63.900000000000006,0)" xlink:href="#aA"/></g><g id="z"><use transform="matrix(0.05,0,0,0.05,0,0)" xlink:href="#Z"/><use transform="matrix(0.05,0,0,0.05,10,0)" xlink:href="#X"/><use transform="matrix(0.05,0,0,0.05,20,0)" xlink:href="#X"/><use transform="matrix(0.05,0,0,0.05,30,0)" xlink:href="#af"/><use transform="matrix(0.05,0,0,0.05,33.95,0)" xlink:href="#at"/><use transform="matrix(0.05,0,0,0.05,38.95,0)" xlink:href="#af"/><use transform="matrix(0.05,0,0,0.05,42.900000000000006,0)" xlink:href="#S"/><use transform="matrix(0.05,0,0,0.05,52.900000000000006,0)" xlink:href="#W"/><use transform="matrix(0.05,0,0,0.05,62.900000000000006,0)" xlink:href="#Z"/><use transform="matrix(0.05,0,0,0.05,72.9,0)" xlink:href="#ah"/></g><g id="A"><use transform="matrix(0.05,0,0,0.05,0,0)" xlink:href="#at"/><use transform="matrix(0.05,0,0,0.05,5,0)" xlink:href="#aA"/><use transform="matrix(0.05,0,0,0.05,14,0)" xlink:href="#U"/><use transform="matrix(0.05,0,0,0.05,24,0)" xlink:href="#aa"/></g><path d="M26 75v-336h71v23H56V52h41v23H26" id="aB"/><path d="M27 0v-27h64v-190l-56 39v-29l58-41h29v221h61V0H27" id="aC"/><path d="M3 75V52h41v-290H3v-23h71V75H3" id="aD"/><g id="B"><use transform="matrix(0.05,0,0,0.05,0,0)" xlink:href="#aB"/><use transform="matrix(0.05,0,0,0.05,5,0)" xlink:href="#aC"/><use transform="matrix(0.05,0,0,0.05,15,0)" xlink:href="#aD"/></g><g id="C"><use transform="matrix(0.04938271604938272,0,0,0.04938271604938272,0,0)" xlink:href="#au"/><use transform="matrix(0.04938271604938272,0,0,0.04938271604938272,13.827160493827162,0)" xlink:href="#av"/><use transform="matrix(0.04938271604938272,0,0,0.04938271604938272,23.703703703703706,0)" xlink:href="#aw"/><use transform="matrix(0.04938271604938272,0,0,0.04938271604938272,27.60493827160494,0)" xlink:href="#aa"/><use transform="matrix(0.04938271604938272,0,0,0.04938271604938272,37.48148148148148,0)" xlink:href="#ag"/><use transform="matrix(0.04938271604938272,0,0,0.04938271604938272,46.37037037037037,0)" xlink:href="#at"/><use transform="matrix(0.04938271604938272,0,0,0.04938271604938272,51.30864197530863,0)" xlink:href="#ar"/></g><g id="D"><use transform="matrix(0.04938271604938272,0,0,0.04938271604938272,0,0)" xlink:href="#W"/><use transform="matrix(0.04938271604938272,0,0,0.04938271604938272,9.876543209876544,0)" xlink:href="#Z"/><use transform="matrix(0.04938271604938272,0,0,0.04938271604938272,19.75308641975309,0)" xlink:href="#T"/><use transform="matrix(0.04938271604938272,0,0,0.04938271604938272,34.51851851851852,0)" xlink:href="#aa"/><use transform="matrix(0.04938271604938272,0,0,0.04938271604938272,44.39506172839506,0)" xlink:href="#X"/></g><g id="E"><use transform="matrix(0.04938271604938272,0,0,0.04938271604938272,0,0)" xlink:href="#Y"/><use transform="matrix(0.04938271604938272,0,0,0.04938271604938272,12.790123456790125,0)" xlink:href="#Z"/><use transform="matrix(0.04938271604938272,0,0,0.04938271604938272,22.66666666666667,0)" xlink:href="#T"/><use transform="matrix(0.04938271604938272,0,0,0.04938271604938272,37.4320987654321,0)" xlink:href="#aa"/><use transform="matrix(0.04938271604938272,0,0,0.04938271604938272,47.308641975308646,0)" xlink:href="#ar"/></g><g id="F"><use transform="matrix(0.04938271604938272,0,0,0.04938271604938272,0,0)" xlink:href="#T"/><use transform="matrix(0.04938271604938272,0,0,0.04938271604938272,14.765432098765434,0)" xlink:href="#V"/><use transform="matrix(0.04938271604938272,0,0,0.04938271604938272,24.641975308641978,0)" xlink:href="#ar"/><use transform="matrix(0.04938271604938272,0,0,0.04938271604938272,33.53086419753087,0)" xlink:href="#at"/></g><g id="G"><use transform="matrix(0.04938271604938272,0,0,0.04938271604938272,0,0)" xlink:href="#ae"/><use transform="matrix(0.04938271604938272,0,0,0.04938271604938272,9.876543209876544,0)" xlink:href="#Z"/><use transform="matrix(0.04938271604938272,0,0,0.04938271604938272,19.75308641975309,0)" xlink:href="#ai"/><use transform="matrix(0.04938271604938272,0,0,0.04938271604938272,28.641975308641978,0)" xlink:href="#aa"/></g><use transform="matrix(0.04938271604938272,0,0,0.04938271604938272,0,0)" xlink:href="#Z" id="H"/><g id="I"><use transform="matrix(0.04938271604938272,0,0,0.04938271604938272,0,0)" xlink:href="#au"/><use transform="matrix(0.04938271604938272,0,0,0.04938271604938272,13.827160493827162,0)" xlink:href="#av"/><use transform="matrix(0.04938271604938272,0,0,0.04938271604938272,23.703703703703706,0)" xlink:href="#aw"/><use transform="matrix(0.04938271604938272,0,0,0.04938271604938272,27.60493827160494,0)" xlink:href="#aa"/><use transform="matrix(0.04938271604938272,0,0,0.04938271604938272,37.48148148148148,0)" xlink:href="#ag"/><use transform="matrix(0.04938271604938272,0,0,0.04938271604938272,46.37037037037037,0)" xlink:href="#at"/></g><g id="J"><use transform="matrix(0.04938271604938272,0,0,0.04938271604938272,0,0)" xlink:href="#R"/><use transform="matrix(0.04938271604938272,0,0,0.04938271604938272,12.790123456790125,0)" xlink:href="#Z"/><use transform="matrix(0.04938271604938272,0,0,0.04938271604938272,22.66666666666667,0)" xlink:href="#at"/><use transform="matrix(0.04938271604938272,0,0,0.04938271604938272,27.604938271604947,0)" xlink:href="#aa"/><use transform="matrix(0.04938271604938272,0,0,0.04938271604938272,37.48148148148149,0)" xlink:href="#ac"/><use transform="matrix(0.04938271604938272,0,0,0.04938271604938272,47.35802469135803,0)" xlink:href="#S"/><use transform="matrix(0.04938271604938272,0,0,0.04938271604938272,57.23456790123457,0)" xlink:href="#ad"/><use transform="matrix(0.04938271604938272,0,0,0.04938271604938272,63.111111111111114,0)" xlink:href="#aA"/></g><g id="K"><use transform="matrix(0.04938271604938272,0,0,0.04938271604938272,0,0)" xlink:href="#af"/><use transform="matrix(0.04938271604938272,0,0,0.04938271604938272,3.901234567901235,0)" xlink:href="#W"/><use transform="matrix(0.04938271604938272,0,0,0.04938271604938272,13.777777777777779,0)" xlink:href="#X"/><use transform="matrix(0.04938271604938272,0,0,0.04938271604938272,23.654320987654323,0)" xlink:href="#af"/><use transform="matrix(0.04938271604938272,0,0,0.04938271604938272,27.555555555555557,0)" xlink:href="#ag"/><use transform="matrix(0.04938271604938272,0,0,0.04938271604938272,36.44444444444444,0)" xlink:href="#Z"/><use transform="matrix(0.04938271604938272,0,0,0.04938271604938272,46.32098765432099,0)" xlink:href="#at"/><use transform="matrix(0.04938271604938272,0,0,0.04938271604938272,51.25925925925927,0)" xlink:href="#aa"/><use transform="matrix(0.04938271604938272,0,0,0.04938271604938272,61.13580246913581,0)" xlink:href="#X"/></g></defs></g></svg>