<svg xmlns="http://www.w3.org/2000/svg" xmlns:xlink="http://www.w3.org/1999/xlink" xmlns:lucid="lucid" width="1168.77" height="630.03"><g transform="translate(294.2924721916283 723.0158664671545)" lucid:page-tab-id="-rG4JPzH.xPq"><path d="M-500-1000h1500V0H-500z" fill="#fff"/><path d="M292.9-446.02h-19.28v-2h19.3zm107.33 0h-18.47v-2h18.47z" stroke="#000" stroke-width=".05"/><path d="M273.64-446.02h-1.02v-2h1.02z"/><path d="M273.67-446h-1.08v-2.04h1.07zm-1.03-2v1.96h.98V-448zM402.05-447.02l-18.67 11.05-1.02-1.73 15.76-9.32-15.76-9.32 1.02-1.72z" stroke="#000" stroke-width=".05"/><use xlink:href="#a" transform="matrix(1,0,0,1,292.9083333333332,-468.61586646715466) translate(0.005000000000002558 14.4)"/><use xlink:href="#b" transform="matrix(1,0,0,1,292.9083333333332,-468.61586646715466) translate(17.955000000000002 14.4)"/><use xlink:href="#c" transform="matrix(1,0,0,1,292.9083333333332,-468.61586646715466) translate(67.905 14.4)"/><use xlink:href="#d" transform="matrix(1,0,0,1,292.9083333333332,-468.61586646715466) translate(25.930000000000007 36)"/><path d="M111.62-502.02a5 5 0 0 1 5-5h150a5 5 0 0 1 5 5v110a5 5 0 0 1-5 5h-150a5 5 0 0 1-5-5z" stroke="#000" stroke-width="2" fill="#fff"/><use xlink:href="#e" transform="matrix(1,0,0,1,123.61705519025514,-495.01586646715464) translate(14.574999999999996 41.4)"/><use xlink:href="#f" transform="matrix(1,0,0,1,123.61705519025514,-495.01586646715464) translate(44.05 63)"/><path d="M403.05-502.02a5 5 0 0 1 5-5h150a5 5 0 0 1 5 5v110a5 5 0 0 1-5 5h-150a5 5 0 0 1-5-5z" stroke="#000" stroke-width="2" fill="#fff"/><use xlink:href="#e" transform="matrix(1,0,0,1,415.04961147641126,-495.01586646715464) translate(14.574999999999996 41.4)"/><use xlink:href="#g" transform="matrix(1,0,0,1,415.04961147641126,-495.01586646715464) translate(42.025 63)"/><path d="M341.55-234.62L340.1-236l62.64-66.38h2.75zM483.1-384.6l-36.84 39.02h-2.75l38.14-40.4z" stroke="#000" stroke-width=".05"/><path d="M483.07-384.58l-1.45-1.38 2.8-.06z"/><path d="M483.07-384.55l-1.5-1.43 2.9-.06zm-1.4-1.38l1.4 1.3 1.3-1.36zM346.3-254.7l-4.03 17.86 17.6-5.07.55 1.92-20.85 6 4.8-21.16z" stroke="#000" stroke-width=".05"/><use xlink:href="#h" transform="matrix(1,0,0,1,386.0794870060831,-345.58037478787645) translate(0.005000000000002558 14.4)"/><use xlink:href="#i" transform="matrix(1,0,0,1,386.0794870060831,-345.58037478787645) translate(8.930000000000007 36)"/><use xlink:href="#j" transform="matrix(1,0,0,1,386.0794870060831,-345.58037478787645) translate(47.93000000000001 36)"/><path d="M241.32-351.06l.05.67.14.62.25.58.33.53.4.48.5.42.52.32.58.25.6.13.67.05h42.84v2h-42.92l-.9-.07-.92-.2-.87-.37-.8-.5-.73-.6-.6-.72-.5-.8-.36-.86-.2-.92-.08-.9v-33.22h2zm75.3-68.2l.9.23.87.36.8.5.7.6.62.72.5.8.36.88.22.9.07.9v56.55h-2v-56.46l-.06-.66-.13-.6-.24-.6-.33-.53-.4-.47-.48-.4-.54-.34-.58-.24-.6-.14-.67-.06h-42v-2h42.08z" stroke="#000" stroke-width=".05"/><path d="M273.64-417.32h-1.02v-2h1.02z"/><path d="M273.67-417.3h-1.08v-2.04h1.07zm-1.03-2v1.96h.98v-1.95zM251.36-367.35l-1.72 1.02-9.32-15.76-9.32 15.77-1.73-1.02 11.05-18.67z" stroke="#000" stroke-width=".05"/><use xlink:href="#k" transform="matrix(1,0,0,1,288.1916666666667,-356.8159489327974) translate(0.005000000000002558 14.4)"/><use xlink:href="#l" transform="matrix(1,0,0,1,288.1916666666667,-356.8159489327974) translate(34.005 14.4)"/><path d="M259.57-227.98a5 5 0 0 1 5-5h150a5 5 0 0 1 5 5v110a5 5 0 0 1-5 5h-150a5 5 0 0 1-5-5z" stroke="#000" stroke-width="2" fill="#ced4db"/><use xlink:href="#m" transform="matrix(1,0,0,1,271.57181888119686,-220.9841335328456) translate(34.525 50.4)"/><path d="M339-235.98l-1.42 1.42-53.84-53.84h2.83zm-95.63-95.62h-2.83l-53-53 1.4-1.42z" stroke="#000" stroke-width=".05"/><path d="M188.97-386l-1.4 1.42-1.44-1.44h2.82z"/><path d="M189-386l-1.44 1.45-1.5-1.5h2.9zm-2.8 0l1.36 1.38 1.37-1.37zM339.57-233.98l-21-5.4.5-1.94 17.72 4.56-4.56-17.74 1.94-.5z" stroke="#000" stroke-width=".05"/><use xlink:href="#h" transform="matrix(1,0,0,1,225.13090377306486,-331.59999864097796) translate(0.005000000000002558 14.4)"/><use xlink:href="#i" transform="matrix(1,0,0,1,225.13090377306486,-331.59999864097796) translate(8.930000000000007 36)"/><use xlink:href="#n" transform="matrix(1,0,0,1,225.13090377306486,-331.59999864097796) translate(47.93000000000001 36)"/><path d="M81.62-227.98a5 5 0 0 1 5-5h150a5 5 0 0 1 5 5v110a5 5 0 0 1-5 5h-150a5 5 0 0 1-5-5z" stroke="#000" stroke-width="2" fill="#ced4db"/><use xlink:href="#o" transform="matrix(1,0,0,1,93.61705519025514,-220.9841335328456) translate(29.549999999999997 50.4)"/><path d="M162.62-235.8h-2v-63.4h2zm0-85h-2v-64.22h2z" stroke="#000" stroke-width=".05"/><path d="M162.62-385h-2V-386h2z"/><path d="M162.64-384.96h-2.05v-1.08h2.04zm-2-1.03v1h1.95v-1zM172.66-252.65l-11.04 18.67-11.05-18.67 1.73-1.02 9.32 15.76 9.32-15.77z" stroke="#000" stroke-width=".05"/><use xlink:href="#p" transform="matrix(1,0,0,1,127.64205519025516,-320.79999000000015) translate(0.005000000000002558 14.4)"/><use xlink:href="#n" transform="matrix(1,0,0,1,127.64205519025516,-320.79999000000015) translate(47.955000000000005 14.4)"/><path d="M-179.82-502.02a5 5 0 0 1 5-5h150a5 5 0 0 1 5 5v110a5 5 0 0 1-5 5h-150a5 5 0 0 1-5-5z" stroke="#000" stroke-width="2" fill="#ced4db"/><use xlink:href="#q" transform="matrix(1,0,0,1,-167.81550109590097,-495.01586646715464) translate(7.049999999999997 50.4)"/><use xlink:href="#r" transform="matrix(1,0,0,1,-167.81550109590097,-495.01586646715464) translate(81.95 50.4)"/><path d="M13.98-446.02H-17v-2h30.98zm95.64 0h-31.8v-2h31.8z" stroke="#000" stroke-width=".05"/><path d="M110.62-446.02h-1.03v-2h1.02z"/><path d="M110.64-446h-1.07v-2.04h1.07zm-1.02-2v1.96h.97V-448zM.87-456.34l-15.76 9.32L.88-437.7l-1.02 1.73-18.67-11.05 18.68-11.04z" stroke="#000" stroke-width=".05"/><use xlink:href="#s" transform="matrix(1,0,0,1,13.975777047177097,-479.4158664671546) translate(17.43 14.4)"/><use xlink:href="#t" transform="matrix(1,0,0,1,13.975777047177097,-479.4158664671546) translate(0.004999999999999005 36)"/><use xlink:href="#u" transform="matrix(1,0,0,1,13.975777047177097,-479.4158664671546) translate(9.93 57.6)"/><path d="M584.9-443.32h-19.85v-2h19.86zm106.76 0H658.9v-2h32.76z" stroke="#3a414a" stroke-width=".05" fill="#3a414a"/><path d="M565.08-443.32h-1.03v-2h1.03z" fill="#3a414a"/><path d="M565.1-443.3h-1.08v-2.04h1.08zm-1.02-2v1.96h.97v-1.95zM693.48-444.32l-18.67 11.04-1-1.72 15.75-9.32-15.76-9.32 1-1.72z" stroke="#3a414a" stroke-width=".05" fill="#3a414a"/><use xlink:href="#v" transform="matrix(1,0,0,1,584.9138823336483,-465.6507977464198) translate(22.671666666666667 14.222222222222223)"/><use xlink:href="#w" transform="matrix(1,0,0,1,584.9138823336483,-465.6507977464198) translate(0.005000000000002558 35.55555555555556)"/><path d="M541.2-351.06l.06.67.15.62.25.58.33.53.4.48.48.42.54.32.58.25.6.13.67.05h40.94v2h-41.03l-.9-.07-.9-.2-.88-.37-.82-.5-.7-.6-.62-.72-.5-.8-.36-.86-.22-.92-.07-.9v-33.22h2zm73.4-59.72l.92.22.87.36.8.5.7.6.62.72.5.8.36.87.22.9.07.9v48.08h-2v-48l-.06-.66-.13-.6-.24-.6-.33-.52-.4-.48-.48-.4-.54-.33-.58-.25-.6-.15-.67-.05h-48.58v-2h48.66z" stroke="#000" stroke-width=".05"/><path d="M565.08-408.85h-1.03v-2h1.03z"/><path d="M565.1-408.83h-1.08v-2.05h1.08zm-1.02-2v1.95h.97v-1.95zM551.25-367.35l-1.72 1.02-9.32-15.76-9.3 15.77-1.73-1.02 11.04-18.67z" stroke="#000" stroke-width=".05"/><use xlink:href="#k" transform="matrix(1,0,0,1,586.1916666666667,-356.8159545759791) translate(0.005000000000002558 14.4)"/><use xlink:href="#l" transform="matrix(1,0,0,1,586.1916666666667,-356.8159545759791) translate(34.005 14.4)"/><path d="M694.48-502.02a5 5 0 0 1 5-5h150a5 5 0 0 1 5 5v110a5 5 0 0 1-5 5h-150a5 5 0 0 1-5-5z" stroke="#000" stroke-width="2" fill="#ced4db"/><use xlink:href="#x" transform="matrix(1,0,0,1,706.4821677625675,-495.01586646715464) translate(28.549999999999997 50.4)"/><path d="M111.62-698.02a5 5 0 0 1 5-5h150a5 5 0 0 1 5 5v110a5 5 0 0 1-5 5h-150a5 5 0 0 1-5-5z" stroke="#000" stroke-width="2" fill="#ced4db"/><use xlink:href="#y" transform="matrix(1,0,0,1,123.61705519025514,-691.0158664671545) translate(24.049999999999997 41.4)"/><use xlink:href="#f" transform="matrix(1,0,0,1,123.61705519025514,-691.0158664671545) translate(44.05 63)"/><path d="M191.62-509.02v-54.5" stroke="#3a414a" stroke-width="2" fill="none"/><path d="M192.62-508.02h-2v-1.02h2z" stroke="#3a414a" stroke-width=".05" fill="#3a414a"/><path d="M191.62-578.78l4.63 14.27h-9.27z" stroke="#3a414a" stroke-width="2" fill="#fff"/><path d="M403.05-698.02a5 5 0 0 1 5-5h150a5 5 0 0 1 5 5v110a5 5 0 0 1-5 5h-150a5 5 0 0 1-5-5z" stroke="#000" stroke-width="2" fill="#ced4db"/><use xlink:href="#z" transform="matrix(1,0,0,1,415.04961147641137,-691.0158664671545) translate(37.05 50.4)"/><path d="M483.05-509.02v-54.5" stroke="#3a414a" stroke-width="2" fill="none"/><path d="M484.05-508.02h-2v-1.02h2z" stroke="#3a414a" stroke-width=".05" fill="#3a414a"/><path d="M483.05-578.78l4.63 14.27h-9.27z" stroke="#3a414a" stroke-width="2" fill="#fff"/><path d="M13.98-446.02H-17v-2h30.98zm179.6-107.7l2.92 2.13.84 2.58h229.03l.9.07.92.23.86.36.8.5.72.6.6.72.5.8.36.87.22.9.07.92v34.03h-2v-33.96l-.05-.66-.14-.6-.25-.6-.33-.52-.4-.48-.5-.4-.52-.34-.58-.24-.6-.14-.68-.06H195.9l-1.1-3.33-2-1.46-1.1-.2-2.42.8-1.46 2-.35 2.18H49.7l-.66.06-.6.14-.6.24-.52.33-.48.4-.4.5-.34.52-.23.58-.15.6-.05.67v63.56h-2v-63.63l.07-.9.22-.92.36-.87.5-.8.6-.72.72-.6.8-.5.87-.37.93-.22.9-.07h136.13l.16-.97 2.13-2.9 3.5-1.14z" stroke="#000" stroke-width=".05"/><path d="M432.33-508.02h-2v-1.02h2z"/><path d="M432.36-508h-2.05v-1.07h2.06zm-2-1.02v.98h1.95v-.98zM.87-456.34l-15.76 9.32L.88-437.7l-1.02 1.73-18.67-11.05 18.68-11.04zM-124.25-267.82l-53.04 26.47-.88-1.8 53.94-26.9zM112.5-385.94L-7.03-326.3h-1.64v.82L-40.3-309.7v-2.24l151.9-75.8z" stroke="#000" stroke-width=".05"/><path d="M112.37-387.77l.72.6.8.5-1.42.74-.9-1.8.6-.28z"/><path d="M112.4-387.8l.7.62.84.5-1.47.8-.92-1.85.63-.3zm-.78.1l.87 1.74 1.34-.7-.77-.48-.7-.6-.2-.24z" stroke="#000" stroke-width=".05"/><path d="M-176.56-237.65l-14.84 2.22 10.7-10.52z"/><path d="M-175.05-236.87l-19.24 2.9 13.88-13.65zm-13.45 0l10.43-1.56-2.9-5.84z" stroke="#000" stroke-width=".05"/><g><use xlink:href="#A" transform="matrix(1,0,0,1,-124.24496988931016,-322.27700480654016) translate(11.079999999999998 14.4)"/><use xlink:href="#B" transform="matrix(1,0,0,1,-124.24496988931016,-322.27700480654016) translate(0.005000000000002558 36)"/><use xlink:href="#C" transform="matrix(1,0,0,1,-124.24496988931016,-322.27700480654016) translate(2.0549999999999997 57.6)"/></g><path d="M-274.3-227.98a5 5 0 0 1 5-5h150a5 5 0 0 1 5 5v55.44a5 5 0 0 1-5 5h-150a5 5 0 0 1-5-5z" stroke="#000" stroke-width="2" fill="#ced4db"/><g><use xlink:href="#D" transform="matrix(1,0,0,1,-262.2924721916283,-220.9841335328456) translate(43.575 24.9)"/></g><path d="M-14.34-234.53l-1.4-1.44 26.25-25.53h2.88zm154.3-150.07L80-326.3h-2.86l61.4-59.74z" stroke="#000" stroke-width=".05"/><path d="M139.93-384.58l-1.4-1.44h2.87z"/><path d="M139.93-384.55l-1.45-1.5h2.98zM138.6-386l1.33 1.38 1.4-1.37zM-8.72-254.4l-4.8 17.68 17.8-4.3.46 1.93-21.08 5.12 5.7-20.94z" stroke="#000" stroke-width=".05"/><g><use xlink:href="#s" transform="matrix(1,0,0,1,-8.666034943464155,-326.2974615753413) translate(39.43000000000001 14.4)"/><use xlink:href="#E" transform="matrix(1,0,0,1,-8.666034943464155,-326.2974615753413) translate(0.005000000000002558 36)"/><use xlink:href="#F" transform="matrix(1,0,0,1,-8.666034943464155,-326.2974615753413) translate(33.93000000000001 57.6)"/></g><path d="M-96.34-227.98a5 5 0 0 1 5-5h150a5 5 0 0 1 5 5v110a5 5 0 0 1-5 5h-150a5 5 0 0 1-5-5z" stroke="#000" stroke-width="2" fill="#fff"/><g><use xlink:href="#G" transform="matrix(1,0,0,1,-84.33770850068657,-220.9841335328456) translate(54 41.4)"/><use xlink:href="#H" transform="matrix(1,0,0,1,-84.33770850068657,-220.9841335328456) translate(13.074999999999996 63)"/></g><defs><path d="M24-231v-30h32v30H24zM24 0v-190h32V0H24" id="I"/><path d="M135-143c-3-34-86-38-87 0 15 53 115 12 119 90S17 21 10-45l28-5c4 36 97 45 98 0-10-56-113-15-118-90-4-57 82-63 122-42 12 7 21 19 24 35" id="J"/><g id="a"><use transform="matrix(0.05,0,0,0.05,0,0)" xlink:href="#I"/><use transform="matrix(0.05,0,0,0.05,3.95,0)" xlink:href="#J"/></g><path d="M117-194c89-4 53 116 60 194h-32v-121c0-31-8-49-39-48C34-167 62-67 57 0H25l-1-190h30c1 10-1 24 2 32 11-22 29-35 61-36" id="K"/><path d="M141-36C126-15 110 5 73 4 37 3 15-17 15-53c-1-64 63-63 125-63 3-35-9-54-41-54-24 1-41 7-42 31l-33-3c5-37 33-52 76-52 45 0 72 20 72 64v82c-1 20 7 32 28 27v20c-31 9-61-2-59-35zM48-53c0 20 12 33 32 33 41-3 63-29 60-74-43 2-92-5-92 41" id="L"/><path d="M210-169c-67 3-38 105-44 169h-31v-121c0-29-5-50-35-48C34-165 62-65 56 0H25l-1-190h30c1 10-1 24 2 32 10-44 99-50 107 0 11-21 27-35 58-36 85-2 47 119 55 194h-31v-121c0-29-5-49-35-48" id="M"/><path d="M100-194c63 0 86 42 84 106H49c0 40 14 67 53 68 26 1 43-12 49-29l28 8c-11 28-37 45-77 45C44 4 14-33 15-96c1-61 26-98 85-98zm52 81c6-60-76-77-97-28-3 7-6 17-6 28h103" id="N"/><g id="b"><use transform="matrix(0.05,0,0,0.05,0,0)" xlink:href="#K"/><use transform="matrix(0.05,0,0,0.05,10,0)" xlink:href="#L"/><use transform="matrix(0.05,0,0,0.05,20,0)" xlink:href="#M"/><use transform="matrix(0.05,0,0,0.05,34.95,0)" xlink:href="#N"/></g><path d="M101-234c-31-9-42 10-38 44h38v23H63V0H32v-167H5v-23h27c-7-52 17-82 69-68v24" id="O"/><path d="M100-194c62-1 85 37 85 99 1 63-27 99-86 99S16-35 15-95c0-66 28-99 85-99zM99-20c44 1 53-31 53-75 0-43-8-75-51-75s-53 32-53 75 10 74 51 75" id="P"/><path d="M114-163C36-179 61-72 57 0H25l-1-190h30c1 12-1 29 2 39 6-27 23-49 58-41v29" id="Q"/><g id="c"><use transform="matrix(0.05,0,0,0.05,0,0)" xlink:href="#O"/><use transform="matrix(0.05,0,0,0.05,5,0)" xlink:href="#P"/><use transform="matrix(0.05,0,0,0.05,15,0)" xlink:href="#Q"/></g><path d="M26 75v-336h71v23H56V52h41v23H26" id="R"/><path d="M27 0v-27h64v-190l-56 39v-29l58-41h29v221h61V0H27" id="S"/><path d="M33 0v-38h34V0H33" id="T"/><path d="M80-196l47-18 7 23-49 13 32 44-20 13-27-46-27 45-21-12 33-44-49-13 8-23 47 19-2-53h23" id="U"/><path d="M3 75V52h41v-290H3v-23h71V75H3" id="V"/><g id="d"><use transform="matrix(0.05,0,0,0.05,0,0)" xlink:href="#R"/><use transform="matrix(0.05,0,0,0.05,5,0)" xlink:href="#S"/><use transform="matrix(0.05,0,0,0.05,15,0)" xlink:href="#T"/><use transform="matrix(0.05,0,0,0.05,20,0)" xlink:href="#T"/><use transform="matrix(0.05,0,0,0.05,25,0)" xlink:href="#U"/><use transform="matrix(0.05,0,0,0.05,32,0)" xlink:href="#V"/></g><path d="M143 4C61 4 22-44 18-125c-5-107 100-154 193-111 17 8 29 25 37 43l-32 9c-13-25-37-40-76-40-61 0-88 39-88 99 0 61 29 100 91 101 35 0 62-11 79-27v-45h-74v-28h105v86C228-13 192 4 143 4" id="W"/><path d="M177-190C167-65 218 103 67 71c-23-6-38-20-44-43l32-5c15 47 100 32 89-28v-30C133-14 115 1 83 1 29 1 15-40 15-95c0-56 16-97 71-98 29-1 48 16 59 35 1-10 0-23 2-32h30zM94-22c36 0 50-32 50-73 0-42-14-75-50-75-39 0-46 34-46 75s6 73 46 73" id="X"/><path d="M115-194c55 1 70 41 70 98S169 2 115 4C84 4 66-9 55-30l1 105H24l-1-265h31l2 30c10-21 28-34 59-34zm-8 174c40 0 45-34 45-75s-6-73-45-74c-42 0-51 32-51 76 0 43 10 73 51 73" id="Y"/><path d="M106-169C34-169 62-67 57 0H25v-261h32l-1 103c12-21 28-36 61-36 89 0 53 116 60 194h-32v-121c2-32-8-49-39-48" id="Z"/><path d="M96-169c-40 0-48 33-48 73s9 75 48 75c24 0 41-14 43-38l32 2c-6 37-31 61-74 61-59 0-76-41-82-99-10-93 101-131 147-64 4 7 5 14 7 22l-32 3c-4-21-16-35-41-35" id="aa"/><path d="M24 0v-261h32V0H24" id="ab"/><g id="e"><use transform="matrix(0.05,0,0,0.05,0,0)" xlink:href="#W"/><use transform="matrix(0.05,0,0,0.05,14,0)" xlink:href="#N"/><use transform="matrix(0.05,0,0,0.05,24,0)" xlink:href="#P"/><use transform="matrix(0.05,0,0,0.05,34,0)" xlink:href="#X"/><use transform="matrix(0.05,0,0,0.05,44,0)" xlink:href="#Q"/><use transform="matrix(0.05,0,0,0.05,49.95,0)" xlink:href="#L"/><use transform="matrix(0.05,0,0,0.05,59.95,0)" xlink:href="#Y"/><use transform="matrix(0.05,0,0,0.05,69.95,0)" xlink:href="#Z"/><use transform="matrix(0.05,0,0,0.05,79.95,0)" xlink:href="#I"/><use transform="matrix(0.05,0,0,0.05,83.9,0)" xlink:href="#aa"/><use transform="matrix(0.05,0,0,0.05,92.9,0)" xlink:href="#L"/><use transform="matrix(0.05,0,0,0.05,102.9,0)" xlink:href="#ab"/></g><path d="M190 0L58-211 59 0H30v-248h39L202-35l-2-213h31V0h-41" id="ac"/><g id="f"><use transform="matrix(0.05,0,0,0.05,0,0)" xlink:href="#ac"/><use transform="matrix(0.05,0,0,0.05,12.950000000000001,0)" xlink:href="#L"/><use transform="matrix(0.05,0,0,0.05,22.950000000000003,0)" xlink:href="#M"/><use transform="matrix(0.05,0,0,0.05,37.900000000000006,0)" xlink:href="#N"/></g><path d="M140-251c81 0 123 46 123 126C263-46 219 4 140 4 59 4 17-45 17-125s42-126 123-126zm0 227c63 0 89-41 89-101s-29-99-89-99c-61 0-89 39-89 99S79-25 140-24" id="ad"/><path d="M115-194c53 0 69 39 70 98 0 66-23 100-70 100C84 3 66-7 56-30L54 0H23l1-261h32v101c10-23 28-34 59-34zm-8 174c40 0 45-34 45-75 0-40-5-75-45-74-42 0-51 32-51 76 0 43 10 73 51 73" id="ae"/><path d="M24-231v-30h32v30H24zM-9 49c24 4 33-6 33-30v-209h32V24c2 40-23 58-65 49V49" id="af"/><path d="M59-47c-2 24 18 29 38 22v24C64 9 27 4 27-40v-127H5v-23h24l9-43h21v43h35v23H59v120" id="ag"/><g id="g"><use transform="matrix(0.05,0,0,0.05,0,0)" xlink:href="#ad"/><use transform="matrix(0.05,0,0,0.05,14,0)" xlink:href="#ae"/><use transform="matrix(0.05,0,0,0.05,24,0)" xlink:href="#af"/><use transform="matrix(0.05,0,0,0.05,27.950000000000003,0)" xlink:href="#N"/><use transform="matrix(0.05,0,0,0.05,37.95,0)" xlink:href="#aa"/><use transform="matrix(0.05,0,0,0.05,46.95,0)" xlink:href="#ag"/></g><path d="M85-194c31 0 48 13 60 33l-1-100h32l1 261h-30c-2-10 0-23-3-31C134-8 116 4 85 4 32 4 16-35 15-94c0-66 23-100 70-100zm9 24c-40 0-46 34-46 75 0 40 6 74 45 74 42 0 51-32 51-76 0-42-9-74-50-73" id="ah"/><g id="h"><use transform="matrix(0.05,0,0,0.05,0,0)" xlink:href="#L"/><use transform="matrix(0.05,0,0,0.05,10,0)" xlink:href="#ah"/><use transform="matrix(0.05,0,0,0.05,20,0)" xlink:href="#ah"/><use transform="matrix(0.05,0,0,0.05,30,0)" xlink:href="#I"/><use transform="matrix(0.05,0,0,0.05,33.95,0)" xlink:href="#ag"/><use transform="matrix(0.05,0,0,0.05,38.95,0)" xlink:href="#I"/><use transform="matrix(0.05,0,0,0.05,42.900000000000006,0)" xlink:href="#P"/><use transform="matrix(0.05,0,0,0.05,52.900000000000006,0)" xlink:href="#K"/><use transform="matrix(0.05,0,0,0.05,62.900000000000006,0)" xlink:href="#L"/><use transform="matrix(0.05,0,0,0.05,72.9,0)" xlink:href="#ab"/></g><path d="M179-190L93 31C79 59 56 82 12 73V49c39 6 53-20 64-50L1-190h34L92-34l54-156h33" id="ai"/><g id="i"><use transform="matrix(0.05,0,0,0.05,0,0)" xlink:href="#ag"/><use transform="matrix(0.05,0,0,0.05,5,0)" xlink:href="#ai"/><use transform="matrix(0.05,0,0,0.05,14,0)" xlink:href="#Y"/><use transform="matrix(0.05,0,0,0.05,24,0)" xlink:href="#N"/></g><g id="j"><use transform="matrix(0.05,0,0,0.05,0,0)" xlink:href="#R"/><use transform="matrix(0.05,0,0,0.05,5,0)" xlink:href="#S"/><use transform="matrix(0.05,0,0,0.05,15,0)" xlink:href="#V"/></g><g id="k"><use transform="matrix(0.05,0,0,0.05,0,0)" xlink:href="#Z"/><use transform="matrix(0.05,0,0,0.05,10,0)" xlink:href="#L"/><use transform="matrix(0.05,0,0,0.05,20,0)" xlink:href="#J"/></g><g id="l"><use transform="matrix(0.05,0,0,0.05,0,0)" xlink:href="#Y"/><use transform="matrix(0.05,0,0,0.05,10,0)" xlink:href="#L"/><use transform="matrix(0.05,0,0,0.05,20,0)" xlink:href="#Q"/><use transform="matrix(0.05,0,0,0.05,25.950000000000003,0)" xlink:href="#ag"/></g><path d="M212-179c-10-28-35-45-73-45-59 0-87 40-87 99 0 60 29 101 89 101 43 0 62-24 78-52l27 14C228-24 195 4 139 4 59 4 22-46 18-125c-6-104 99-153 187-111 19 9 31 26 39 46" id="aj"/><g id="m"><use transform="matrix(0.05,0,0,0.05,0,0)" xlink:href="#aj"/><use transform="matrix(0.05,0,0,0.05,12.950000000000001,0)" xlink:href="#P"/><use transform="matrix(0.05,0,0,0.05,22.950000000000003,0)" xlink:href="#K"/><use transform="matrix(0.05,0,0,0.05,32.95,0)" xlink:href="#aa"/><use transform="matrix(0.05,0,0,0.05,41.95,0)" xlink:href="#N"/><use transform="matrix(0.05,0,0,0.05,51.95,0)" xlink:href="#Y"/><use transform="matrix(0.05,0,0,0.05,61.95,0)" xlink:href="#ag"/></g><g id="n"><use transform="matrix(0.05,0,0,0.05,0,0)" xlink:href="#R"/><use transform="matrix(0.05,0,0,0.05,5,0)" xlink:href="#S"/><use transform="matrix(0.05,0,0,0.05,15,0)" xlink:href="#V"/></g><path d="M233-177c-1 41-23 64-60 70L243 0h-38l-65-103H63V0H30v-248c88 3 205-21 203 71zM63-129c60-2 137 13 137-47 0-61-80-42-137-45v92" id="ak"/><path d="M84 4C-5 8 30-112 23-190h32v120c0 31 7 50 39 49 72-2 45-101 50-169h31l1 190h-30c-1-10 1-25-2-33-11 22-28 36-60 37" id="al"/><g id="o"><use transform="matrix(0.05,0,0,0.05,0,0)" xlink:href="#ak"/><use transform="matrix(0.05,0,0,0.05,12.950000000000001,0)" xlink:href="#N"/><use transform="matrix(0.05,0,0,0.05,22.950000000000003,0)" xlink:href="#J"/><use transform="matrix(0.05,0,0,0.05,31.950000000000003,0)" xlink:href="#P"/><use transform="matrix(0.05,0,0,0.05,41.95,0)" xlink:href="#al"/><use transform="matrix(0.05,0,0,0.05,51.95,0)" xlink:href="#Q"/><use transform="matrix(0.05,0,0,0.05,57.900000000000006,0)" xlink:href="#aa"/><use transform="matrix(0.05,0,0,0.05,66.9,0)" xlink:href="#N"/></g><path d="M108 0H70L1-190h34L89-25l56-165h34" id="am"/><g id="p"><use transform="matrix(0.05,0,0,0.05,0,0)" xlink:href="#am"/><use transform="matrix(0.05,0,0,0.05,9,0)" xlink:href="#L"/><use transform="matrix(0.05,0,0,0.05,19,0)" xlink:href="#ab"/><use transform="matrix(0.05,0,0,0.05,22.95,0)" xlink:href="#al"/><use transform="matrix(0.05,0,0,0.05,32.95,0)" xlink:href="#N"/></g><path d="M30 0v-248h33v221h125V0H30" id="an"/><g id="q"><use transform="matrix(0.05,0,0,0.05,0,0)" xlink:href="#an"/><use transform="matrix(0.05,0,0,0.05,10,0)" xlink:href="#I"/><use transform="matrix(0.05,0,0,0.05,13.949999999999998,0)" xlink:href="#O"/><use transform="matrix(0.05,0,0,0.05,18.95,0)" xlink:href="#N"/><use transform="matrix(0.05,0,0,0.05,28.950000000000003,0)" xlink:href="#aa"/><use transform="matrix(0.05,0,0,0.05,37.95,0)" xlink:href="#ai"/><use transform="matrix(0.05,0,0,0.05,46.95,0)" xlink:href="#aa"/><use transform="matrix(0.05,0,0,0.05,55.95,0)" xlink:href="#ab"/><use transform="matrix(0.05,0,0,0.05,59.900000000000006,0)" xlink:href="#N"/></g><path d="M185-189c-5-48-123-54-124 2 14 75 158 14 163 119 3 78-121 87-175 55-17-10-28-26-33-46l33-7c5 56 141 63 141-1 0-78-155-14-162-118-5-82 145-84 179-34 5 7 8 16 11 25" id="ao"/><g id="r"><use transform="matrix(0.05,0,0,0.05,0,0)" xlink:href="#ao"/><use transform="matrix(0.05,0,0,0.05,12,0)" xlink:href="#ag"/><use transform="matrix(0.05,0,0,0.05,17,0)" xlink:href="#L"/><use transform="matrix(0.05,0,0,0.05,27,0)" xlink:href="#X"/><use transform="matrix(0.05,0,0,0.05,37,0)" xlink:href="#N"/></g><g id="s"><use transform="matrix(0.05,0,0,0.05,0,0)" xlink:href="#Z"/><use transform="matrix(0.05,0,0,0.05,10,0)" xlink:href="#L"/><use transform="matrix(0.05,0,0,0.05,20,0)" xlink:href="#J"/></g><g id="t"><use transform="matrix(0.05,0,0,0.05,0,0)" xlink:href="#ab"/><use transform="matrix(0.05,0,0,0.05,3.95,0)" xlink:href="#I"/><use transform="matrix(0.05,0,0,0.05,7.9,0)" xlink:href="#O"/><use transform="matrix(0.05,0,0,0.05,12.9,0)" xlink:href="#N"/><use transform="matrix(0.05,0,0,0.05,22.9,0)" xlink:href="#aa"/><use transform="matrix(0.05,0,0,0.05,31.899999999999995,0)" xlink:href="#ai"/><use transform="matrix(0.05,0,0,0.05,40.9,0)" xlink:href="#aa"/><use transform="matrix(0.05,0,0,0.05,49.9,0)" xlink:href="#ab"/><use transform="matrix(0.05,0,0,0.05,53.85,0)" xlink:href="#N"/></g><g id="u"><use transform="matrix(0.05,0,0,0.05,0,0)" xlink:href="#J"/><use transform="matrix(0.05,0,0,0.05,9,0)" xlink:href="#ag"/><use transform="matrix(0.05,0,0,0.05,14,0)" xlink:href="#L"/><use transform="matrix(0.05,0,0,0.05,24,0)" xlink:href="#X"/><use transform="matrix(0.05,0,0,0.05,34,0)" xlink:href="#N"/></g><path fill="#333" d="M106-169C34-169 62-67 57 0H25v-261h32l-1 103c12-21 28-36 61-36 89 0 53 116 60 194h-32v-121c2-32-8-49-39-48" id="ap"/><path fill="#333" d="M141-36C126-15 110 5 73 4 37 3 15-17 15-53c-1-64 63-63 125-63 3-35-9-54-41-54-24 1-41 7-42 31l-33-3c5-37 33-52 76-52 45 0 72 20 72 64v82c-1 20 7 32 28 27v20c-31 9-61-2-59-35zM48-53c0 20 12 33 32 33 41-3 63-29 60-74-43 2-92-5-92 41" id="aq"/><path fill="#333" d="M135-143c-3-34-86-38-87 0 15 53 115 12 119 90S17 21 10-45l28-5c4 36 97 45 98 0-10-56-113-15-118-90-4-57 82-63 122-42 12 7 21 19 24 35" id="ar"/><g id="v"><use transform="matrix(0.04938271604938272,0,0,0.04938271604938272,0,0)" xlink:href="#ap"/><use transform="matrix(0.04938271604938272,0,0,0.04938271604938272,9.876543209876544,0)" xlink:href="#aq"/><use transform="matrix(0.04938271604938272,0,0,0.04938271604938272,19.75308641975309,0)" xlink:href="#ar"/></g><path fill="#333" d="M177-190C167-65 218 103 67 71c-23-6-38-20-44-43l32-5c15 47 100 32 89-28v-30C133-14 115 1 83 1 29 1 15-40 15-95c0-56 16-97 71-98 29-1 48 16 59 35 1-10 0-23 2-32h30zM94-22c36 0 50-32 50-73 0-42-14-75-50-75-39 0-46 34-46 75s6 73 46 73" id="as"/><path fill="#333" d="M100-194c63 0 86 42 84 106H49c0 40 14 67 53 68 26 1 43-12 49-29l28 8c-11 28-37 45-77 45C44 4 14-33 15-96c1-61 26-98 85-98zm52 81c6-60-76-77-97-28-3 7-6 17-6 28h103" id="at"/><path fill="#333" d="M100-194c62-1 85 37 85 99 1 63-27 99-86 99S16-35 15-95c0-66 28-99 85-99zM99-20c44 1 53-31 53-75 0-43-8-75-51-75s-53 32-53 75 10 74 51 75" id="au"/><path fill="#333" d="M210-169c-67 3-38 105-44 169h-31v-121c0-29-5-50-35-48C34-165 62-65 56 0H25l-1-190h30c1 10-1 24 2 32 10-44 99-50 107 0 11-21 27-35 58-36 85-2 47 119 55 194h-31v-121c0-29-5-49-35-48" id="av"/><path fill="#333" d="M59-47c-2 24 18 29 38 22v24C64 9 27 4 27-40v-127H5v-23h24l9-43h21v43h35v23H59v120" id="aw"/><path fill="#333" d="M114-163C36-179 61-72 57 0H25l-1-190h30c1 12-1 29 2 39 6-27 23-49 58-41v29" id="ax"/><path fill="#333" d="M179-190L93 31C79 59 56 82 12 73V49c39 6 53-20 64-50L1-190h34L92-34l54-156h33" id="ay"/><g id="w"><use transform="matrix(0.04938271604938272,0,0,0.04938271604938272,0,0)" xlink:href="#as"/><use transform="matrix(0.04938271604938272,0,0,0.04938271604938272,9.876543209876544,0)" xlink:href="#at"/><use transform="matrix(0.04938271604938272,0,0,0.04938271604938272,19.75308641975309,0)" xlink:href="#au"/><use transform="matrix(0.04938271604938272,0,0,0.04938271604938272,29.629629629629633,0)" xlink:href="#av"/><use transform="matrix(0.04938271604938272,0,0,0.04938271604938272,44.39506172839506,0)" xlink:href="#at"/><use transform="matrix(0.04938271604938272,0,0,0.04938271604938272,54.27160493827161,0)" xlink:href="#aw"/><use transform="matrix(0.04938271604938272,0,0,0.04938271604938272,59.20987654320988,0)" xlink:href="#ax"/><use transform="matrix(0.04938271604938272,0,0,0.04938271604938272,65.08641975308642,0)" xlink:href="#ay"/></g><g id="x"><use transform="matrix(0.05,0,0,0.05,0,0)" xlink:href="#W"/><use transform="matrix(0.05,0,0,0.05,14,0)" xlink:href="#N"/><use transform="matrix(0.05,0,0,0.05,24,0)" xlink:href="#P"/><use transform="matrix(0.05,0,0,0.05,34,0)" xlink:href="#M"/><use transform="matrix(0.05,0,0,0.05,48.95,0)" xlink:href="#N"/><use transform="matrix(0.05,0,0,0.05,58.95,0)" xlink:href="#ag"/><use transform="matrix(0.05,0,0,0.05,63.95,0)" xlink:href="#Q"/><use transform="matrix(0.05,0,0,0.05,69.9,0)" xlink:href="#ai"/></g><g id="y"><use transform="matrix(0.05,0,0,0.05,0,0)" xlink:href="#aj"/><use transform="matrix(0.05,0,0,0.05,12.950000000000001,0)" xlink:href="#P"/><use transform="matrix(0.05,0,0,0.05,22.950000000000003,0)" xlink:href="#M"/><use transform="matrix(0.05,0,0,0.05,37.900000000000006,0)" xlink:href="#Y"/><use transform="matrix(0.05,0,0,0.05,47.900000000000006,0)" xlink:href="#P"/><use transform="matrix(0.05,0,0,0.05,57.900000000000006,0)" xlink:href="#al"/><use transform="matrix(0.05,0,0,0.05,67.9,0)" xlink:href="#K"/><use transform="matrix(0.05,0,0,0.05,77.9,0)" xlink:href="#ah"/></g><path d="M63-220v92h138v28H63V0H30v-248h175v28H63" id="az"/><g id="z"><use transform="matrix(0.05,0,0,0.05,0,0)" xlink:href="#az"/><use transform="matrix(0.05,0,0,0.05,10.950000000000001,0)" xlink:href="#N"/><use transform="matrix(0.05,0,0,0.05,20.950000000000003,0)" xlink:href="#L"/><use transform="matrix(0.05,0,0,0.05,30.950000000000003,0)" xlink:href="#ag"/><use transform="matrix(0.05,0,0,0.05,35.95,0)" xlink:href="#al"/><use transform="matrix(0.05,0,0,0.05,45.95,0)" xlink:href="#Q"/><use transform="matrix(0.05,0,0,0.05,51.900000000000006,0)" xlink:href="#N"/></g><path d="M248-111c6-24 9-61-24-58-72 9-57 108-77 169h-31l26-142c3-37-50-30-64-10C52-115 50-51 37 0H6l36-190h30c-1 10-6 24-4 32 13-43 101-52 105 5 13-22 29-41 61-41 90 0 28 129 23 194h-31" id="aA"/><path d="M67 3c-93-2-31-127-26-193h32L48-50c-3 39 53 32 70 12 30-34 30-101 43-152h32L157 0h-30c1-10 6-24 4-33-14 20-29 37-64 36" id="aB"/><path d="M6 0l50-261h32L37 0H6" id="aC"/><path d="M51-54c-9 22 5 41 31 30L79-1C43 14 10-4 19-52l22-115H19l5-23h22l19-43h21l-9 43h35l-4 23H73" id="aD"/><path d="M50-231l6-30h32l-6 30H50zM6 0l37-190h31L37 0H6" id="aE"/><path d="M67-162c32-53 139-36 121 50C175-51 163 2 97 4 68 4 52-11 42-31 38 6 28 39 22 75H-9l50-265h29c-1 10 0 20-3 28zm89 36c0-26-10-43-35-43-54 0-67 50-69 103-1 29 14 45 42 46 53 0 62-58 62-106" id="aF"/><path d="M111-194c62-3 86 47 72 106H45c-7 38 6 69 45 68 27-1 43-14 53-32l24 11C152-15 129 4 87 4 38 3 12-23 12-71c0-70 32-119 99-123zm44 81c14-66-71-72-95-28-4 8-8 17-11 28h106" id="aG"/><g id="A"><use transform="matrix(0.05,0,0,0.05,0,0)" xlink:href="#aA"/><use transform="matrix(0.05,0,0,0.05,14.950000000000001,0)" xlink:href="#aB"/><use transform="matrix(0.05,0,0,0.05,24.950000000000003,0)" xlink:href="#aC"/><use transform="matrix(0.05,0,0,0.05,28.900000000000002,0)" xlink:href="#aD"/><use transform="matrix(0.05,0,0,0.05,33.900000000000006,0)" xlink:href="#aE"/><use transform="matrix(0.05,0,0,0.05,37.85000000000001,0)" xlink:href="#aF"/><use transform="matrix(0.05,0,0,0.05,47.85000000000001,0)" xlink:href="#aC"/><use transform="matrix(0.05,0,0,0.05,51.80000000000001,0)" xlink:href="#aG"/></g><path d="M165-48c-4 18 1 34 23 27l-3 20c-29 8-62 0-52-35h-2C116-14 99 4 63 4 30 4 8-16 8-49c0-68 71-67 138-67 10-26 0-56-31-54-26 1-42 9-47 31l-32-5c8-67 160-71 144 15-5 28-9 54-15 81zM42-50c3 52 80 24 89-6 7-12 7-24 11-38-47 1-103-4-100 44" id="aH"/><path d="M67-158c22-48 132-52 116 29L158 0h-32l25-140c3-38-53-32-70-12C52-117 51-52 38 0H6l36-190h30" id="aI"/><path d="M30-147c31-64 166-65 159 27C183-49 158 1 86 4 9 8 1-88 30-147zM88-20c53 0 68-48 68-100 0-31-11-51-44-50-52 1-68 46-68 97 0 32 13 53 44 53" id="aJ"/><g id="B"><use transform="matrix(0.05,0,0,0.05,0,0)" xlink:href="#aH"/><use transform="matrix(0.05,0,0,0.05,10,0)" xlink:href="#aI"/><use transform="matrix(0.05,0,0,0.05,20,0)" xlink:href="#aI"/><use transform="matrix(0.05,0,0,0.05,30,0)" xlink:href="#aJ"/><use transform="matrix(0.05,0,0,0.05,40,0)" xlink:href="#aD"/><use transform="matrix(0.05,0,0,0.05,45,0)" xlink:href="#aH"/><use transform="matrix(0.05,0,0,0.05,55,0)" xlink:href="#aD"/><use transform="matrix(0.05,0,0,0.05,60,0)" xlink:href="#aE"/><use transform="matrix(0.05,0,0,0.05,63.95,0)" xlink:href="#aJ"/><use transform="matrix(0.05,0,0,0.05,73.95,0)" xlink:href="#aI"/></g><path d="M66-151c12-25 30-51 66-40l-6 26C45-176 58-65 38 0H6l36-190h30" id="aK"/><path d="M55-144c13 50 104 24 104 88C159 21 15 23 1-39l26-10c6 40 102 42 102-4-13-50-104-23-104-87 0-71 143-71 148-8l-29 4c-5-35-85-37-89 0" id="aL"/><g id="C"><use transform="matrix(0.05,0,0,0.05,0,0)" xlink:href="#aF"/><use transform="matrix(0.05,0,0,0.05,10,0)" xlink:href="#aK"/><use transform="matrix(0.05,0,0,0.05,15.949999999999998,0)" xlink:href="#aJ"/><use transform="matrix(0.05,0,0,0.05,25.950000000000003,0)" xlink:href="#aF"/><use transform="matrix(0.05,0,0,0.05,35.95,0)" xlink:href="#aG"/><use transform="matrix(0.05,0,0,0.05,45.95,0)" xlink:href="#aK"/><use transform="matrix(0.05,0,0,0.05,51.900000000000006,0)" xlink:href="#aD"/><use transform="matrix(0.05,0,0,0.05,56.900000000000006,0)" xlink:href="#aE"/><use transform="matrix(0.05,0,0,0.05,60.85,0)" xlink:href="#aG"/><use transform="matrix(0.05,0,0,0.05,70.85000000000001,0)" xlink:href="#aL"/></g><g id="D"><use transform="matrix(0.05,0,0,0.05,0,0)" xlink:href="#an"/><use transform="matrix(0.05,0,0,0.05,10,0)" xlink:href="#I"/><use transform="matrix(0.05,0,0,0.05,13.949999999999998,0)" xlink:href="#ag"/><use transform="matrix(0.05,0,0,0.05,18.95,0)" xlink:href="#N"/><use transform="matrix(0.05,0,0,0.05,28.950000000000003,0)" xlink:href="#Q"/><use transform="matrix(0.05,0,0,0.05,34.9,0)" xlink:href="#L"/><use transform="matrix(0.05,0,0,0.05,44.9,0)" xlink:href="#ab"/></g><g id="E"><use transform="matrix(0.05,0,0,0.05,0,0)" xlink:href="#Y"/><use transform="matrix(0.05,0,0,0.05,10,0)" xlink:href="#Q"/><use transform="matrix(0.05,0,0,0.05,15.949999999999998,0)" xlink:href="#P"/><use transform="matrix(0.05,0,0,0.05,25.950000000000003,0)" xlink:href="#K"/><use transform="matrix(0.05,0,0,0.05,35.95,0)" xlink:href="#al"/><use transform="matrix(0.05,0,0,0.05,45.95,0)" xlink:href="#K"/><use transform="matrix(0.05,0,0,0.05,55.95,0)" xlink:href="#aa"/><use transform="matrix(0.05,0,0,0.05,64.95,0)" xlink:href="#I"/><use transform="matrix(0.05,0,0,0.05,68.9,0)" xlink:href="#L"/><use transform="matrix(0.05,0,0,0.05,78.9,0)" xlink:href="#ag"/><use transform="matrix(0.05,0,0,0.05,83.9,0)" xlink:href="#I"/><use transform="matrix(0.05,0,0,0.05,87.85000000000001,0)" xlink:href="#P"/><use transform="matrix(0.05,0,0,0.05,97.85000000000001,0)" xlink:href="#K"/></g><path d="M101-251c68 0 85 55 85 127S166 4 100 4C33 4 14-52 14-124c0-73 17-127 87-127zm-1 229c47 0 54-49 54-102s-4-102-53-102c-51 0-55 48-55 102 0 53 5 102 54 102" id="aM"/><g id="F"><use transform="matrix(0.05,0,0,0.05,0,0)" xlink:href="#R"/><use transform="matrix(0.05,0,0,0.05,5,0)" xlink:href="#aM"/><use transform="matrix(0.05,0,0,0.05,15,0)" xlink:href="#T"/><use transform="matrix(0.05,0,0,0.05,20,0)" xlink:href="#T"/><use transform="matrix(0.05,0,0,0.05,25,0)" xlink:href="#S"/><use transform="matrix(0.05,0,0,0.05,35,0)" xlink:href="#V"/></g><path d="M33 0v-248h34V0H33" id="aN"/><path d="M205 0l-28-72H64L36 0H1l101-248h38L239 0h-34zm-38-99l-47-123c-12 45-31 82-46 123h93" id="aO"/><g id="G"><use transform="matrix(0.05,0,0,0.05,0,0)" xlink:href="#aN"/><use transform="matrix(0.05,0,0,0.05,5,0)" xlink:href="#ao"/><use transform="matrix(0.05,0,0,0.05,17,0)" xlink:href="#aO"/></g><path d="M30-248c87 1 191-15 191 75 0 78-77 80-158 76V0H30v-248zm33 125c57 0 124 11 124-50 0-59-68-47-124-48v98" id="aP"/><g id="H"><use transform="matrix(0.05,0,0,0.05,0,0)" xlink:href="#aP"/><use transform="matrix(0.05,0,0,0.05,12,0)" xlink:href="#Q"/><use transform="matrix(0.05,0,0,0.05,17.95,0)" xlink:href="#P"/><use transform="matrix(0.05,0,0,0.05,27.950000000000003,0)" xlink:href="#K"/><use transform="matrix(0.05,0,0,0.05,37.95,0)" xlink:href="#al"/><use transform="matrix(0.05,0,0,0.05,47.95,0)" xlink:href="#K"/><use transform="matrix(0.05,0,0,0.05,57.95,0)" xlink:href="#aa"/><use transform="matrix(0.05,0,0,0.05,66.95,0)" xlink:href="#I"/><use transform="matrix(0.05,0,0,0.05,70.9,0)" xlink:href="#L"/><use transform="matrix(0.05,0,0,0.05,80.9,0)" xlink:href="#ag"/><use transform="matrix(0.05,0,0,0.05,85.9,0)" xlink:href="#I"/><use transform="matrix(0.05,0,0,0.05,89.85000000000001,0)" xlink:href="#P"/><use transform="matrix(0.05,0,0,0.05,99.85000000000001,0)" xlink:href="#K"/></g></defs></g></svg>